<?xml version="1.0" standalone="no"?>
<!DOCTYPE svg PUBLIC "-//W3C//DTD SVG 20010904//EN"
 "http://www.w3.org/TR/2001/REC-SVG-20010904/DTD/svg10.dtd">
<svg version="1.0" xmlns="http://www.w3.org/2000/svg"
 width="700.000000pt" height="700.000000pt" viewBox="0 0 700.000000 700.000000"
 preserveAspectRatio="xMidYMid meet">
<metadata>
Created by potrace 1.14, written by Peter Selinger 2001-2017
</metadata>
<g transform="translate(0.000000,700.000000) scale(0.100000,-0.100000)"
fill="#000000" stroke="none">
<path d="M3278 6996 c-1 -2 -42 -6 -89 -10 -47 -4 -95 -8 -105 -10 -10 -2 -46
-7 -79 -12 -33 -4 -62 -8 -65 -9 -3 0 -27 -4 -55 -9 -27 -4 -106 -21 -175 -37
-69 -17 -133 -32 -143 -34 -10 -2 -69 -21 -130 -41 -303 -98 -583 -231 -847
-402 -78 -51 -318 -227 -330 -242 -3 -4 -41 -38 -85 -77 -271 -237 -524 -548
-707 -868 -168 -294 -297 -611 -364 -895 -50 -214 -73 -351 -91 -550 -15 -167
-8 -571 12 -714 3 -17 7 -49 9 -71 10 -83 18 -131 26 -165 5 -19 12 -48 14
-65 40 -224 149 -544 271 -799 220 -457 521 -840 945 -1200 14 -11 61 -48 105
-81 44 -33 82 -63 83 -67 2 -5 8 -8 13 -8 6 0 38 -19 72 -43 195 -136 524
-302 770 -387 225 -78 466 -137 676 -166 25 -3 57 -8 71 -10 163 -25 682 -25
842 1 13 2 46 7 73 10 72 10 86 12 120 19 17 3 44 8 60 11 263 50 581 156 840
280 696 333 1268 897 1618 1595 121 243 234 561 283 795 16 75 54 300 60 350
4 33 9 76 11 95 8 69 10 517 3 595 -12 126 -20 202 -25 227 -3 13 -8 43 -11
68 -3 25 -9 61 -14 80 -5 19 -12 51 -15 70 -11 66 -64 265 -95 359 -243 743
-729 1388 -1371 1822 -70 47 -69 47 -174 110 -344 209 -853 394 -1225 444 -19
3 -46 7 -60 10 -13 2 -54 7 -90 11 -36 3 -76 8 -90 11 -27 5 -536 14 -542 9z
m482 -650 c36 -4 82 -9 103 -12 20 -3 47 -7 60 -9 172 -23 501 -110 622 -165
11 -5 49 -21 84 -35 36 -15 114 -53 175 -84 327 -169 615 -395 849 -666 33
-38 63 -72 67 -75 4 -3 47 -61 96 -130 180 -251 297 -481 394 -770 202 -601
193 -1273 -25 -1875 -65 -181 -188 -426 -296 -591 -50 -76 -94 -141 -98 -144
-3 -3 -33 -39 -66 -80 -129 -163 -337 -369 -469 -465 -23 -16 -43 -32 -46 -36
-29 -37 -347 -229 -487 -294 -299 -141 -642 -236 -945 -263 -203 -18 -582 -5
-747 25 -187 34 -452 104 -536 143 -11 5 -42 18 -70 29 -67 25 -265 121 -345
167 -65 37 -252 159 -287 188 -10 8 -54 43 -98 77 -187 147 -433 419 -585 647
-219 330 -377 735 -434 1117 -9 55 -18 116 -21 135 -11 60 -14 500 -4 590 40
378 145 733 311 1051 81 154 168 286 308 470 73 95 260 287 370 379 36 30 67
57 70 60 14 14 164 122 230 165 217 142 476 262 732 339 65 20 128 38 140 40
13 2 46 10 73 16 28 6 57 13 65 15 36 6 88 15 125 20 22 4 51 8 65 10 14 3 68
7 120 11 52 3 96 7 97 8 6 5 342 -2 403 -8z"/>
<path d="M3215 5894 c-44 -7 -100 -15 -125 -19 -74 -10 -309 -72 -395 -103
-212 -77 -388 -168 -563 -289 -380 -264 -667 -616 -852 -1046 -44 -103 -111
-301 -124 -369 -2 -13 -11 -54 -19 -93 -33 -153 -46 -297 -45 -485 1 -192 18
-352 55 -510 8 -36 17 -75 19 -88 3 -13 22 -76 43 -140 56 -168 104 -275 215
-477 32 -57 133 -203 192 -277 334 -413 775 -699 1284 -832 87 -22 187 -41
345 -65 93 -14 485 -6 595 12 149 25 160 27 244 48 795 200 1442 799 1696
1569 46 139 51 158 79 300 37 191 45 280 44 490 -1 380 -81 712 -255 1061
-263 529 -724 950 -1278 1167 -95 37 -278 92 -355 107 -33 6 -168 30 -230 40
-74 13 -487 12 -570 -1z m540 -436 c11 -3 43 -9 70 -13 75 -10 205 -42 292
-72 724 -242 1243 -879 1337 -1643 21 -168 13 -407 -19 -592 -50 -280 -186
-586 -374 -838 -186 -249 -507 -498 -791 -614 -36 -15 -74 -31 -85 -36 -37
-16 -150 -49 -235 -69 -99 -23 -124 -28 -270 -46 -43 -6 -328 -7 -355 -1 -11
2 -47 7 -80 10 -336 38 -715 201 -991 427 -411 336 -666 814 -719 1349 -6 58
-6 325 0 370 3 19 7 55 10 80 43 333 205 706 425 975 176 215 396 393 638 515
151 76 379 154 512 176 19 4 69 12 110 19 72 12 479 14 525 3z"/>
</g>
</svg>
