<svg xmlns="http://www.w3.org/2000/svg" viewBox="0 0 128 128">
    <path class="logo__letters" d="M39.555 50.355c-6.853 0-11.907 5.133-11.907 13.602 0 8.469 5.027 13.602 11.907 13.602 5.818 0 10.073-3.648 10.94-8.883l-4.034-.012c-.686 3.389-3.532 5.252-6.88 5.252-4.541 0-7.968-3.533-7.968-9.957 0-6.424 3.414-9.955 7.979-9.955 3.373 0 6.207 1.902 6.865 5.328l.004-.002h4.033c-.906-5.664-5.34-8.975-10.94-8.975zm38.748.362-.002.004h.002zm0 .004v26.478H96.07v-3.44H82.297v-8.105h12.752V62.23H82.297V54.16h13.617v-3.44zm-24.823 0v17.521c0 5.974 4.651 9.4 10.51 9.4 5.86 0 10.528-3.426 10.528-9.4V50.721h-3.995v17.457c0 3.711-2.985 5.793-6.529 5.793s-6.517-2.082-6.517-5.793V50.72Z"/>
    <path class="logo__inner" d="M64 9.586C33.947 9.586 9.586 33.947 9.586 64S33.947 118.414 64 118.414 118.414 94.053 118.414 64 94.05 9.586 64 9.586Zm0 105.973c-28.476 0-51.562-23.086-51.562-51.562S35.524 12.438 64 12.438 115.562 35.524 115.562 64 92.476 115.562 64 115.562z"/>
    <path class="logo__outer" d="M64 0C28.653 0 0 28.653 0 64s28.653 64 64 64 64-28.653 64-64S99.347 0 64 0Zm0 121.843C32.054 121.843 6.157 95.946 6.157 64 6.157 32.054 32.054 6.157 64 6.157c31.946 0 57.843 25.897 57.843 57.843 0 31.946-25.897 57.843-57.843 57.843z"/>
    <path class="logo__beta" d="M 45.5 85 C 40.791 85 37 88.791 37 93.5 C 37 98.209 40.791 102 45.5 102 L 82.5 102 C 87.209 102 91 98.209 91 93.5 C 91 88.791 87.209 85 82.5 85 L 45.5 85 z M 48.728516 89.726562 L 51.640625 89.726562 C 52.175625 89.726563 52.622969 89.806244 52.980469 89.964844 C 53.337969 90.123444 53.605256 90.3433 53.785156 90.625 C 53.965056 90.9044 54.056641 91.227197 54.056641 91.591797 C 54.056641 91.875897 53.998466 92.126397 53.884766 92.341797 C 53.771166 92.554897 53.614816 92.729887 53.416016 92.867188 C 53.219516 93.002088 52.995486 93.097497 52.742188 93.154297 L 52.742188 93.224609 C 53.019088 93.236509 53.278031 93.314584 53.519531 93.458984 C 53.763331 93.603384 53.961781 93.805906 54.113281 94.066406 C 54.264781 94.324406 54.339844 94.632834 54.339844 94.990234 C 54.339844 95.376134 54.244534 95.720438 54.052734 96.023438 C 53.863334 96.324137 53.582636 96.561128 53.210938 96.736328 C 52.839236 96.911528 52.380437 97 51.835938 97 L 48.728516 97 L 48.728516 89.726562 z M 56.941406 89.726562 L 61.841797 89.726562 L 61.841797 90.994141 L 58.478516 90.994141 L 58.478516 92.728516 L 61.589844 92.728516 L 61.589844 93.996094 L 58.478516 93.996094 L 58.478516 95.732422 L 61.855469 95.732422 L 61.855469 97 L 56.941406 97 L 56.941406 89.726562 z M 64.386719 89.726562 L 70.359375 89.726562 L 70.359375 90.994141 L 68.132812 90.994141 L 68.132812 97 L 66.613281 97 L 66.613281 90.994141 L 64.386719 90.994141 L 64.386719 89.726562 z M 74.171875 89.726562 L 76.152344 89.726562 L 78.660156 97 L 77.011719 97 L 76.472656 95.341797 L 73.847656 95.341797 L 73.308594 97 L 71.660156 97 L 74.171875 89.726562 z M 50.267578 90.970703 L 50.267578 92.771484 L 51.40625 92.771484 C 51.61695 92.771484 51.80545 92.733556 51.96875 92.660156 C 52.13445 92.584356 52.264675 92.479097 52.359375 92.341797 C 52.456475 92.204497 52.503906 92.039456 52.503906 91.847656 C 52.503906 91.584856 52.409656 91.371937 52.222656 91.210938 C 52.037956 91.050037 51.776447 90.970703 51.435547 90.970703 L 50.267578 90.970703 z M 75.132812 91.388672 L 74.238281 94.140625 L 76.083984 94.140625 L 75.189453 91.388672 L 75.132812 91.388672 z M 50.267578 93.810547 L 50.267578 95.742188 L 51.519531 95.742188 C 51.948031 95.742187 52.260531 95.661347 52.457031 95.498047 C 52.653531 95.332247 52.751953 95.112591 52.751953 94.837891 C 52.751953 94.636691 52.704522 94.458588 52.607422 94.304688 C 52.510322 94.150788 52.371406 94.030959 52.191406 93.943359 C 52.013906 93.855759 51.802841 93.810547 51.556641 93.810547 L 50.267578 93.810547 z "/>
</svg>
