<svg xmlns="http://www.w3.org/2000/svg" viewBox="0 0 128 128">
    <path class="logo__letters" d="M39.555 50.355c-6.853 0-11.907 5.133-11.907 13.602 0 8.469 5.027 13.602 11.907 13.602 5.818 0 10.073-3.648 10.94-8.883l-4.034-.012c-.686 3.389-3.532 5.252-6.88 5.252-4.541 0-7.968-3.533-7.968-9.957 0-6.424 3.414-9.955 7.979-9.955 3.373 0 6.207 1.902 6.865 5.328l.004-.002h4.033c-.906-5.664-5.34-8.975-10.94-8.975zm38.748.362-.002.004h.002zm0 .004v26.478H96.07v-3.44H82.297v-8.105h12.752V62.23H82.297V54.16h13.617v-3.44zm-24.823 0v17.521c0 5.974 4.651 9.4 10.51 9.4 5.86 0 10.528-3.426 10.528-9.4V50.721h-3.995v17.457c0 3.711-2.985 5.793-6.529 5.793s-6.517-2.082-6.517-5.793V50.72Z"/>
    <path class="logo__inner" d="M64 9.586C33.947 9.586 9.586 33.947 9.586 64S33.947 118.414 64 118.414 118.414 94.053 118.414 64 94.05 9.586 64 9.586Zm0 105.973c-28.476 0-51.562-23.086-51.562-51.562S35.524 12.438 64 12.438 115.562 35.524 115.562 64 92.476 115.562 64 115.562z"/>
    <path class="logo__outer" d="M64 0C28.653 0 0 28.653 0 64s28.653 64 64 64 64-28.653 64-64S99.347 0 64 0Zm0 121.843C32.054 121.843 6.157 95.946 6.157 64 6.157 32.054 32.054 6.157 64 6.157c31.946 0 57.843 25.897 57.843 57.843 0 31.946-25.897 57.843-57.843 57.843z"/>
    <path class="logo__alpha" d="m 45.5,85 c -4.709,0 -8.5,3.791 -8.5,8.5 0,4.709 3.791,8.5 8.5,8.5 h 37 C 87.209,102 91,98.209 91,93.5 91,88.791 87.209,85 82.5,85 Z m 2.5625,4.726562 h 1.982422 L 52.552734,97 h -1.648437 l -0.539063,-1.658203 h -2.625 L 47.201172,97 h -1.648438 z m 6.064453,0 h 1.539063 v 6.00586 h 3.117187 V 97 h -4.65625 z m 6.375,0 h 2.869141 c 0.5516,10e-7 1.021856,0.105707 1.410156,0.316407 0.3882,0.2083 0.683119,0.499494 0.886719,0.871093 0.206,0.3694 0.308594,0.794344 0.308593,1.277344 0,0.4829 -0.104198,0.909897 -0.3125,1.279297 -0.208298,0.3693 -0.508996,0.657281 -0.904296,0.863281 -0.393,0.206 -0.869035,0.308594 -1.427735,0.308594 H 62.039062 V 97 h -1.537109 z m 7.173828,0 h 1.53711 v 3.001954 h 3.121093 v -3.001954 h 1.535157 V 97 H 72.333984 V 93.996094 H 69.212891 V 97 h -1.53711 z m 10.277344,0 h 1.982422 L 82.441406,97 H 80.794922 L 80.255859,95.341797 H 77.628906 L 77.089844,97 h -1.646485 z m -15.914063,1.257813 v 2.425781 h 1.042969 c 0.2959,0 0.540622,-0.05054 0.732422,-0.152344 0.1941,-0.1042 0.338894,-0.247387 0.433594,-0.429687 0.0971,-0.1847 0.144531,-0.397619 0.144531,-0.636719 0,-0.2415 -0.04743,-0.450959 -0.144531,-0.630859 -0.0947,-0.1823 -0.239494,-0.324428 -0.433594,-0.423828 -0.1942,-0.101804 -0.439981,-0.152344 -0.738281,-0.152344 z m -13.013671,0.404297 -0.894532,2.751953 h 1.845703 l -0.894531,-2.751953 z m 29.890625,0 -0.896485,2.751953 h 1.847657 l -0.894532,-2.751953 z"/>
</svg>
