<svg xmlns="http://www.w3.org/2000/svg" viewBox="0 0 24 24">
  <path d="m 13.68382,17.850223 c -0.233192,-0.233183 -0.34512,-0.514948 -0.335785,-0.845294 0.01009,-0.330346 0.131739,-0.612103 0.36493,-0.845294 L 17.00669,12.865922 H 4.1658838 c -0.330301,0 -0.607435,-0.111928 -0.831291,-0.335785 -0.223073,-0.223084 -0.334554,-0.499794 -0.334554,-0.830138 0,-0.330345 0.111481,-0.607446 0.334554,-0.831303 0.223856,-0.223073 0.50099,-0.334621 0.831291,-0.334621 H 17.00669 L 13.68382,7.2112048 c -0.233192,-0.233225 -0.349776,-0.510247 -0.349776,-0.831257 0,-0.320227 0.116584,-0.597026 0.349776,-0.830172 0.233179,-0.233147 0.510281,-0.349776 0.831291,-0.349776 0.320249,0 0.596958,0.116629 0.830138,0.349776 l 5.334082,5.3340762 c 0.116593,0.116595 0.199374,0.242906 0.248341,0.378932 0.04819,0.136016 0.07229,0.281758 0.07229,0.437215 0,0.155457 -0.0241,0.301199 -0.07229,0.437225 -0.04897,0.136015 -0.131748,0.262326 -0.248341,0.378922 l -5.363227,5.363225 C 15.102354,18.093122 14.835349,18.2 14.515111,18.2 c -0.32101,0 -0.598112,-0.116592 -0.831291,-0.349777 z" />
</svg>
