<svg xmlns="http://www.w3.org/2000/svg" viewBox="0 0 24 24">
  <path d="m 13.066252,12.005998 5.306862,5.301025 a 1.0012397,1.0012397 0 0 1 -1.424504,1.40699 l -6.013276,-5.995762 a 0.99832065,0.99832065 0 0 1 0,-1.354447 l 6.007437,-6.0658195 a 1.0158351,1.0158351 0 0 1 0.677224,-0.2977447 1.0450257,1.0450257 0 0 1 0.753119,0.2977447 0.99832065,0.99832065 0 0 1 0,1.4069899 z"/>
  <path d="m 8.3957458,12.005998 5.3068622,5.301025 a 1.0012397,1.0012397 0 0 1 -1.424504,1.40699 L 6.2648274,12.718251 a 0.99832065,0.99832065 0 0 1 0,-1.354447 L 12.272266,5.2979845 a 1.0158351,1.0158351 0 0 1 0.677223,-0.2977447 1.0450257,1.0450257 0 0 1 0.753119,0.2977447 0.99832065,0.99832065 0 0 1 0,1.4069899 z"/>
</svg>
