<svg xmlns="http://www.w3.org/2000/svg" viewBox="0 0 24 24">
    <path d="m 3.5948644,2.000296 a 1.5613575,1.5057947 0 0 0 -1.14548,2.5625059 l 7.3899503,7.4454621 -7.3899503,7.443643 a 1.5615968,1.5060254 0 0 0 2.2551047,2.083857 l 7.2955939,-7.350825 7.295594,7.350825 a 1.5615969,1.5060255 0 1 0 2.255105,-2.083857 l -7.38995,-7.443643 7.38995,-7.4454621 a 1.5613575,1.5057947 0 0 0 -1.192658,-2.560686 1.5613575,1.5057947 0 0 0 -1.062447,0.47865 L 12.000083,9.8297702 4.7044891,2.4807659 A 1.5613575,1.5057947 0 0 0 3.5948644,2.000296 Z"/>
</svg>
