<svg xmlns="http://www.w3.org/2000/svg" viewBox="0 0 24 24">
    <path d="M10.8 9.78 9.72 8.73a1.17 1.17 0 0 0-.856-.316c-.33.01-.604.126-.824.346-.22.22-.33.5-.33.84 0 .34.11.62.33.84l3.12 3.12c.22.22.5.33.84.33.34 0 .62-.11.84-.33l3.15-3.15c.22-.22.325-.495.316-.826a1.174 1.174 0 0 0-.346-.824c-.22-.22-.5-.335-.84-.346-.34-.01-.62.106-.84.346L13.2 9.78V5.97c0-.34-.115-.62-.344-.84-.23-.22-.516-.33-.856-.33-.34 0-.625.115-.854.344-.23.23-.346.516-.346.856zM7.2 18h9.63c.34 0 .62-.115.84-.346.22-.23.33-.514.33-.854 0-.34-.115-.625-.346-.856a1.16 1.16 0 0 0-.854-.344H7.17c-.34 0-.62.115-.84.344-.22.23-.33.516-.33.856 0 .34.115.625.344.854.23.23.516.346.856.346zm4.8 6c-1.66 0-3.22-.315-4.68-.946a12.11 12.11 0 0 1-3.81-2.564 12.11 12.11 0 0 1-2.564-3.81C.316 15.22 0 13.66 0 12c0-1.66.315-3.22.946-4.68A12.11 12.11 0 0 1 3.51 3.51 12.127 12.127 0 0 1 7.32.944C8.78.314 10.34 0 12 0c1.66 0 3.22.315 4.68.944 1.46.63 2.73 1.486 3.81 2.566a12.11 12.11 0 0 1 2.564 3.81c.63 1.46.946 3.02.946 4.68 0 1.66-.315 3.22-.946 4.68a12.111 12.111 0 0 1-2.564 3.81 12.11 12.11 0 0 1-3.81 2.564c-1.46.63-3.02.946-4.68.946Z"/>
</svg>
