<svg xmlns="http://www.w3.org/2000/svg" viewBox="0 0 24 24">
    <path d="M12 0a12 12 0 1 0 0 24 12 12 0 0 0 0-24ZM1.48 12.907h3.347a18.96 18.96 0 0 0 .506 3.6h-2.88a10.48 10.48 0 0 1-.973-3.6Zm11.427-7.2v-4.12a5.506 5.506 0 0 1 2.96 2.666c.273.463.514.944.72 1.44zm4.293 1.8c.31 1.177.493 2.384.547 3.6h-4.84v-3.6Zm-6.107-5.92v4.12h-3.68c.206-.497.447-.978.72-1.44a5.507 5.507 0 0 1 2.96-2.68zm0 5.92v3.6H6.267a17.12 17.12 0 0 1 .546-3.6Zm-6.266 3.586H1.48a10.48 10.48 0 0 1 .973-3.6h2.88a18.84 18.84 0 0 0-.506 3.6Zm1.44 1.814h4.826v3.6h-4.28a17.172 17.172 0 0 1-.546-3.6zm4.84 5.333v4.12a5.507 5.507 0 0 1-2.96-2.667 11.38 11.38 0 0 1-.72-1.44zm1.8 4.12v-4.053h3.68a11.36 11.36 0 0 1-.72 1.44 5.507 5.507 0 0 1-2.96 2.666zm0-5.92v-3.6h4.826a17.17 17.17 0 0 1-.546 3.6zm6.28-3.6h3.346a10.48 10.48 0 0 1-.973 3.6h-2.893c.28-1.16.449-2.343.506-3.533zm0-1.8a18.83 18.83 0 0 0-.52-3.533h2.88c.537 1.133.866 2.352.973 3.6Zm1.333-5.333h-2.387a11.896 11.896 0 0 0-1.853-3.36c1.66.744 3.1 1.901 4.187 3.36zm-12.8-3.36a11.894 11.894 0 0 0-1.853 3.36H3.533a10.667 10.667 0 0 1 4.187-3.36Zm-4.2 16h2.347a11.893 11.893 0 0 0 1.853 3.36 10.667 10.667 0 0 1-4.187-3.4zm12.747 3.36a11.892 11.892 0 0 0 1.853-3.36h2.347a10.666 10.666 0 0 1-4.187 3.306Z"/>
</svg>
