<svg xmlns="http://www.w3.org/2000/svg" viewBox="0 0 24 24">
    <path d="M 17.213722,0.00662809 A 6.5030858,6.5037237 0 0 0 12.89775,1.9055033 L 8.9352674,5.8683745 A 6.5025351,6.5031729 0 0 0 10.730237,16.334418 l 1.680667,-1.68295 A 4.3350236,4.3354487 0 0 1 10.467767,7.3989066 l 3.960364,-3.9628711 a 4.3375545,4.3379801 0 1 1 6.134229,6.1348291 l -1.71877,1.7168204 c 0.24276,0.910444 0.335812,1.853642 0.277288,2.790098 l 2.973978,-2.97427 A 6.5030858,6.5037237 0 0 0 17.213722,0.00662809 Z M 13.27029,7.6635213 12.000263,8.9336722 a 2.1718467,2.1720599 0 0 0 -0.334441,0.4318514 4.3350236,4.3354487 0 0 1 1.866939,7.2335094 L 9.5723977,20.561905 A 4.3375542,4.3379798 0 1 1 3.4381698,14.427075 L 5.1569386,12.710254 A 8.7090624,8.7099165 0 0 1 4.8796497,9.9222732 L 1.9056711,12.896543 a 6.5033375,6.5039752 0 1 0 9.1971079,9.19801 l 3.962483,-3.964988 A 6.5025351,6.5031729 0 0 0 13.27029,7.6635213 Z"/>
</svg>
