<svg xmlns="http://www.w3.org/2000/svg" viewBox="0 0 24 24">
  <path d="M 12.007812,2 C 9.3542939,2 6.8079567,3.0553246 4.9316406,4.9316406 3.0553246,6.8079567 2,9.3542939 2,12.007812 c 0,2.653505 1.0553633,5.199825 2.9316406,7.076172 1.8763056,1.87626 4.4226361,2.931641 7.0761714,2.931641 1.981858,0 3.805682,-0.752423 5.433594,-1.832031 l 3.228516,3.228515 a 1.9390821,1.9390821 0 1 0 2.742187,-2.742187 l -3.228515,-3.228516 c 1.079608,-1.627912 1.832031,-3.451736 1.832031,-5.433594 0,-2.6535353 -1.055381,-5.1998658 -2.931641,-7.0761714 C 17.207637,3.0553633 14.661317,2 12.007812,2 Z m 0,3.8769531 c 1.626532,0 3.183763,0.6466958 4.333985,1.796875 1.150123,1.1501511 1.796875,2.7074459 1.796875,4.3339839 0,1.626515 -0.646714,3.183752 -1.796875,4.333985 -1.150233,1.150161 -2.70747,1.796875 -4.333985,1.796875 -1.626538,0 -3.1838328,-0.646752 -4.3339839,-1.796875 -1.1501792,-1.150222 -1.796875,-2.707453 -1.796875,-4.333985 0,-1.626555 0.6467345,-3.1838433 1.796875,-4.3339839 1.1501406,-1.1501405 2.7074289,-1.796875 4.3339839,-1.796875 z"/>
</svg>
