<svg xmlns="http://www.w3.org/2000/svg" viewBox="0 0 24 24">
    <path d="M5.053 15.158a2.526 2.526 0 1 1-2.527-2.526h2.527zm1.263 0a2.526 2.526 0 0 1 5.052 0v6.316a2.526 2.526 0 1 1-5.052 0ZM8.842 5.053a2.526 2.526 0 1 1 2.526-2.527v2.527zm0 1.263a2.526 2.526 0 0 1 0 5.052H2.526a2.526 2.526 0 1 1 0-5.052Zm10.105 2.526a2.526 2.526 0 1 1 2.527 2.526h-2.527zm-1.263 0a2.526 2.526 0 1 1-5.052 0V2.526a2.526 2.526 0 1 1 5.052 0Zm-2.526 10.105a2.526 2.526 0 1 1-2.526 2.527v-2.527zm0-1.263a2.526 2.526 0 1 1 0-5.052h6.316a2.526 2.526 0 1 1 0 5.052z"/>
</svg>
