<?xml version="1.0" encoding="utf-8"?>
<svg viewBox="0 0 338.32546 338.32546" width="338.32546" height="338.32546" xmlns="http://www.w3.org/2000/svg">
  <path d="M 9.192 168.547 C 9.192 80.539 80.537 9.194 168.545 9.194 C 210.809 9.194 251.34 25.984 281.225 55.868 C 311.109 85.752 327.899 126.284 327.899 168.547 C 327.899 256.555 256.553 327.901 168.545 327.901 C 80.537 327.901 9.192 256.555 9.192 168.547 Z" stroke="#4a86e8" stroke-linecap="butt" stroke-linejoin="round" stroke-opacity="1" fill-opacity="1" stroke-dasharray="none" style="stroke-width: 17.5px; fill: rgb(255, 255, 255);"/>
  <path d="M 19.648 168.547 C 19.648 86.313 86.312 19.65 168.546 19.65 C 208.036 19.65 245.908 35.337 273.832 63.261 C 301.756 91.184 317.443 129.057 317.443 168.547 C 317.443 250.781 250.78 317.445 168.546 317.445 C 86.312 317.445 19.648 250.781 19.648 168.547 Z" stroke-linecap="butt" stroke-linejoin="round" stroke-width="3" fill="none" stroke-opacity="1" fill-opacity="1" stroke-dasharray="none" style=""/>
  <path d="M 118.659 138.774 C 124.44 138.774 129.503 140.426 133.847 143.728 C 138.201 147.019 140.795 151.53 141.628 157.259 L 136.206 157.259 C 135.133 152.853 133.003 149.446 129.815 147.04 C 126.628 144.634 122.899 143.431 118.628 143.431 C 112.013 143.431 106.779 145.78 102.925 150.478 C 99.071 155.176 97.143 161.196 97.143 168.54 C 97.143 175.759 99.045 181.754 102.847 186.524 C 106.649 191.285 111.909 193.665 118.628 193.665 C 123.576 193.665 127.716 191.993 131.05 188.649 C 134.383 185.295 136.362 180.873 136.987 175.384 L 142.409 175.384 C 141.607 182.54 139.081 188.155 134.831 192.228 C 130.591 196.29 125.201 198.321 118.659 198.321 C 110.409 198.321 103.852 195.519 98.987 189.915 C 94.133 184.311 91.706 177.186 91.706 168.54 C 91.706 159.821 94.159 152.681 99.065 147.118 C 103.982 141.556 110.513 138.774 118.659 138.774 Z M 155.612 139.993 L 155.612 175.728 C 155.612 181.561 156.966 186.009 159.675 189.071 C 162.383 192.134 166.602 193.665 172.331 193.665 C 178.091 193.665 182.331 192.155 185.05 189.134 C 187.768 186.113 189.128 181.644 189.128 175.728 L 189.128 139.993 L 194.597 139.993 L 194.597 176.899 C 194.597 183.202 192.706 188.347 188.925 192.337 C 185.154 196.327 179.623 198.321 172.331 198.321 C 167.883 198.321 163.982 197.488 160.628 195.821 C 157.284 194.144 154.706 191.629 152.893 188.274 C 151.091 184.91 150.19 181.118 150.19 176.899 L 150.19 139.993 Z M 244.995 139.993 L 244.995 144.634 L 211.011 144.634 L 211.011 165.259 L 242.839 165.259 L 242.839 169.915 L 211.011 169.915 L 211.011 192.446 L 245.386 192.446 L 245.386 197.103 L 205.542 197.103 L 205.542 139.993 Z" fill="#4a86e8" stroke-opacity="1" fill-opacity="1" stroke="none" stroke-dasharray="none"/>
  <path d="M 23.596 168.548 C 23.596 88.494 88.493 23.598 168.547 23.598 C 206.989 23.598 243.857 38.869 271.041 66.053 C 298.224 93.236 313.495 130.105 313.495 168.548 C 313.495 248.601 248.6 313.497 168.547 313.497 C 88.493 313.497 23.596 248.601 23.596 168.548 Z" stroke-linecap="butt" stroke-linejoin="round" fill="none" stroke-opacity="1" fill-opacity="1" stroke-dasharray="none" style="stroke: rgb(74, 134, 232); stroke-width: 4px;"/>
</svg>