<?xml version="1.0" encoding="UTF-8"?><!DOCTYPE svg PUBLIC "-//W3C//DTD SVG 1.1//EN" "http://www.w3.org/Graphics/SVG/1.1/DTD/svg11.dtd"><svg xmlns="http://www.w3.org/2000/svg" xmlns:xlink="http://www.w3.org/1999/xlink"><defs/><symbol id="icon--arrow-left" viewBox="0 0 24 24">
  <path d="m 10.31618,5.549777 c 0.233192,0.2331834 0.34512,0.5149483 0.335785,0.8452945 -0.01009,0.3303451 -0.131739,0.6121021 -0.36493,0.8452935 L 6.99331,10.534078 h 12.840806 c 0.330301,0 0.607435,0.111928 0.831291,0.335785 0.223073,0.223084 0.334554,0.499794 0.334554,0.830138 0,0.330345 -0.111481,0.607446 -0.334554,0.831303 -0.223856,0.223073 -0.50099,0.334621 -0.831291,0.334621 H 6.99331 l 3.32287,3.32287 c 0.233192,0.233225 0.349776,0.510247 0.349776,0.831257 0,0.320227 -0.116584,0.597026 -0.349776,0.830172 C 10.083001,18.083371 9.8058989,18.2 9.4848893,18.2 9.1646399,18.2 8.8879309,18.083371 8.6547508,17.850224 L 3.3206684,12.516148 C 3.2040761,12.399553 3.1212951,12.273242 3.0723276,12.137216 3.0241362,12.0012 3.000039,11.855458 3.000039,11.700001 c 0,-0.155457 0.024096,-0.301199 0.072289,-0.437225 0.048967,-0.136015 0.1317484,-0.262326 0.2483407,-0.378922 L 8.6838967,5.5206286 C 8.8976461,5.3068781 9.164651,5.2 9.4848893,5.2 9.8058989,5.2 10.083001,5.3165924 10.31618,5.549777 Z"/>
</symbol><symbol id="icon--arrow-right" viewBox="0 0 24 24">
  <path d="m 13.68382,17.850223 c -0.233192,-0.233183 -0.34512,-0.514948 -0.335785,-0.845294 0.01009,-0.330346 0.131739,-0.612103 0.36493,-0.845294 L 17.00669,12.865922 H 4.1658838 c -0.330301,0 -0.607435,-0.111928 -0.831291,-0.335785 -0.223073,-0.223084 -0.334554,-0.499794 -0.334554,-0.830138 0,-0.330345 0.111481,-0.607446 0.334554,-0.831303 0.223856,-0.223073 0.50099,-0.334621 0.831291,-0.334621 H 17.00669 L 13.68382,7.2112048 c -0.233192,-0.233225 -0.349776,-0.510247 -0.349776,-0.831257 0,-0.320227 0.116584,-0.597026 0.349776,-0.830172 0.233179,-0.233147 0.510281,-0.349776 0.831291,-0.349776 0.320249,0 0.596958,0.116629 0.830138,0.349776 l 5.334082,5.3340762 c 0.116593,0.116595 0.199374,0.242906 0.248341,0.378932 0.04819,0.136016 0.07229,0.281758 0.07229,0.437215 0,0.155457 -0.0241,0.301199 -0.07229,0.437225 -0.04897,0.136015 -0.131748,0.262326 -0.248341,0.378922 l -5.363227,5.363225 C 15.102354,18.093122 14.835349,18.2 14.515111,18.2 c -0.32101,0 -0.598112,-0.116592 -0.831291,-0.349777 z"/>
</symbol><symbol id="icon--check" viewBox="0 0 24 24">
    <path d="M3.75 9.25 1 12l8.25 8.25L23 6.5l-2.75-2.75-11 11z"/>
</symbol><symbol id="icon--chevron-down" viewBox="0 0 24 24">
  <path d="M 12.000431,13.591605 17.29716,8.2897153 a 1.0002922,1.0001653 0 0 1 1.405849,1.4231691 l -5.990903,6.0076396 a 0.99751155,0.99738496 0 0 1 -1.353349,0.02917 L 5.2978534,9.7187172 a 1.0150118,1.014883 0 0 1 -0.2975035,-0.676589 1.0441788,1.0440463 0 0 1 0.2975035,-0.7524129 0.99751155,0.99738496 0 0 1 1.4058494,0 z"/>
</symbol><symbol id="icon--chevron-first" viewBox="0 0 24 24">
  <path d="m 13.066252,12.005998 5.306862,5.301025 a 1.0012397,1.0012397 0 0 1 -1.424504,1.40699 l -6.013276,-5.995762 a 0.99832065,0.99832065 0 0 1 0,-1.354447 l 6.007437,-6.0658195 a 1.0158351,1.0158351 0 0 1 0.677224,-0.2977447 1.0450257,1.0450257 0 0 1 0.753119,0.2977447 0.99832065,0.99832065 0 0 1 0,1.4069899 z"/>
  <path d="m 8.3957458,12.005998 5.3068622,5.301025 a 1.0012397,1.0012397 0 0 1 -1.424504,1.40699 L 6.2648274,12.718251 a 0.99832065,0.99832065 0 0 1 0,-1.354447 L 12.272266,5.2979845 a 1.0158351,1.0158351 0 0 1 0.677223,-0.2977447 1.0450257,1.0450257 0 0 1 0.753119,0.2977447 0.99832065,0.99832065 0 0 1 0,1.4069899 z"/>
</symbol><symbol id="icon--chevron-last" viewBox="0 0 24 24">
  <path d="M 12.596844,11.994006 7.2899856,6.6929858 A 1.001239,1.001239 0 0 1 8.7144889,5.2859969 l 6.0132721,5.9957581 a 0.99831997,0.99831997 0 0 1 0.02919,1.354446 l -6.036625,6.065815 a 1.0158344,1.0158344 0 0 1 -0.677223,0.297745 1.045025,1.045025 0 0 1 -0.7531185,-0.297745 0.99831997,0.99831997 0 0 1 0,-1.406989 z"/>
  <path d="M 17.267347,11.994006 11.960488,6.6929858 a 1.001239,1.001239 0 0 1 1.424504,-1.4069889 l 6.013272,5.9957581 a 0.99831997,0.99831997 0 0 1 0.02919,1.354446 l -6.036624,6.065815 a 1.0158344,1.0158344 0 0 1 -0.677223,0.297745 1.045025,1.045025 0 0 1 -0.753119,-0.297745 0.99831997,0.99831997 0 0 1 0,-1.406989 z"/>
</symbol><symbol id="icon--chevron-left" viewBox="0 0 24 24">
  <path d="m 9.3979662,12.005999 5.3117798,5.301018 a 1.0021676,1.0012385 0 0 1 -1.425824,1.406988 L 7.265073,12.718251 a 0.99924582,0.99831944 0 0 1 0,-1.354446 l 6.013005,-6.0658128 a 1.0167764,1.0158338 0 0 1 0.677852,-0.2977437 1.0459941,1.0450244 0 0 1 0.753816,0.2977437 0.99924582,0.99831944 0 0 1 0,1.4069887 z"/>
</symbol><symbol id="icon--chevron-right" viewBox="0 0 24 24">
  <path d="M 14.591583,11.993998 9.2896936,6.6929712 a 1.0003016,1.0012403 0 0 1 1.4231694,-1.40699 l 6.007641,5.9957648 a 0.99738522,0.99832118 0 0 1 0.02916,1.354447 l -6.030973,6.065823 a 1.0148832,1.0158356 0 0 1 -0.676588,0.297746 1.0440465,1.0450263 0 0 1 -0.7524135,-0.297746 0.99738522,0.99832118 0 0 1 0,-1.40699 z"/>
</symbol><symbol id="icon--chevron-up" viewBox="0 0 24 24">
  <path d="M 11.994015,9.3979656 6.6929953,14.709746 A 1.0012389,1.0021676 0 0 1 5.2860064,13.283921 L 11.281763,7.2650725 a 0.99831982,0.99924582 0 0 1 1.354446,0 l 6.065814,6.0130055 a 1.0158342,1.0167764 0 0 1 0.297745,0.677851 1.0450248,1.0459942 0 0 1 -0.297745,0.753817 0.99831982,0.99924582 0 0 1 -1.406988,0 z"/>
</symbol><symbol id="icon--circle-arrow-left" viewBox="0 0 24 24">
    <path d="M12 16.769 7.2 12 12 7.231l1.68 1.67-1.92 1.907h5.04v2.384h-5.04l1.92 1.908zm0 7.153c1.66 0 3.22-.313 4.68-.94a12.116 12.116 0 0 0 3.81-2.547 12.027 12.027 0 0 0 2.564-3.785c.63-1.45.946-3 .946-4.65 0-1.65-.315-3.2-.946-4.65a12.027 12.027 0 0 0-2.564-3.785 12.133 12.133 0 0 0-3.81-2.549C15.22.391 13.66.078 12 .078c-1.66 0-3.22.313-4.68.938a12.131 12.131 0 0 0-3.81 2.55A12.027 12.027 0 0 0 .946 7.35C.316 8.8 0 10.35 0 12c0 1.65.315 3.2.946 4.65a12.028 12.028 0 0 0 2.564 3.785 12.114 12.114 0 0 0 3.81 2.548c1.46.626 3.02.94 4.68.94z"/>
</symbol><symbol id="icon--circle-arrow-right" viewBox="0 0 24 24">
    <path d="M12 16.769 16.8 12 12 7.231l-1.68 1.67 1.92 1.907H7.2v2.384h5.04L10.32 15.1zm0 7.153c-1.66 0-3.22-.313-4.68-.94a12.114 12.114 0 0 1-3.81-2.547A12.027 12.027 0 0 1 .946 16.65C.316 15.2 0 13.65 0 12c0-1.65.315-3.2.946-4.65A12.027 12.027 0 0 1 3.51 3.565a12.131 12.131 0 0 1 3.81-2.549C8.78.391 10.34.078 12 .078c1.66 0 3.22.313 4.68.938a12.13 12.13 0 0 1 3.81 2.55 12.028 12.028 0 0 1 2.564 3.784c.63 1.45.946 3 .946 4.65 0 1.65-.315 3.2-.946 4.65a12.028 12.028 0 0 1-2.564 3.785 12.114 12.114 0 0 1-3.81 2.548c-1.46.626-3.02.94-4.68.94z"/>
</symbol><symbol id="icon--close" viewBox="0 0 24 24">
    <path d="m 3.5948644,2.000296 a 1.5613575,1.5057947 0 0 0 -1.14548,2.5625059 l 7.3899503,7.4454621 -7.3899503,7.443643 a 1.5615968,1.5060254 0 0 0 2.2551047,2.083857 l 7.2955939,-7.350825 7.295594,7.350825 a 1.5615969,1.5060255 0 1 0 2.255105,-2.083857 l -7.38995,-7.443643 7.38995,-7.4454621 a 1.5613575,1.5057947 0 0 0 -1.192658,-2.560686 1.5613575,1.5057947 0 0 0 -1.062447,0.47865 L 12.000083,9.8297702 4.7044891,2.4807659 A 1.5613575,1.5057947 0 0 0 3.5948644,2.000296 Z"/>
</symbol><symbol id="icon--copy" viewBox="0 0 24 24">
  <path d="M 5.5391068,22 C 4.9783202,22 4.4980895,21.8044 4.0984028,21.412933 3.6993962,21.020933 3.4998935,20.55 3.4998935,20 V 6 H 5.5391068 V 20 H 16.499893 v 2 z m 4.07844,-4 C 9.0567602,18 8.5768668,17.8044 8.1778535,17.412933 7.7781735,17.020933 7.5783202,16.55 7.5783202,16 V 4 c 0,-0.55 0.1998533,-1.021 0.5995333,-1.413 C 8.5768668,2.1956667 9.0567602,2 9.6175468,2 h 8.8433592 c 0.5608,0 1.041067,0.1956667 1.440668,0.587 C 20.30064,2.979 20.500106,3.45 20.500106,4 v 12 c 0,0.55 -0.199466,1.020933 -0.598532,1.412933 C 19.501973,17.8044 19.021706,18 18.460906,18 Z"/>
</symbol><symbol id="icon--cue" viewBox="0 0 24 24">
    <path d="M12 0C5.37 0 0 5.385 0 12s5.37 12 12 12 12-5.37 12-12S18.63 0 12 0Zm0 2.206c5.415 0 9.794 4.394 9.794 9.794S17.415 21.809 12 21.809c-5.415 0-9.809-4.394-9.809-9.809 0-5.415 4.394-9.794 9.809-9.794Zm0 3.255A6.544 6.544 0 0 0 5.46 12c0 3.6 2.925 6.54 6.54 6.54A6.522 6.522 0 0 0 18.524 12c0-3.615-2.924-6.54-6.524-6.54Zm0 2.115A4.422 4.422 0 0 1 16.424 12 4.422 4.422 0 0 1 12 16.424 4.412 4.412 0 0 1 7.576 12 4.412 4.412 0 0 1 12 7.576Z"/>
</symbol><symbol id="icon--date" viewBox="0 0 24 24">
    <path d="M6.808 0a.84.84 0 0 1 .84.84v1.57h9.02V.85a.84.84 0 0 1 1.68 0v1.56H21.6a2.4 2.4 0 0 1 2.4 2.4V21.6A2.4 2.4 0 0 1 21.6 24H2.4A2.4 2.4 0 0 1 0 21.601V4.81a2.4 2.4 0 0 1 2.4-2.4h3.568V.84a.84.84 0 0 1 .84-.84ZM1.68 9.29v12.311c0 .398.322.72.72.72h19.2a.72.72 0 0 0 .72-.72V9.307ZM8 17.542v2H6v-2zm5 0v2h-2v-2zm5 0v2h-2v-2ZM8 12.77v2H6v-2zm5 0v2h-2v-2zm5 0v2h-2v-2ZM5.968 4.09H2.4a.72.72 0 0 0-.72.72v2.802l20.64.016V4.81a.72.72 0 0 0-.72-.72h-3.252v1.114a.84.84 0 0 1-1.68 0V4.09h-9.02v1.104a.84.84 0 0 1-1.68 0z"/>
</symbol><symbol id="icon--dots-vertical" viewBox="0 0 24 24">
    <path d="M14.4 2.4A2.4 2.4 0 0 0 12 0a2.4 2.4 0 0 0-2.4 2.4A2.4 2.4 0 0 0 12 4.8a2.4 2.4 0 0 0 2.4-2.4Zm0 19.2a2.4 2.4 0 0 0-2.4-2.4 2.4 2.4 0 0 0-2.4 2.4A2.4 2.4 0 0 0 12 24a2.4 2.4 0 0 0 2.4-2.4Zm0-9.6A2.4 2.4 0 0 0 12 9.6 2.4 2.4 0 0 0 9.6 12a2.4 2.4 0 0 0 2.4 2.4 2.4 2.4 0 0 0 2.4-2.4Z"/>
</symbol><symbol id="icon--download" viewBox="0 0 24 24">
    <path d="M10.8 9.78 9.72 8.73a1.17 1.17 0 0 0-.856-.316c-.33.01-.604.126-.824.346-.22.22-.33.5-.33.84 0 .34.11.62.33.84l3.12 3.12c.22.22.5.33.84.33.34 0 .62-.11.84-.33l3.15-3.15c.22-.22.325-.495.316-.826a1.174 1.174 0 0 0-.346-.824c-.22-.22-.5-.335-.84-.346-.34-.01-.62.106-.84.346L13.2 9.78V5.97c0-.34-.115-.62-.344-.84-.23-.22-.516-.33-.856-.33-.34 0-.625.115-.854.344-.23.23-.346.516-.346.856zM7.2 18h9.63c.34 0 .62-.115.84-.346.22-.23.33-.514.33-.854 0-.34-.115-.625-.346-.856a1.16 1.16 0 0 0-.854-.344H7.17c-.34 0-.62.115-.84.344-.22.23-.33.516-.33.856 0 .34.115.625.344.854.23.23.516.346.856.346zm4.8 6c-1.66 0-3.22-.315-4.68-.946a12.11 12.11 0 0 1-3.81-2.564 12.11 12.11 0 0 1-2.564-3.81C.316 15.22 0 13.66 0 12c0-1.66.315-3.22.946-4.68A12.11 12.11 0 0 1 3.51 3.51 12.127 12.127 0 0 1 7.32.944C8.78.314 10.34 0 12 0c1.66 0 3.22.315 4.68.944 1.46.63 2.73 1.486 3.81 2.566a12.11 12.11 0 0 1 2.564 3.81c.63 1.46.946 3.02.946 4.68 0 1.66-.315 3.22-.946 4.68a12.111 12.111 0 0 1-2.564 3.81 12.11 12.11 0 0 1-3.81 2.564c-1.46.63-3.02.946-4.68.946Z"/>
</symbol><symbol id="icon--exclamation" viewBox="0 0 24 24">
    <path d="M12 24C5.372 24 0 18.628 0 12S5.372 0 12 0s12 5.372 12 12-5.372 12-12 12zm0-2.4a9.6 9.6 0 1 0 0-19.2 9.6 9.6 0 0 0 0 19.2Zm-1.2-6h2.4V18h-2.4zm0-9.6h2.4v7.2h-2.4z"/>
</symbol><symbol id="icon--external-link" viewBox="0 0 24 24">
    <path d="M20.972 2a1 1 0 0 0-.112.01h-5.866a1 1 0 1 0 0 2h3.584L9.29 13.296a1 1 0 1 0 1.413 1.414l9.289-9.288v3.584a1 1 0 1 0 1.999 0v-5.87A1 1 0 0 0 20.97 2ZM4.999 5.01A3.014 3.014 0 0 0 2 8.007v10.995A3.014 3.014 0 0 0 4.999 22h10.994a3.014 3.014 0 0 0 2.999-2.998v-5.997a1 1 0 1 0-2 0v5.997c0 .563-.435.999-.999.999H5c-.564 0-1-.436-1-1V8.008c0-.564.436-1 1-1h5.997a1 1 0 1 0 0-1.998z"/>
</symbol><symbol id="icon--gear" viewBox="0 0 24 24">
    <path d="M23.2498 7.8106c.15.4068.024.8616-.3 1.152l-2.0306 1.8481a9.0725 9.0725 0 0 1 0 2.381l2.0305 1.848c.324.2905.45.7441.3 1.1521-.2063.5592-.456 1.0933-.7404 1.6081l-.2208.3804a11.9793 11.9793 0 0 1-1.0368 1.464 1.062 1.062 0 0 1-1.1485.3181l-2.6113-.8292a9.022 9.022 0 0 1-2.063 1.1904l-.5856 2.6762a1.0597 1.0597 0 0 1-.8532.8352 12.1158 12.1158 0 0 1-3.9854 0 1.0597 1.0597 0 0 1-.8545-.834l-.5856-2.6774a9.022 9.022 0 0 1-2.0629-1.1904l-2.6065.834a1.0705 1.0705 0 0 1-1.1485-.3192A11.931 11.931 0 0 1 1.71 18.185l-.2208-.3792a11.6226 11.6226 0 0 1-.7405-1.608 1.062 1.062 0 0 1 .3-1.1533l2.0305-1.8481a9.0725 9.0725 0 0 1 0-2.387L1.0486 8.9626a1.062 1.062 0 0 1-.3-1.152c.2064-.5592.456-1.0933.7405-1.6093l.2208-.3792a11.8876 11.8876 0 0 1 1.0368-1.464A1.062 1.062 0 0 1 3.8952 4.04l2.6113.8292a9.022 9.022 0 0 1 2.063-1.1904l.5855-2.6762a1.0597 1.0597 0 0 1 .8533-.8352 12.1158 12.1158 0 0 1 3.9854-.0048c.432.0696.7596.408.8544.834l.5857 2.6774a9.0602 9.0602 0 0 1 2.0629 1.1904l2.6113-.8292a1.0705 1.0705 0 0 1 1.1485.3192c.3804.4596.7272.9469 1.0368 1.4629l.2196.3792c.2868.516.5353 1.05.7417 1.608zm-11.2482 7.942a3.7514 3.7514 0 1 0 0-7.5028 3.7514 3.7514 0 1 0 0 7.5028z"/>
</symbol><symbol id="icon--github" viewBox="0 0 24 24">
    <path d="M12 0C5.37 0 0 5.506 0 12.304c0 5.444 3.435 10.042 8.205 11.672.6.108.825-.26.825-.584 0-.292-.015-1.261-.015-2.291C6 21.67 5.22 20.347 4.98 19.655c-.135-.354-.72-1.446-1.23-1.738-.42-.23-1.02-.8-.015-.815.945-.015 1.62.892 1.845 1.26 1.08 1.862 2.805 1.339 3.495 1.016.105-.8.42-1.338.765-1.646-2.67-.307-5.46-1.368-5.46-6.074 0-1.338.465-2.446 1.23-3.307-.12-.308-.54-1.569.12-3.26 0 0 1.005-.323 3.3 1.26.96-.276 1.98-.415 3-.415s2.04.139 3 .416c2.295-1.6 3.3-1.261 3.3-1.261.66 1.691.24 2.952.12 3.26.765.861 1.23 1.953 1.23 3.307 0 4.721-2.805 5.767-5.475 6.074.435.385.81 1.123.81 2.277 0 1.645-.015 2.968-.015 3.383 0 .323.225.708.825.584a12.047 12.047 0 0 0 5.919-4.488A12.537 12.537 0 0 0 24 12.304C24 5.506 18.63 0 12 0Z"/>
</symbol><symbol id="icon--globe" viewBox="0 0 24 24">
    <path d="M12 0a12 12 0 1 0 0 24 12 12 0 0 0 0-24ZM1.48 12.907h3.347a18.96 18.96 0 0 0 .506 3.6h-2.88a10.48 10.48 0 0 1-.973-3.6Zm11.427-7.2v-4.12a5.506 5.506 0 0 1 2.96 2.666c.273.463.514.944.72 1.44zm4.293 1.8c.31 1.177.493 2.384.547 3.6h-4.84v-3.6Zm-6.107-5.92v4.12h-3.68c.206-.497.447-.978.72-1.44a5.507 5.507 0 0 1 2.96-2.68zm0 5.92v3.6H6.267a17.12 17.12 0 0 1 .546-3.6Zm-6.266 3.586H1.48a10.48 10.48 0 0 1 .973-3.6h2.88a18.84 18.84 0 0 0-.506 3.6Zm1.44 1.814h4.826v3.6h-4.28a17.172 17.172 0 0 1-.546-3.6zm4.84 5.333v4.12a5.507 5.507 0 0 1-2.96-2.667 11.38 11.38 0 0 1-.72-1.44zm1.8 4.12v-4.053h3.68a11.36 11.36 0 0 1-.72 1.44 5.507 5.507 0 0 1-2.96 2.666zm0-5.92v-3.6h4.826a17.17 17.17 0 0 1-.546 3.6zm6.28-3.6h3.346a10.48 10.48 0 0 1-.973 3.6h-2.893c.28-1.16.449-2.343.506-3.533zm0-1.8a18.83 18.83 0 0 0-.52-3.533h2.88c.537 1.133.866 2.352.973 3.6Zm1.333-5.333h-2.387a11.896 11.896 0 0 0-1.853-3.36c1.66.744 3.1 1.901 4.187 3.36zm-12.8-3.36a11.894 11.894 0 0 0-1.853 3.36H3.533a10.667 10.667 0 0 1 4.187-3.36Zm-4.2 16h2.347a11.893 11.893 0 0 0 1.853 3.36 10.667 10.667 0 0 1-4.187-3.4zm12.747 3.36a11.892 11.892 0 0 0 1.853-3.36h2.347a10.666 10.666 0 0 1-4.187 3.306Z"/>
</symbol><symbol id="icon--info" viewBox="0 0 24 24">
  <path d="M10.8 18h2.4v-7.2h-2.4zM12 8.4c.34 0 .625-.115.856-.346.23-.23.345-.515.344-.854 0-.34-.115-.625-.346-.856A1.157 1.157 0 0 0 12 6c-.34 0-.625.115-.856.346-.23.23-.345.515-.344.854 0 .34.115.625.346.856.23.23.515.345.854.344zM12 24c-1.66 0-3.22-.315-4.68-.946a12.138 12.138 0 0 1-3.81-2.564 12.11 12.11 0 0 1-2.564-3.81C.316 15.22 0 13.66 0 12c0-1.66.315-3.22.946-4.68.63-1.46 1.485-2.73 2.564-3.81A12.11 12.11 0 0 1 7.32.946C8.78.316 10.34 0 12 0c1.66 0 3.22.315 4.68.946 1.46.63 2.73 1.485 3.81 2.564a12.128 12.128 0 0 1 2.566 3.81c.63 1.46.945 3.02.944 4.68 0 1.66-.315 3.22-.946 4.68a12.138 12.138 0 0 1-2.564 3.81 12.127 12.127 0 0 1-3.81 2.566c-1.46.63-3.02.945-4.68.944zm0-2.4c2.68 0 4.95-.93 6.81-2.79 1.86-1.86 2.79-4.13 2.79-6.81 0-2.68-.93-4.95-2.79-6.81C16.95 3.33 14.68 2.4 12 2.4c-2.68 0-4.95.93-6.81 2.79C3.33 7.05 2.4 9.32 2.4 12c0 2.68.93 4.95 2.79 6.81C7.05 20.67 9.32 21.6 12 21.6z"/>
</symbol><symbol id="icon--link" viewBox="0 0 24 24">
    <path d="M 17.213722,0.00662809 A 6.5030858,6.5037237 0 0 0 12.89775,1.9055033 L 8.9352674,5.8683745 A 6.5025351,6.5031729 0 0 0 10.730237,16.334418 l 1.680667,-1.68295 A 4.3350236,4.3354487 0 0 1 10.467767,7.3989066 l 3.960364,-3.9628711 a 4.3375545,4.3379801 0 1 1 6.134229,6.1348291 l -1.71877,1.7168204 c 0.24276,0.910444 0.335812,1.853642 0.277288,2.790098 l 2.973978,-2.97427 A 6.5030858,6.5037237 0 0 0 17.213722,0.00662809 Z M 13.27029,7.6635213 12.000263,8.9336722 a 2.1718467,2.1720599 0 0 0 -0.334441,0.4318514 4.3350236,4.3354487 0 0 1 1.866939,7.2335094 L 9.5723977,20.561905 A 4.3375542,4.3379798 0 1 1 3.4381698,14.427075 L 5.1569386,12.710254 A 8.7090624,8.7099165 0 0 1 4.8796497,9.9222732 L 1.9056711,12.896543 a 6.5033375,6.5039752 0 1 0 9.1971079,9.19801 l 3.962483,-3.964988 A 6.5025351,6.5031729 0 0 0 13.27029,7.6635213 Z"/>
</symbol><symbol id="icon--location" viewBox="0 0 24 24">
    <path d="M5 20h14v2H5v-2zm7-13c-1.1 0-2 .9-2 2s.9 2 2 2a2 2 0 1 0 0-4zm0-5c3.27 0 7 2.46 7 7.15c0 3.12-2.33 6.41-7 9.85c-4.67-3.44-7-6.73-7-9.85C5 4.46 8.73 2 12 2z"/>
</symbol><symbol id="icon--menu" viewBox="0 0 24 24">
    <path d="M4 18h16c.55 0 1-.45 1-1s-.45-1-1-1H4c-.55 0-1 .45-1 1s.45 1 1 1zm0-5h16c.55 0 1-.45 1-1s-.45-1-1-1H4c-.55 0-1 .45-1 1s.45 1 1 1zM3 7c0 .55.45 1 1 1h16c.55 0 1-.45 1-1s-.45-1-1-1H4c-.55 0-1 .45-1 1z"/>
</symbol><symbol id="icon--note" viewBox="0 0 24 24">
  <path d="M 20.469,9.4798428 16.122,5.0340546 C 15.789,4.6934865 15.33,4.5001911 14.853,4.5001911 H 4.7999998 c -0.99,0 -1.8,0.8284087 -1.8,1.8409087 V 17.668304 c 0,1.0125 0.801,1.831696 1.791,1.831696 H 19.2 c 0.99,0 1.8,-0.828408 1.8,-1.840908 V 10.786904 C 21,10.299056 20.811,9.8296158 20.469,9.4798428 Z M 14.7,5.8808728 19.65,10.943372 H 15.6 c -0.495,0 -0.9,-0.414195 -0.9,-0.920452 z"/>
</symbol><symbol id="icon--office" viewBox="0 0 24 24">
    <path d="M13.09 6.545H24v15.273H0V2.182h13.09ZM7.637 4.364h3.273v2.181H7.636Zm3.273 15.272v-2.181H7.636v2.181zm0-4.363V13.09H7.636v2.182zm0-4.364V8.727H7.636v2.182zm10.91 8.727V8.727H13.09v2.182h2.182v2.182H13.09v2.182h2.182v2.182H13.09v2.181zm-19.637 0v-2.181h3.273v2.181zm0-4.363h3.273V13.09H2.182Zm3.273-4.364V8.727H2.182v2.182ZM2.182 6.545h3.273V4.364H2.182Z"/>
</symbol><symbol id="icon--page" viewBox="0 0 24 24">
  <path d="M 4.999998,19.000002 H 19.000002 V 9.825006 L 14.174994,4.999998 H 4.999998 Z m 0,1.999998 C 4.4500008,21 3.9790002,20.80434 3.5869998,20.413002 3.1956672,20.020998 3,19.549992 3,19.000002 V 4.999998 C 3,4.4500008 3.1956672,3.9790002 3.5869998,3.5869998 3.9790002,3.1956672 4.4500008,3 4.999998,3 h 9.174996 c 0.26667,0 0.52101,0.050004 0.763002,0.149994 0.241344,0.100008 0.453672,0.241668 0.637002,0.4249998 l 4.85001,4.8500082 c 0.18333,0.18333 0.32499,0.395658 0.424998,0.637002 C 20.949996,9.303996 21,9.558336 21,9.825006 v 9.174996 c 0,0.54999 -0.19566,1.020996 -0.586998,1.413 C 20.020998,20.80434 19.549992,21 19.000002,21 Z m 3.000006,-3.999996 h 7.999992 c 0.283338,0 0.520668,-0.09601 0.712008,-0.288 0.191988,-0.19134 0.288,-0.42867 0.288,-0.712008 0,-0.28332 -0.09601,-0.520992 -0.288,-0.712998 -0.19134,-0.19134 -0.42867,-0.286992 -0.712008,-0.286992 H 8.000004 c -0.283338,0 -0.52101,0.09565 -0.712998,0.286992 -0.19134,0.192006 -0.28701,0.429678 -0.28701,0.712998 0,0.283338 0.09567,0.520668 0.28701,0.712008 0.191988,0.191988 0.42966,0.288 0.712998,0.288 z m 0,-3.999996 h 7.999992 c 0.283338,0 0.520668,-0.09601 0.712008,-0.288 0.191988,-0.19134 0.288,-0.42867 0.288,-0.712008 0,-0.283338 -0.09601,-0.520992 -0.288,-0.712998 -0.19134,-0.19134 -0.42867,-0.28701 -0.712008,-0.28701 H 8.000004 c -0.283338,0 -0.52101,0.09567 -0.712998,0.28701 -0.19134,0.192006 -0.28701,0.42966 -0.28701,0.712998 0,0.283338 0.09567,0.520668 0.28701,0.712008 0.191988,0.191988 0.42966,0.288 0.712998,0.288 z m 0,-4.000014 h 5.000004 c 0.28332,0 0.520992,-0.09599 0.712998,-0.288 0.191322,-0.191322 0.286992,-0.428652 0.286992,-0.71199 0,-0.283338 -0.09567,-0.52101 -0.286992,-0.712998 C 13.521,7.095666 13.283328,6.999996 13.000008,6.999996 H 8.000004 c -0.283338,0 -0.52101,0.09567 -0.712998,0.28701 -0.19134,0.191988 -0.28701,0.42966 -0.28701,0.712998 0,0.283338 0.09567,0.520668 0.28701,0.71199 0.191988,0.192006 0.42966,0.288 0.712998,0.288 z M 4.999998,19.000002 V 4.999998 Z"/>
</symbol><symbol id="icon--person" viewBox="0 0 24 24">
    <path d="M12 13.21a6.11 6.11 0 1 0-4.33-1.79A6.12 6.12 0 0 0 12 13.21ZM9.16 4.3A3.94 3.94 0 1 1 8 7.09 3.95 3.95 0 0 1 9.16 4.3ZM12 15.66a15.06 15.06 0 0 0-12 5.9 17.2 17.2 0 0 0 1.59 1.49A12.91 12.91 0 0 1 12 17.84a13 13 0 0 1 9.14 3.59A11.41 11.41 0 0 1 22.41 23 15.25 15.25 0 0 0 24 21.45a14.86 14.86 0 0 0-12-5.79Z"/>
</symbol><symbol id="icon--play" viewBox="0 0 24 24">
    <path d="M22.896 10.064 6.406.322a2.236 2.236 0 0 0-3.39 1.94V21.75a2.236 2.236 0 0 0 3.39 1.93l16.49-9.743a2.249 2.249 0 0 0 0-3.872z"/>
</symbol><symbol id="icon--search" viewBox="0 0 24 24">
  <path d="M 12.007812,2 C 9.3542939,2 6.8079567,3.0553246 4.9316406,4.9316406 3.0553246,6.8079567 2,9.3542939 2,12.007812 c 0,2.653505 1.0553633,5.199825 2.9316406,7.076172 1.8763056,1.87626 4.4226361,2.931641 7.0761714,2.931641 1.981858,0 3.805682,-0.752423 5.433594,-1.832031 l 3.228516,3.228515 a 1.9390821,1.9390821 0 1 0 2.742187,-2.742187 l -3.228515,-3.228516 c 1.079608,-1.627912 1.832031,-3.451736 1.832031,-5.433594 0,-2.6535353 -1.055381,-5.1998658 -2.931641,-7.0761714 C 17.207637,3.0553633 14.661317,2 12.007812,2 Z m 0,3.8769531 c 1.626532,0 3.183763,0.6466958 4.333985,1.796875 1.150123,1.1501511 1.796875,2.7074459 1.796875,4.3339839 0,1.626515 -0.646714,3.183752 -1.796875,4.333985 -1.150233,1.150161 -2.70747,1.796875 -4.333985,1.796875 -1.626538,0 -3.1838328,-0.646752 -4.3339839,-1.796875 -1.1501792,-1.150222 -1.796875,-2.707453 -1.796875,-4.333985 0,-1.626555 0.6467345,-3.1838433 1.796875,-4.3339839 1.1501406,-1.1501405 2.7074289,-1.796875 4.3339839,-1.796875 z"/>
</symbol><symbol id="icon--share" viewBox="0 0 24 24">
    <path d="M5.0458 10.3065a.4112.4112 0 0 0-.2891.1178.4003.4003 0 0 0-.12.2836V21.18c0 .2226.1833.4036.409.4036h13.9085a.416.416 0 0 0 .2891-.1178.4043.4043 0 0 0 .12-.2847V10.709a.4003.4003 0 0 0-.12-.2847.4123.4123 0 0 0-.289-.1178h-1.6364c-.325 0-.6381-.1277-.8672-.3546a1.1989 1.1989 0 0 1 0-1.7083c.229-.2269.5422-.3545.8672-.3545h1.6363c1.5807 0 2.8635 1.2643 2.8635 2.8199v10.4722c0 .7473-.3021 1.464-.8388 1.993A2.8864 2.8864 0 0 1 18.9542 24H5.0458a2.8864 2.8864 0 0 1-2.0247-.8258 2.798 2.798 0 0 1-.8388-1.993V10.709c0-1.5567 1.2828-2.821 2.8635-2.821H6.682c.325 0 .6381.1277.8672.3545a1.1989 1.1989 0 0 1 0 1.7083 1.237 1.237 0 0 1-.8672.3546zM11.7109.1189a.409.409 0 0 1 .4462-.0872.409.409 0 0 1 .133.0872l4.7388 4.6656a.4003.4003 0 0 1-.2902.6884h-3.5115v9.2635a1.2 1.2 0 0 1-.36.8542 1.237 1.237 0 0 1-1.7344 0 1.2 1.2 0 0 1-.36-.8542V5.473H7.2613a.4145.4145 0 0 1-.3785-.2488.397.397 0 0 1 .0894-.4396Z"/>
</symbol><symbol id="icon--slack" viewBox="0 0 24 24">
    <path d="M5.053 15.158a2.526 2.526 0 1 1-2.527-2.526h2.527zm1.263 0a2.526 2.526 0 0 1 5.052 0v6.316a2.526 2.526 0 1 1-5.052 0ZM8.842 5.053a2.526 2.526 0 1 1 2.526-2.527v2.527zm0 1.263a2.526 2.526 0 0 1 0 5.052H2.526a2.526 2.526 0 1 1 0-5.052Zm10.105 2.526a2.526 2.526 0 1 1 2.527 2.526h-2.527zm-1.263 0a2.526 2.526 0 1 1-5.052 0V2.526a2.526 2.526 0 1 1 5.052 0Zm-2.526 10.105a2.526 2.526 0 1 1-2.526 2.527v-2.527zm0-1.263a2.526 2.526 0 1 1 0-5.052h6.316a2.526 2.526 0 1 1 0 5.052z"/>
</symbol><symbol id="icon--social-linkedin" viewBox="0 0 24 24">
    <path d="M22.286 0H1.709C.766 0 0 .777 0 1.73v20.54C0 23.223.766 24 1.709 24h20.577c.943 0 1.714-.777 1.714-1.73V1.73C24 .777 23.229 0 22.286 0ZM7.254 20.571H3.696V9.118H7.26V20.57ZM5.475 7.554a2.063 2.063 0 0 1 0-4.125c1.136 0 2.063.926 2.063 2.062a2.06 2.06 0 0 1-2.063 2.063zM20.587 20.57H17.03V15c0-1.329-.026-3.038-1.848-3.038-1.853 0-2.137 1.447-2.137 2.942v5.667H9.488V9.118H12.9v1.564h.048c.477-.9 1.64-1.848 3.37-1.848 3.6 0 4.27 2.373 4.27 5.459z"/>
</symbol><symbol id="icon--social-twitter" viewBox="0 0 24 24">
    <path d="M24 4.556a9.832 9.832 0 0 1-2.828.775 4.94 4.94 0 0 0 2.165-2.724 9.874 9.874 0 0 1-3.126 1.195 4.918 4.918 0 0 0-3.595-1.555 4.924 4.924 0 0 0-4.796 6.046A13.977 13.977 0 0 1 1.67 3.148a4.907 4.907 0 0 0-.666 2.475c0 1.708.869 3.216 2.19 4.1a4.893 4.893 0 0 1-2.23-.618v.063a4.927 4.927 0 0 0 3.95 4.828 4.886 4.886 0 0 1-1.298.173 5 5 0 0 1-.926-.087 4.93 4.93 0 0 0 4.6 3.419 9.877 9.877 0 0 1-6.116 2.108c-.396 0-.79-.023-1.174-.068a13.935 13.935 0 0 0 7.547 2.212c9.058 0 14.009-7.504 14.009-14.011 0-.214-.004-.426-.014-.638A9.979 9.979 0 0 0 24 4.556"/>
</symbol><symbol id="icon--social-x" viewBox="0 0 24 24">
    <path d="m.059.768 9.266 12.39L0 23.232h2.099l8.163-8.82 6.596 8.82H24l-9.787-13.087L22.892.768h-2.099l-7.518 8.123L7.2.768Zm3.086 1.546h3.28l14.488 19.371h-3.28z"/>
</symbol><symbol id="icon--social-youtube" viewBox="0 0 24 24">
    <path d="M23.498 6.202a3.015 3.015 0 0 0-2.122-2.135C19.506 3.562 12 3.562 12 3.562s-7.505 0-9.377.505A3.015 3.015 0 0 0 .502 6.202C0 8.086 0 12.018 0 12.018s0 3.93.502 5.814a2.97 2.97 0 0 0 2.122 2.102c1.87.505 9.376.505 9.376.505s7.505 0 9.377-.505a2.972 2.972 0 0 0 2.122-2.102C24 15.947 24 12.017 24 12.017s0-3.93-.502-5.815zM9.545 15.585V8.449l6.273 3.568z"/>
</symbol><symbol id="icon--time" viewBox="0 0 24 24">
    <path d="M13.2 6h-2.4v7.2H18v-2.4h-4.8ZM12 0a12 12 0 1 0 12 12A12 12 0 0 0 12 0Zm0 21.6a9.6 9.6 0 1 1 9.6-9.6 9.62 9.62 0 0 1-9.6 9.6Z"/>
</symbol><symbol id="icon--workspace-function" viewBox="0 0 24 24">
    <path d="M3.6.6C1.626.6 0 2.226 0 4.2v15.6c0 1.974 1.626 3.6 3.6 3.6H12V21H3.6c-.6768 0-1.2-.5232-1.2-1.2V4.2c0-.6768.5232-1.2 1.2-1.2H12V.6ZM24 3A2.4 2.4 0 0 0 21.6.6H12v22.8h9.6A2.4 2.4 0 0 0 24 21Z"/>
</symbol><symbol id="icon--workspace-json-validation" viewBox="0 0 24 24">
    <path d="M17.0004 2.4996V4.5h1.7316c.564 0 1.0008.4356 1.0008.9996v13.0008c0 .564-.4356.9996-1.0008.9996h-1.7316v2.0004h1.7316c1.6452 0 3-1.356 3-3v-5.5008H24v-1.9992h-2.268V5.4996c0-1.644-1.3548-3-3-3zm-11.7324 0c-1.6452 0-3 1.356-3 3v5.5008H0v1.9992h2.268v5.5008c0 1.644 1.3548 3 3 3h1.7316V19.5H5.268a.9852.9852 0 0 1-1.0008-.9996V5.4996c0-.564.4368-.9996 1.0008-.9996h1.7316V2.4996ZM16.9668 7.5a.9996.9996 0 0 0-.6972.3168l-4.8948 5.22-2.6448-2.82a.9996.9996 0 0 0-1.4136-.048.9996.9996 0 0 0-.048 1.416l4.1064 4.3776L17.73 9.1836a.9996.9996 0 0 0-.0468-1.4136.9996.9996 0 0 0-.7164-.27Z"/>
</symbol><symbol id="icon--workspace-policy" viewBox="0 0 24 24">
    <path d="M2.262 0C1.4016 0 .732.6696.732 1.53v11.442c0 2.3808.9408 4.4964 2.7792 6.3744 1.8384 1.8792 4.596 3.4776 8.0952 4.5924.2556.0816.5304.0816.7824 0 6.9528-2.2476 10.8792-6.8256 10.8792-10.9668V1.53c0-.8604-.6696-1.53-1.53-1.53Zm16.6476 4.3128a1.392 1.392 0 0 1 .9972.3744 1.392 1.392 0 0 1 .066 1.968L11.13 16.086 5.418 9.9936a1.392 1.392 0 0 1 .066-1.968 1.392 1.392 0 0 1 1.968.066l3.678 3.924 6.81-7.2636a1.392 1.392 0 0 1 .9696-.4392z"/>
</symbol></svg>