<svg xmlns="http://www.w3.org/2000/svg" viewBox="0 0 200 48.611">
    <defs>
        <linearGradient id="b" x1="0" x2="1" y1="0" y2="0" gradientTransform="matrix(0 17.51171 17.51171 0 505.227 434.324)" gradientUnits="userSpaceOnUse" spreadMethod="pad">
            <stop offset="0" style="stop-opacity:1;stop-color:#feeabe"/>
            <stop offset=".25" style="stop-opacity:1;stop-color:#fdd000"/>
            <stop offset="1" style="stop-opacity:1;stop-color:#b67100"/>
        </linearGradient>
        <linearGradient id="a" x1="0" x2="1" y1="0" y2="0" gradientTransform="matrix(0 -19.45634 -19.45634 0 502.922 452.515)" gradientUnits="userSpaceOnUse" spreadMethod="pad">
            <stop offset="0" style="stop-opacity:1;stop-color:#feeabe"/>
            <stop offset=".5" style="stop-opacity:1;stop-color:#fdd000"/>
            <stop offset="1" style="stop-opacity:1;stop-color:#af7900"/>
        </linearGradient>
        <clipPath id="c" clipPathUnits="userSpaceOnUse">
            <path d="M469.599 433.685h78.439v19.292h-78.439z"/>
        </clipPath>
    </defs>
    <path d="M469.599 443.484v-.851c.623-4.251 10.486-7.794 23.782-8.9h.004c-9.328 1.429-19.217 4.559-19.217 8.053 0 5.335 14.765 9.663 32.805 9.663 12.428 0 24.501-2.943 29.276-5.965-4.588 3.879-18.69 7.262-33.893 7.262-17.551 0-31.999-4.112-32.757-9.262" style="fill:url(#a);stroke:none" transform="matrix(2.55671 0 0 -2.55671 -1200.629 1157.54)"/>
    <path d="M474.168 441.849v-.113c.093-3.475 9.937-6.582 19.222-8.003-6.798 1.744-13.85 4.272-13.85 7.557 0 4.888 13.068 8.844 29.011 8.844 10.985 0 22.423-1.928 27.698-4.65-4.775 3.022-16.848 5.965-29.276 5.965-17.969 0-32.688-4.293-32.805-9.6" style="fill:url(#b);stroke:none" transform="matrix(2.55671 0 0 -2.55671 -1200.629 1157.54)"/>
    <path d="M0 0h3.08l.202-3.778h.01L4.089 0h1.764l-1.12-5.357H1.705l-.227 3.886h-.02L.647-5.357h-1.765" style="fill:#0e357f;fill-opacity:1;fill-rule:nonzero;stroke:none" transform="matrix(2.55671 0 0 -2.55671 34.975 20.896)"/>
    <path d="M0 0h-1.768l-.791-3.777h-2.056L-3.824 0h-1.774l.334 1.579H.33" style="fill:#0e357f;fill-opacity:1;fill-rule:nonzero;stroke:none" transform="matrix(2.55671 0 0 -2.55671 64.953 24.935)"/>
    <path d="M0 0h-1.773l-.793-3.777H-4.62L-3.836 0H-5.6l.331 1.579H.332" style="fill:#0e357f;fill-opacity:1;fill-rule:nonzero;stroke:none" transform="matrix(2.55671 0 0 -2.55671 80.674 24.935)"/>
    <g clip-path="url(#c)" transform="matrix(2.55671 0 0 -2.55671 -1200.629 1157.54)">
        <path d="M0 0c0-1.167-.78-2.016-1.9-2.016-.915 0-1.462.577-1.462 1.519 0 1.109.82 1.958 1.895 1.958C-.599 1.461 0 .92 0 0m-.866-.002c0 .433-.151.797-.639.797-.657 0-.981-.758-.981-1.356 0-.443.172-.788.651-.788.64 0 .969.778.969 1.347" style="fill:#0e357f;fill-opacity:1;fill-rule:nonzero;stroke:none" transform="translate(508.653 441.16)"/>
        <path d="M0 0c.03.127.055.261.068.369h.78L.775-.079H.79c.214.34.583.518.98.518.376 0 .769-.226.808-.63h.015c.214.436.672.63 1.126.63a.9.9 0 0 0 .884-.907c0-.296-.071-.636-.137-.902l-.335-1.596h-.832l.33 1.621c.047.208.109.514.109.72a.39.39 0 0 1-.388.4c-.581 0-.725-.701-.833-1.152L2.19-2.966h-.83l.335 1.621c.045.208.106.514.106.72 0 .239-.187.4-.393.4-.565 0-.72-.705-.831-1.152L.254-2.966h-.833" style="fill:#0e357f;fill-opacity:1;fill-rule:nonzero;stroke:none" transform="translate(509.295 442.182)"/>
        <path d="M0 0c.024.127.05.261.065.369h.781L.769-.079h.017c.219.34.585.518.977.518.381 0 .771-.226.815-.63h.013c.216.436.676.63 1.119.63a.901.901 0 0 0 .892-.907c0-.296-.072-.636-.143-.902l-.334-1.596h-.837l.338 1.621c.041.208.11.514.11.72 0 .239-.18.4-.389.4-.583 0-.73-.701-.828-1.152l-.336-1.589h-.827l.329 1.621c.046.208.111.514.111.72a.39.39 0 0 1-.391.4C.839-.225.683-.93.574-1.377L.248-2.966H-.58" style="fill:#0e357f;fill-opacity:1;fill-rule:nonzero;stroke:none" transform="translate(514.573 442.182)"/>
        <path d="M0 0a4.52 4.52 0 0 1-.08-.482h-.817l.058.323h-.013c-.229-.219-.547-.395-.901-.395-.63 0-1.046.397-1.046 1.065 0 .249.057.509.103.72l.337 1.623h.832l-.311-1.574A3.319 3.319 0 0 1-1.93.586c0-.285.186-.472.449-.472.58 0 .789.56.898 1.061l.335 1.679h.834" style="fill:#0e357f;fill-opacity:1;fill-rule:nonzero;stroke:none" transform="translate(522.27 439.697)"/>
        <path d="M0 0c.038.203.068.376.082.484h.814L.842.158h.01c.23.218.547.395.904.395.633 0 1.045-.401 1.045-1.062 0-.252-.064-.514-.11-.721L2.36-2.853h-.837l.313 1.575c.044.224.096.452.096.696 0 .281-.188.47-.455.47-.576 0-.788-.561-.891-1.058L.239-2.853h-.825" style="fill:#0e357f;fill-opacity:1;fill-rule:nonzero;stroke:none" transform="translate(523.396 442.067)"/>
        <path d="M0 0h.832L.153-3.335h-.834Zm.304 1.431h.831L.966.604H.128" style="fill:#0e357f;fill-opacity:1;fill-rule:nonzero;stroke:none" transform="translate(527.123 442.551)"/>
        <path d="M0 0a1.088 1.088 0 0 1-.607.168c-.667 0-1.039-.647-1.039-1.273 0-.434.139-.869.712-.869.207 0 .455.062.673.168l-.09-.684c-.256-.133-.533-.152-.802-.152-.828 0-1.36.576-1.36 1.439 0 1.159.743 2.039 1.889 2.039.308 0 .606-.052.83-.124" style="fill:#0e357f;fill-opacity:1;fill-rule:nonzero;stroke:none" transform="translate(530.681 441.785)"/>
        <path d="M0 0h-.015c-.28-.379-.571-.588-1.026-.588-.578 0-.99.336-.99.95 0 1.093 1.178 1.183 1.963 1.183h.292l.023.28c0 .338-.347.435-.636.435-.369 0-.722-.097-1.05-.255l.117.69c.351.129.714.194 1.086.194.639 0 1.243-.239 1.243-1.022C1.007 1.419.69.115.612-.515h-.698zm-.813.045c.62 0 .813.443.943.982h-.292c-.401 0-1.076-.067-1.076-.634 0-.236.21-.348.425-.348" style="fill:#0e357f;fill-opacity:1;fill-rule:nonzero;stroke:none" transform="translate(532.86 439.731)"/>
        <path d="M0 0h.599l.146.681.895.303L1.433 0h.746L2.05-.639h-.746L.997-2.094a1.776 1.776 0 0 1-.032-.321c0-.199.127-.325.313-.325.149 0 .299.035.403.077l-.146-.672c-.137-.031-.301-.074-.443-.074-.563 0-.962.233-.962.872 0 .255.045.508.106.775L.47-.639h-.601" style="fill:#0e357f;fill-opacity:1;fill-rule:nonzero;stroke:none" transform="translate(534.363 442.551)"/>
        <path d="M0 0h.832L.156-3.335h-.834Zm.307 1.431h.833L.969.604H.135" style="fill:#0e357f;fill-opacity:1;fill-rule:nonzero;stroke:none" transform="translate(537.209 442.551)"/>
        <path d="M0 0c0-1.167-.778-2.016-1.91-2.016-.908 0-1.458.577-1.458 1.519 0 1.109.825 1.958 1.892 1.958C-.61 1.461 0 .92 0 0m-.875-.002c0 .433-.142.797-.633.797-.657 0-.986-.758-.986-1.356 0-.443.177-.788.656-.788.642 0 .963.778.963 1.347" style="fill:#0e357f;fill-opacity:1;fill-rule:nonzero;stroke:none" transform="translate(541.553 441.16)"/>
        <path d="M0 0c.038.203.072.376.082.484h.811L.839.158h.013c.227.218.547.395.909.395.625 0 1.038-.401 1.038-1.062 0-.252-.06-.514-.108-.721l-.33-1.623h-.832l.312 1.575c.039.224.092.452.092.696 0 .281-.189.47-.456.47C.9-.112.695-.673.585-1.17L.242-2.853h-.831" style="fill:#0e357f;fill-opacity:1;fill-rule:nonzero;stroke:none" transform="translate(542.257 442.067)"/>
        <path d="M0 0a1.939 1.939 0 0 1-.686.152c-.246 0-.555-.069-.555-.337 0-.423 1.082-.576 1.082-1.39 0-.868-.732-1.121-1.445-1.121-.334 0-.671.047-.973.197l.175.697c.24-.139.475-.26.798-.26.279 0 .571.098.571.369 0 .531-1.081.581-1.081 1.419 0 .78.728 1.056 1.389 1.056.302 0 .613-.054.902-.128" style="fill:#0e357f;fill-opacity:1;fill-rule:nonzero;stroke:none" transform="translate(547.648 441.84)"/>
        <path d="M0 0c-.196.146-.522.258-.99.258-.42 0-1.315-.267-1.621-1.343-.386-1.371.39-1.899 1.152-1.899a1.7 1.7 0 0 1 .922.282l-.158-.871a3.82 3.82 0 0 0-.984-.119c-1.306 0-2.223 1.003-1.833 2.607C-3.167.346-2.103.975-1.035.975c.436 0 .894-.06 1.27-.221" style="fill:#0e357f;fill-opacity:1;fill-rule:nonzero;stroke:none" transform="translate(505.303 442.835)"/>
    </g>
</svg>
