<svg xmlns="http://www.w3.org/2000/svg" viewBox="0 0 24 24">
  <path d="m 10.31618,5.549777 c 0.233192,0.2331834 0.34512,0.5149483 0.335785,0.8452945 -0.01009,0.3303451 -0.131739,0.6121021 -0.36493,0.8452935 L 6.99331,10.534078 h 12.840806 c 0.330301,0 0.607435,0.111928 0.831291,0.335785 0.223073,0.223084 0.334554,0.499794 0.334554,0.830138 0,0.330345 -0.111481,0.607446 -0.334554,0.831303 -0.223856,0.223073 -0.50099,0.334621 -0.831291,0.334621 H 6.99331 l 3.32287,3.32287 c 0.233192,0.233225 0.349776,0.510247 0.349776,0.831257 0,0.320227 -0.116584,0.597026 -0.349776,0.830172 C 10.083001,18.083371 9.8058989,18.2 9.4848893,18.2 9.1646399,18.2 8.8879309,18.083371 8.6547508,17.850224 L 3.3206684,12.516148 C 3.2040761,12.399553 3.1212951,12.273242 3.0723276,12.137216 3.0241362,12.0012 3.000039,11.855458 3.000039,11.700001 c 0,-0.155457 0.024096,-0.301199 0.072289,-0.437225 0.048967,-0.136015 0.1317484,-0.262326 0.2483407,-0.378922 L 8.6838967,5.5206286 C 8.8976461,5.3068781 9.164651,5.2 9.4848893,5.2 9.8058989,5.2 10.083001,5.3165924 10.31618,5.549777 Z"/>
</svg>
