<svg xmlns="http://www.w3.org/2000/svg" viewBox="0 0 24 24">
  <path d="M 12.596844,11.994006 7.2899856,6.6929858 A 1.001239,1.001239 0 0 1 8.7144889,5.2859969 l 6.0132721,5.9957581 a 0.99831997,0.99831997 0 0 1 0.02919,1.354446 l -6.036625,6.065815 a 1.0158344,1.0158344 0 0 1 -0.677223,0.297745 1.045025,1.045025 0 0 1 -0.7531185,-0.297745 0.99831997,0.99831997 0 0 1 0,-1.406989 z"/>
  <path d="M 17.267347,11.994006 11.960488,6.6929858 a 1.001239,1.001239 0 0 1 1.424504,-1.4069889 l 6.013272,5.9957581 a 0.99831997,0.99831997 0 0 1 0.02919,1.354446 l -6.036624,6.065815 a 1.0158344,1.0158344 0 0 1 -0.677223,0.297745 1.045025,1.045025 0 0 1 -0.753119,-0.297745 0.99831997,0.99831997 0 0 1 0,-1.406989 z"/>
</svg>
