<svg xmlns="http://www.w3.org/2000/svg" viewBox="0 0 24 24">
    <path d="M12 16.769 7.2 12 12 7.231l1.68 1.67-1.92 1.907h5.04v2.384h-5.04l1.92 1.908zm0 7.153c1.66 0 3.22-.313 4.68-.94a12.116 12.116 0 0 0 3.81-2.547 12.027 12.027 0 0 0 2.564-3.785c.63-1.45.946-3 .946-4.65 0-1.65-.315-3.2-.946-4.65a12.027 12.027 0 0 0-2.564-3.785 12.133 12.133 0 0 0-3.81-2.549C15.22.391 13.66.078 12 .078c-1.66 0-3.22.313-4.68.938a12.131 12.131 0 0 0-3.81 2.55A12.027 12.027 0 0 0 .946 7.35C.316 8.8 0 10.35 0 12c0 1.65.315 3.2.946 4.65a12.028 12.028 0 0 0 2.564 3.785 12.114 12.114 0 0 0 3.81 2.548c1.46.626 3.02.94 4.68.94z"/>
</svg>
