<svg xmlns="http://www.w3.org/2000/svg" viewBox="0 0 24 24">
    <path d="M12 16.769 16.8 12 12 7.231l-1.68 1.67 1.92 1.907H7.2v2.384h5.04L10.32 15.1zm0 7.153c-1.66 0-3.22-.313-4.68-.94a12.114 12.114 0 0 1-3.81-2.547A12.027 12.027 0 0 1 .946 16.65C.316 15.2 0 13.65 0 12c0-1.65.315-3.2.946-4.65A12.027 12.027 0 0 1 3.51 3.565a12.131 12.131 0 0 1 3.81-2.549C8.78.391 10.34.078 12 .078c1.66 0 3.22.313 4.68.938a12.13 12.13 0 0 1 3.81 2.55 12.028 12.028 0 0 1 2.564 3.784c.63 1.45.946 3 .946 4.65 0 1.65-.315 3.2-.946 4.65a12.028 12.028 0 0 1-2.564 3.785 12.114 12.114 0 0 1-3.81 2.548c-1.46.626-3.02.94-4.68.94z"/>
</svg>
