<svg xmlns="http://www.w3.org/2000/svg" viewBox="0 0 24 24">
  <path d="M 5.5391068,22 C 4.9783202,22 4.4980895,21.8044 4.0984028,21.412933 3.6993962,21.020933 3.4998935,20.55 3.4998935,20 V 6 H 5.5391068 V 20 H 16.499893 v 2 z m 4.07844,-4 C 9.0567602,18 8.5768668,17.8044 8.1778535,17.412933 7.7781735,17.020933 7.5783202,16.55 7.5783202,16 V 4 c 0,-0.55 0.1998533,-1.021 0.5995333,-1.413 C 8.5768668,2.1956667 9.0567602,2 9.6175468,2 h 8.8433592 c 0.5608,0 1.041067,0.1956667 1.440668,0.587 C 20.30064,2.979 20.500106,3.45 20.500106,4 v 12 c 0,0.55 -0.199466,1.020933 -0.598532,1.412933 C 19.501973,17.8044 19.021706,18 18.460906,18 Z"/>
</svg>
