<svg xmlns="http://www.w3.org/2000/svg" viewBox="0 0 24 24">
    <path d="M6.808 0a.84.84 0 0 1 .84.84v1.57h9.02V.85a.84.84 0 0 1 1.68 0v1.56H21.6a2.4 2.4 0 0 1 2.4 2.4V21.6A2.4 2.4 0 0 1 21.6 24H2.4A2.4 2.4 0 0 1 0 21.601V4.81a2.4 2.4 0 0 1 2.4-2.4h3.568V.84a.84.84 0 0 1 .84-.84ZM1.68 9.29v12.311c0 .398.322.72.72.72h19.2a.72.72 0 0 0 .72-.72V9.307ZM8 17.542v2H6v-2zm5 0v2h-2v-2zm5 0v2h-2v-2ZM8 12.77v2H6v-2zm5 0v2h-2v-2zm5 0v2h-2v-2ZM5.968 4.09H2.4a.72.72 0 0 0-.72.72v2.802l20.64.016V4.81a.72.72 0 0 0-.72-.72h-3.252v1.114a.84.84 0 0 1-1.68 0V4.09h-9.02v1.104a.84.84 0 0 1-1.68 0z"/>
</svg>
