<svg xmlns="http://www.w3.org/2000/svg" viewBox="0 0 24 24">
    <path d="M23.2498 7.8106c.15.4068.024.8616-.3 1.152l-2.0306 1.8481a9.0725 9.0725 0 0 1 0 2.381l2.0305 1.848c.324.2905.45.7441.3 1.1521-.2063.5592-.456 1.0933-.7404 1.6081l-.2208.3804a11.9793 11.9793 0 0 1-1.0368 1.464 1.062 1.062 0 0 1-1.1485.3181l-2.6113-.8292a9.022 9.022 0 0 1-2.063 1.1904l-.5856 2.6762a1.0597 1.0597 0 0 1-.8532.8352 12.1158 12.1158 0 0 1-3.9854 0 1.0597 1.0597 0 0 1-.8545-.834l-.5856-2.6774a9.022 9.022 0 0 1-2.0629-1.1904l-2.6065.834a1.0705 1.0705 0 0 1-1.1485-.3192A11.931 11.931 0 0 1 1.71 18.185l-.2208-.3792a11.6226 11.6226 0 0 1-.7405-1.608 1.062 1.062 0 0 1 .3-1.1533l2.0305-1.8481a9.0725 9.0725 0 0 1 0-2.387L1.0486 8.9626a1.062 1.062 0 0 1-.3-1.152c.2064-.5592.456-1.0933.7405-1.6093l.2208-.3792a11.8876 11.8876 0 0 1 1.0368-1.464A1.062 1.062 0 0 1 3.8952 4.04l2.6113.8292a9.022 9.022 0 0 1 2.063-1.1904l.5855-2.6762a1.0597 1.0597 0 0 1 .8533-.8352 12.1158 12.1158 0 0 1 3.9854-.0048c.432.0696.7596.408.8544.834l.5857 2.6774a9.0602 9.0602 0 0 1 2.0629 1.1904l2.6113-.8292a1.0705 1.0705 0 0 1 1.1485.3192c.3804.4596.7272.9469 1.0368 1.4629l.2196.3792c.2868.516.5353 1.05.7417 1.608zm-11.2482 7.942a3.7514 3.7514 0 1 0 0-7.5028 3.7514 3.7514 0 1 0 0 7.5028z"/>
</svg>
