<svg xmlns="http://www.w3.org/2000/svg" viewBox="0 0 24 24">
    <path d="M12 0C5.37 0 0 5.506 0 12.304c0 5.444 3.435 10.042 8.205 11.672.6.108.825-.26.825-.584 0-.292-.015-1.261-.015-2.291C6 21.67 5.22 20.347 4.98 19.655c-.135-.354-.72-1.446-1.23-1.738-.42-.23-1.02-.8-.015-.815.945-.015 1.62.892 1.845 1.26 1.08 1.862 2.805 1.339 3.495 1.016.105-.8.42-1.338.765-1.646-2.67-.307-5.46-1.368-5.46-6.074 0-1.338.465-2.446 1.23-3.307-.12-.308-.54-1.569.12-3.26 0 0 1.005-.323 3.3 1.26.96-.276 1.98-.415 3-.415s2.04.139 3 .416c2.295-1.6 3.3-1.261 3.3-1.261.66 1.691.24 2.952.12 3.26.765.861 1.23 1.953 1.23 3.307 0 4.721-2.805 5.767-5.475 6.074.435.385.81 1.123.81 2.277 0 1.645-.015 2.968-.015 3.383 0 .323.225.708.825.584a12.047 12.047 0 0 0 5.919-4.488A12.537 12.537 0 0 0 24 12.304C24 5.506 18.63 0 12 0Z"/>
</svg>
