<svg xmlns="http://www.w3.org/2000/svg" fill="none" viewBox="0 0 24 24">
  <path d="M10.8 18h2.4v-7.2h-2.4zM12 8.4c.34 0 .625-.115.856-.346.23-.23.345-.515.344-.854 0-.34-.115-.625-.346-.856A1.157 1.157 0 0 0 12 6c-.34 0-.625.115-.856.346-.23.23-.345.515-.344.854 0 .34.115.625.346.856.23.23.515.345.854.344zM12 24c-1.66 0-3.22-.315-4.68-.946a12.138 12.138 0 0 1-3.81-2.564 12.11 12.11 0 0 1-2.564-3.81C.316 15.22 0 13.66 0 12c0-1.66.315-3.22.946-4.68.63-1.46 1.485-2.73 2.564-3.81A12.11 12.11 0 0 1 7.32.946C8.78.316 10.34 0 12 0c1.66 0 3.22.315 4.68.946 1.46.63 2.73 1.485 3.81 2.564a12.128 12.128 0 0 1 2.566 3.81c.63 1.46.945 3.02.944 4.68 0 1.66-.315 3.22-.946 4.68a12.138 12.138 0 0 1-2.564 3.81 12.127 12.127 0 0 1-3.81 2.566c-1.46.63-3.02.945-4.68.944zm0-2.4c2.68 0 4.95-.93 6.81-2.79 1.86-1.86 2.79-4.13 2.79-6.81 0-2.68-.93-4.95-2.79-6.81C16.95 3.33 14.68 2.4 12 2.4c-2.68 0-4.95.93-6.81 2.79C3.33 7.05 2.4 9.32 2.4 12c0 2.68.93 4.95 2.79 6.81C7.05 20.67 9.32 21.6 12 21.6z"/>
</svg>
