<svg xmlns="http://www.w3.org/2000/svg" viewBox="0 0 24 24">
  <path d="M 4.999998,19.000002 H 19.000002 V 9.825006 L 14.174994,4.999998 H 4.999998 Z m 0,1.999998 C 4.4500008,21 3.9790002,20.80434 3.5869998,20.413002 3.1956672,20.020998 3,19.549992 3,19.000002 V 4.999998 C 3,4.4500008 3.1956672,3.9790002 3.5869998,3.5869998 3.9790002,3.1956672 4.4500008,3 4.999998,3 h 9.174996 c 0.26667,0 0.52101,0.050004 0.763002,0.149994 0.241344,0.100008 0.453672,0.241668 0.637002,0.4249998 l 4.85001,4.8500082 c 0.18333,0.18333 0.32499,0.395658 0.424998,0.637002 C 20.949996,9.303996 21,9.558336 21,9.825006 v 9.174996 c 0,0.54999 -0.19566,1.020996 -0.586998,1.413 C 20.020998,20.80434 19.549992,21 19.000002,21 Z m 3.000006,-3.999996 h 7.999992 c 0.283338,0 0.520668,-0.09601 0.712008,-0.288 0.191988,-0.19134 0.288,-0.42867 0.288,-0.712008 0,-0.28332 -0.09601,-0.520992 -0.288,-0.712998 -0.19134,-0.19134 -0.42867,-0.286992 -0.712008,-0.286992 H 8.000004 c -0.283338,0 -0.52101,0.09565 -0.712998,0.286992 -0.19134,0.192006 -0.28701,0.429678 -0.28701,0.712998 0,0.283338 0.09567,0.520668 0.28701,0.712008 0.191988,0.191988 0.42966,0.288 0.712998,0.288 z m 0,-3.999996 h 7.999992 c 0.283338,0 0.520668,-0.09601 0.712008,-0.288 0.191988,-0.19134 0.288,-0.42867 0.288,-0.712008 0,-0.283338 -0.09601,-0.520992 -0.288,-0.712998 -0.19134,-0.19134 -0.42867,-0.28701 -0.712008,-0.28701 H 8.000004 c -0.283338,0 -0.52101,0.09567 -0.712998,0.28701 -0.19134,0.192006 -0.28701,0.42966 -0.28701,0.712998 0,0.283338 0.09567,0.520668 0.28701,0.712008 0.191988,0.191988 0.42966,0.288 0.712998,0.288 z m 0,-4.000014 h 5.000004 c 0.28332,0 0.520992,-0.09599 0.712998,-0.288 0.191322,-0.191322 0.286992,-0.428652 0.286992,-0.71199 0,-0.283338 -0.09567,-0.52101 -0.286992,-0.712998 C 13.521,7.095666 13.283328,6.999996 13.000008,6.999996 H 8.000004 c -0.283338,0 -0.52101,0.09567 -0.712998,0.28701 -0.19134,0.191988 -0.28701,0.42966 -0.28701,0.712998 0,0.283338 0.09567,0.520668 0.28701,0.71199 0.191988,0.192006 0.42966,0.288 0.712998,0.288 z M 4.999998,19.000002 V 4.999998 Z"/>
</svg>
