<svg xmlns="http://www.w3.org/2000/svg" viewBox="0 0 24 24">
    <path d="M5.0458 10.3065a.4112.4112 0 0 0-.2891.1178.4003.4003 0 0 0-.12.2836V21.18c0 .2226.1833.4036.409.4036h13.9085a.416.416 0 0 0 .2891-.1178.4043.4043 0 0 0 .12-.2847V10.709a.4003.4003 0 0 0-.12-.2847.4123.4123 0 0 0-.289-.1178h-1.6364c-.325 0-.6381-.1277-.8672-.3546a1.1989 1.1989 0 0 1 0-1.7083c.229-.2269.5422-.3545.8672-.3545h1.6363c1.5807 0 2.8635 1.2643 2.8635 2.8199v10.4722c0 .7473-.3021 1.464-.8388 1.993A2.8864 2.8864 0 0 1 18.9542 24H5.0458a2.8864 2.8864 0 0 1-2.0247-.8258 2.798 2.798 0 0 1-.8388-1.993V10.709c0-1.5567 1.2828-2.821 2.8635-2.821H6.682c.325 0 .6381.1277.8672.3545a1.1989 1.1989 0 0 1 0 1.7083 1.237 1.237 0 0 1-.8672.3546zM11.7109.1189a.409.409 0 0 1 .4462-.0872.409.409 0 0 1 .133.0872l4.7388 4.6656a.4003.4003 0 0 1-.2902.6884h-3.5115v9.2635a1.2 1.2 0 0 1-.36.8542 1.237 1.237 0 0 1-1.7344 0 1.2 1.2 0 0 1-.36-.8542V5.473H7.2613a.4145.4145 0 0 1-.3785-.2488.397.397 0 0 1 .0894-.4396Z"/>
</svg>
