<svg xmlns="http://www.w3.org/2000/svg" viewBox="0 0 24 24">
    <path d="M24 4.556a9.832 9.832 0 0 1-2.828.775 4.94 4.94 0 0 0 2.165-2.724 9.874 9.874 0 0 1-3.126 1.195 4.918 4.918 0 0 0-3.595-1.555 4.924 4.924 0 0 0-4.796 6.046A13.977 13.977 0 0 1 1.67 3.148a4.907 4.907 0 0 0-.666 2.475c0 1.708.869 3.216 2.19 4.1a4.893 4.893 0 0 1-2.23-.618v.063a4.927 4.927 0 0 0 3.95 4.828 4.886 4.886 0 0 1-1.298.173 5 5 0 0 1-.926-.087 4.93 4.93 0 0 0 4.6 3.419 9.877 9.877 0 0 1-6.116 2.108c-.396 0-.79-.023-1.174-.068a13.935 13.935 0 0 0 7.547 2.212c9.058 0 14.009-7.504 14.009-14.011 0-.214-.004-.426-.014-.638A9.979 9.979 0 0 0 24 4.556"/>
</svg>
