<svg xmlns="http://www.w3.org/2000/svg" viewBox="0 0 24 24">
    <path d="M2.262 0C1.4016 0 .732.6696.732 1.53v11.442c0 2.3808.9408 4.4964 2.7792 6.3744 1.8384 1.8792 4.596 3.4776 8.0952 4.5924.2556.0816.5304.0816.7824 0 6.9528-2.2476 10.8792-6.8256 10.8792-10.9668V1.53c0-.8604-.6696-1.53-1.53-1.53Zm16.6476 4.3128a1.392 1.392 0 0 1 .9972.3744 1.392 1.392 0 0 1 .066 1.968L11.13 16.086 5.418 9.9936a1.392 1.392 0 0 1 .066-1.968 1.392 1.392 0 0 1 1.968.066l3.678 3.924 6.81-7.2636a1.392 1.392 0 0 1 .9696-.4392z"/>
</svg>
