<svg xmlns="http://www.w3.org/2000/svg" id="Layer_1" version="1.1" viewBox="0 0 268.118 30">
  <defs id="defs4">
    <style id="style2">
      .cls-1{fill:#003dff}.cls-3{fill:#36395a}
    </style>
  </defs>
  <g id="g326" transform="matrix(.46875 0 0 .46875 0 .004)">
    <path id="path6" d="M534.42 9.14h-6.5a.76.76 0 0 1-.76-.76V1.77c0-.37.27-.69.64-.75L534.3 0c.41-.06.8.22.86.63v7.74c0 .42-.34.76-.76.76zm-106.5 26.1V.76a.76.76 0 0 0-.76-.76h-.12l-6.46 1.02c-.37.06-.64.37-.64.75l.02 34.97c0 1.65 0 11.86 12.28 12.22.42.01.77-.32.78-.74v-5.24c0-.38-.28-.7-.65-.75-4.46-.51-4.46-6.09-4.46-7zm106.51-21.83h-6.5c-.42 0-.76.34-.76.75v34.06c0 .42.34.75.76.75h6.5c.42 0 .75-.34.75-.75V14.16c0-.42-.34-.75-.75-.75zM516.7 35.24V.76a.76.76 0 0 0-.76-.76h-.12l-6.46 1.02c-.37.06-.64.37-.64.75l.02 34.97c0 1.65 0 11.86 12.28 12.22.42.01.77-.32.78-.74v-5.24c0-.38-.28-.7-.65-.75-4.46-.51-4.46-6.09-4.46-7z" class="cls-1"/>
    <path id="path8" fill="#003dff" fill-rule="evenodd" d="M494.57 14.64c2.04.85 3.79 2.05 5.22 3.62 1.45 1.57 2.57 3.44 3.38 5.64.86 2.2 1.28 4.78 1.28 7.47 0 2.69-.39 4.72-1.18 6.94-.79 2.22-1.91 4.11-3.36 5.68a14.833 14.833 0 0 1-5.22 3.64c-2.04.85-5.18 1.34-6.75 1.34-1.57-.02-4.69-.47-6.71-1.34-2.02-.88-3.75-2.08-5.2-3.64-1.45-1.57-2.57-3.46-3.38-5.68-.81-2.22-1.22-4.25-1.22-6.94 0-2.69.37-5.27 1.18-7.47.82-2.2 1.96-4.07 3.42-5.64 1.47-1.57 3.22-2.77 5.22-3.62 2.02-.86 4.24-1.26 6.64-1.26 2.4 0 4.63.42 6.66 1.26zm-6.62 27.61c2.63 0 4.69-1.02 6.16-3.03 1.47-2.03 2.2-4.35 2.2-7.83 0-3.48-.75-6.31-2.22-8.3-1.47-2.01-3.52-3.01-6.16-3.01s-4.69.99-6.15 3.01c-1.47 2.01-2.18 4.86-2.18 8.3 0 3.44.73 5.82 2.2 7.83 1.47 2.04 3.53 3.03 6.16 3.03zM399.08 13.4c-6.19 0-11.64 3.26-14.81 8.2-1.93 3.01-2.95 6.5-2.94 10.08 0 5.75 2.58 10.87 6.6 14.22.37.33.77.64 1.19.91 1.82 1.21 3.98 1.81 6.17 1.71h.14c.13 0 .26-.02.4-.03h.03l.43-.06h.04c4.21-.65 7.88-3.95 9.07-8.04v7.4c0 .42.34.76.75.76h6.45c.42 0 .75-.34.75-.75V14.16c0-.42-.34-.75-.75-.75h-13.52zm6.31 26.48c-1.56 1.3-3.58 1.79-5.74 1.94h-.06c-.14.01-.29.02-.43.02-5.41 0-9.87-4.59-9.87-10.16 0-1.31.25-2.56.69-3.71 1.44-3.73 4.96-6.37 9.09-6.37h6.31v18.28zM557.72 13.4h13.52c.42 0 .75.34.75.75v33.64c0 .42-.34.75-.75.75h-6.45c-.42 0-.75-.34-.75-.75v-7.4c-1.2 4.09-4.86 7.39-9.07 8.04-.03 0-.05 0-.08.01-.12.02-.23.03-.35.04-.04 0-.09.01-.13.02l-.34.03c-.2.01-.41.02-.61.02-2.03 0-4.01-.6-5.7-1.72-.42-.28-.82-.58-1.19-.91-4.03-3.35-6.6-8.47-6.6-14.22 0-3.72 1.08-7.19 2.94-10.08 3.18-4.94 8.62-8.2 14.81-8.2zm.57 28.42c2.16-.15 4.18-.63 5.74-1.93V21.61h-6.31c-4.13 0-7.66 2.64-9.09 6.37-.46 1.18-.69 2.44-.69 3.71 0 5.56 4.46 10.16 9.87 10.16.15 0 .31 0 .46-.01h.03zM452.78 13.4c-6.19 0-11.64 3.26-14.81 8.2a18.53 18.53 0 0 0-2.83 8.01c-.15 1.39-.15 2.8 0 4.19.55 4.88 2.96 9.16 6.48 12.1.38.33.77.64 1.19.91a10.315 10.315 0 0 0 11.86-.32c2.09-1.48 3.7-3.65 4.41-6.11v6.43h-.01v1.42c0 2.79-.73 4.9-2.22 6.32-1.49 1.42-3.97 2.13-7.45 2.13-1.99 0-3.98-.11-5.96-.31a.75.75 0 0 0-.8.54L441 62.43c-.12.4.11.82.51.94.03.01.07.02.11.02 2.75.39 5.44.6 6.99.6 6.26 0 10.9-1.38 13.94-4.12 2.75-2.48 4.24-6.26 4.5-11.33V14.16c0-.42-.34-.75-.75-.75h-13.52zm6.31 8.2s.08 17.81 0 18.35c-1.55 1.25-3.47 1.74-5.57 1.88h-.06c-.31.02-.62.02-.93 0-5.17-.27-9.54-4.77-9.54-10.16 0-1.31.25-2.56.69-3.71 1.44-3.73 4.96-6.37 9.09-6.37h6.31z"/>
    <path id="path10" d="M290.93 31.5C291.18 14.09 305.42 0 322.9 0h30.76c.67 0 1.21.54 1.21 1.21v61.5c0 1.1-1.3 1.69-2.13.96l-19.23-17.05c-3.2 2.33-7.07 3.54-11.02 3.45-9.87-.22-17.95-8.72-17.69-18.59.27-10.12 8.91-18.2 19.23-17.57 9.01.55 16.3 7.8 16.92 16.8.11 1.54.02 3.08-.27 4.6-.08.41-.47.67-.87.6a.818.818 0 0 1-.36-.18l-3.83-3.4c-.41-.37-.66-.88-.71-1.42-.54-6.16-5.73-11-12.02-11-6.96 0-12.56 5.92-12.03 12.99.44 5.93 5.25 10.7 11.18 11.11 4.27.29 8.12-1.65 10.49-4.78.36-.48 1.04-.58 1.52-.23.02.02.05.04.07.06l14.72 13.08V6.03H322.9c-14.16 0-25.71 11.41-25.94 25.52-.23 14.29 11.32 26.18 25.61 26.36 3.59.05 7.15-.65 10.46-2.05.75-.32 1.61-.16 2.22.37l2.99 2.65c.31.27.34.75.06 1.06-.06.06-.12.12-.2.16a31.64 31.64 0 0 1-15.4 3.84c-17.69-.1-32.04-14.76-31.78-32.44z" class="cls-1"/>
    <g id="g28">
      <path id="path12" d="M16.03 48.3c-3.43 0-6.34-.56-8.73-1.67-2.39-1.11-4.2-2.64-5.44-4.6C.62 40.08 0 37.86 0 35.38h6.46c0 1.13.31 2.24.93 3.34.62 1.09 1.62 2 3.01 2.71 1.39.71 3.26 1.07 5.63 1.07 2.15 0 3.93-.31 5.33-.93 1.4-.62 2.44-1.44 3.12-2.46a6.049 6.049 0 0 0 1.01-3.39c0-1.53-.66-2.78-1.97-3.75-1.31-.97-3.28-1.56-5.91-1.78l-3.99-.38c-3.68-.29-6.62-1.43-8.81-3.42-2.19-1.99-3.28-4.6-3.28-7.85 0-2.48.59-4.63 1.78-6.46 1.18-1.82 2.85-3.26 5.01-4.29 2.15-1.04 4.65-1.56 7.49-1.56s5.45.52 7.6 1.56c2.15 1.04 3.82 2.5 5.01 4.38 1.18 1.88 1.78 4.11 1.78 6.7h-6.46c0-1.17-.28-2.27-.85-3.31s-1.43-1.89-2.6-2.54c-1.17-.66-2.66-.98-4.49-.98s-3.2.31-4.35.93c-1.15.62-2.02 1.42-2.6 2.41-.58.98-.88 2.04-.88 3.17 0 1.35.51 2.54 1.53 3.58s2.59 1.65 4.7 1.83l3.94.33c2.81.22 5.24.81 7.3 1.78 2.06.97 3.67 2.25 4.81 3.86 1.15 1.61 1.72 3.54 1.72 5.8 0 2.48-.67 4.67-2 6.56-1.33 1.9-3.19 3.37-5.58 4.43-2.39 1.06-5.19 1.59-8.4 1.59z" class="cls-3"/>
      <path id="path14" d="M51.56 48.3c-2.55 0-4.78-.44-6.67-1.31-1.9-.88-3.45-2.03-4.65-3.47-1.2-1.44-2.11-3.06-2.71-4.87-.6-1.81-.9-3.66-.9-5.55v-1.04c0-1.93.3-3.8.9-5.61.6-1.81 1.5-3.43 2.71-4.87 1.2-1.44 2.73-2.59 4.57-3.45 1.84-.86 3.98-1.29 6.43-1.29 3.17 0 5.82.69 7.93 2.08 2.11 1.39 3.7 3.18 4.76 5.39 1.06 2.21 1.59 4.59 1.59 7.14v2.57H39.37V29.7H61.2l-1.75 2.19c0-1.97-.31-3.67-.93-5.11-.62-1.44-1.53-2.55-2.74-3.34-1.2-.78-2.72-1.18-4.54-1.18-1.82 0-3.48.44-4.76 1.31-1.28.88-2.22 2.08-2.84 3.61-.62 1.53-.93 3.34-.93 5.42 0 1.97.31 3.73.93 5.28.62 1.55 1.59 2.77 2.9 3.67 1.31.89 2.99 1.34 5.03 1.34s3.72-.45 5.03-1.34c1.31-.89 2.12-1.94 2.41-3.15h5.96c-.4 2.01-1.21 3.76-2.43 5.25-1.22 1.5-2.76 2.64-4.62 3.45-1.86.8-3.98 1.2-6.35 1.2z" class="cls-3"/>
      <path id="path16" d="M79.95 48.09c-2.15 0-4.03-.37-5.63-1.12-1.61-.75-2.84-1.84-3.72-3.28-.88-1.44-1.31-3.16-1.31-5.17 0-2.11.5-3.87 1.5-5.25 1-1.39 2.43-2.43 4.29-3.12 1.86-.69 4.08-1.04 6.67-1.04h7.38v4.21h-7.55c-1.93 0-3.41.46-4.43 1.39-1.02.93-1.53 2.14-1.53 3.64s.51 2.69 1.53 3.58c1.02.89 2.5 1.34 4.43 1.34 1.13 0 2.21-.21 3.23-.63 1.02-.42 1.87-1.12 2.54-2.11.67-.98 1.05-2.37 1.12-4.16l1.64 2.13c-.18 2.08-.68 3.82-1.5 5.22a8.304 8.304 0 0 1-3.39 3.23c-1.44.75-3.2 1.12-5.28 1.12zm9.57-.77v-8.81h-1.04v-9.96c0-1.82-.47-3.21-1.42-4.16-.95-.95-2.35-1.42-4.21-1.42-1.02 0-2.15.02-3.39.05-1.24.04-2.45.08-3.64.14-1.19.06-2.23.12-3.15.19v-5.53c.8-.07 1.69-.14 2.65-.19.97-.05 1.97-.1 3.01-.14 1.04-.04 2.03-.05 2.98-.05 2.99 0 5.47.38 7.44 1.15 1.97.77 3.44 1.98 4.4 3.64.97 1.66 1.45 3.88 1.45 6.65v18.44h-5.09z" class="cls-3"/>
      <path id="path18" d="M102.38 47.32V17.83h5.09v12.31h-.22c0-4.23.93-7.39 2.79-9.49 1.86-2.1 4.61-3.15 8.26-3.15h1.04v5.63h-1.97c-2.77 0-4.9.74-6.37 2.22-1.48 1.48-2.22 3.58-2.22 6.32v15.65z" class="cls-3"/>
      <path id="path20" d="M136.77 48.3c-2.52 0-4.71-.43-6.59-1.29-1.88-.86-3.43-2.02-4.65-3.5a15.48 15.48 0 0 1-2.74-4.92c-.6-1.81-.9-3.64-.9-5.5v-.98c0-1.93.31-3.8.93-5.61a15.02 15.02 0 0 1 2.79-4.9c1.24-1.46 2.78-2.62 4.62-3.47 1.84-.86 4-1.29 6.48-1.29 2.48 0 4.77.47 6.76 1.42 1.99.95 3.58 2.29 4.79 4.02 1.2 1.73 1.88 3.75 2.02 6.04h-6.18c-.22-1.64-.96-3.03-2.22-4.16-1.26-1.13-2.98-1.7-5.17-1.7-1.9 0-3.47.44-4.7 1.31-1.24.88-2.17 2.07-2.79 3.58-.62 1.51-.93 3.26-.93 5.22s.3 3.61.9 5.14c.6 1.53 1.53 2.74 2.79 3.61 1.26.87 2.85 1.31 4.79 1.31 1.5 0 2.78-.26 3.86-.79s1.94-1.24 2.6-2.13c.66-.89 1.04-1.92 1.15-3.09h6.24c-.11 2.37-.78 4.42-2.02 6.15-1.24 1.73-2.88 3.08-4.92 4.05-2.04.97-4.34 1.45-6.89 1.45z" class="cls-3"/>
      <path id="path22" d="M156.5 47.32V7.38h6.4v23.58h-1.31c0-2.92.37-5.42 1.12-7.52.75-2.1 1.9-3.7 3.45-4.81 1.55-1.11 3.51-1.67 5.88-1.67h.27c3.46 0 6.08 1.17 7.85 3.5 1.77 2.33 2.65 5.69 2.65 10.07v16.79h-6.4V29.6c0-2.11-.61-3.78-1.83-5.01-1.22-1.22-2.8-1.83-4.73-1.83-2.08 0-3.76.69-5.03 2.08-1.28 1.39-1.92 3.21-1.92 5.47v17.01z" class="cls-3"/>
      <path id="path24" d="M220.29 48.3c-2.41 0-4.55-.53-6.43-1.59s-3.36-2.59-4.43-4.6c-1.08-2.01-1.67-4.43-1.78-7.28h1.31V47.3h-5.09V7.38h6.4v19.7l-1.91 3.56c.11-3.14.72-5.72 1.83-7.74 1.11-2.02 2.58-3.53 4.4-4.51 1.82-.98 3.86-1.48 6.13-1.48 2.08 0 3.97.38 5.66 1.15 1.69.77 3.15 1.83 4.38 3.2 1.22 1.37 2.15 2.96 2.79 4.79.64 1.82.96 3.79.96 5.91v1.09c0 2.12-.33 4.08-.98 5.91-.66 1.82-1.61 3.44-2.87 4.84a13.63 13.63 0 0 1-4.51 3.31c-1.75.8-3.7 1.2-5.85 1.2zm-1.15-5.53c1.79 0 3.36-.44 4.7-1.31 1.35-.88 2.4-2.09 3.15-3.64.75-1.55 1.12-3.33 1.12-5.33s-.38-3.82-1.15-5.33c-.77-1.51-1.81-2.69-3.15-3.53-1.33-.84-2.89-1.26-4.68-1.26-1.61 0-3.1.37-4.49 1.09-1.39.73-2.5 1.78-3.34 3.15-.84 1.37-1.26 3.02-1.26 4.95v2.35c0 1.86.43 3.46 1.29 4.79a8.54 8.54 0 0 0 3.36 3.04c1.39.69 2.86 1.04 4.43 1.04z" class="cls-3"/>
      <path id="path26" d="m246.38 46.66-10.01-28.83h6.51l9.57 28.83zm-7.49 12.2v-5.63h4.87c1.13 0 2.1-.14 2.9-.41.8-.27 1.46-.75 1.97-1.42.51-.68.93-1.58 1.26-2.71l8.59-30.85h6.18l-9.3 32.39c-.58 2.04-1.4 3.7-2.43 4.98-1.04 1.28-2.35 2.21-3.94 2.79-1.59.58-3.49.88-5.72.88h-4.38zm9.08-12.2v-5.2h6.35v5.2z" class="cls-3"/>
    </g>
  </g>
</svg>
