<svg xmlns="http://www.w3.org/2000/svg" viewBox="0 0 268.118 30">
  <path fill="#003dff" d="M250.51 4.288h-3.048a.356.356 0 0 1-.356-.356V.834c0-.174.127-.324.3-.352l3.047-.478a.355.355 0 0 1 .403.295v3.628c0 .197-.16.357-.356.357zm-49.923 12.235V.36a.356.356 0 0 0-.356-.356h-.056l-3.028.478a.353.353 0 0 0-.3.352l.01 16.392c0 .773 0 5.56 5.755 5.728.197.005.361-.15.366-.347v-2.456a.354.354 0 0 0-.305-.352c-2.09-.239-2.09-2.854-2.09-3.28zM250.514 6.29h-3.047a.355.355 0 0 0-.356.352v15.965c0 .197.16.352.356.352h3.047c.197 0 .352-.16.352-.352V6.642a.351.351 0 0 0-.352-.352zm-8.31 10.233V.36a.356.356 0 0 0-.357-.356h-.056l-3.028.478a.353.353 0 0 0-.3.352l.009 16.392c0 .773 0 5.56 5.756 5.728.197.005.361-.15.366-.347v-2.456a.354.354 0 0 0-.305-.352c-2.09-.239-2.09-2.854-2.09-3.28z"/>
  <path fill="#003dff" fill-rule="evenodd" d="M231.83 6.867c.956.398 1.776.96 2.447 1.696.68.736 1.204 1.613 1.584 2.644.403 1.031.6 2.24.6 3.502 0 1.26-.183 2.212-.553 3.253-.37 1.04-.895 1.926-1.575 2.662a6.953 6.953 0 0 1-2.447 1.707c-.956.398-2.428.628-3.164.628-.736-.01-2.199-.22-3.145-.628a7.199 7.199 0 0 1-2.438-1.707c-.68-.736-1.205-1.622-1.584-2.662a8.892 8.892 0 0 1-.572-3.253c0-1.261.173-2.47.553-3.502.384-1.031.919-1.908 1.603-2.644a7.134 7.134 0 0 1 2.447-1.697c.947-.403 1.987-.59 3.112-.59s2.17.197 3.122.59zm-3.103 12.942c1.232 0 2.198-.478 2.887-1.42.69-.952 1.031-2.04 1.031-3.67 0-1.632-.351-2.959-1.04-3.892-.69-.942-1.65-1.41-2.888-1.41s-2.198.464-2.883 1.41c-.689.943-1.022 2.279-1.022 3.891 0 1.613.343 2.728 1.032 3.67.689.957 1.654 1.42 2.887 1.42zM187.069 6.285c-2.902 0-5.456 1.528-6.942 3.844a8.697 8.697 0 0 0-1.379 4.725 8.652 8.652 0 0 0 3.094 6.666c.174.154.361.3.558.426a4.825 4.825 0 0 0 2.892.802h.066c.06 0 .122-.01.187-.014h.014l.202-.028h.019c1.973-.305 3.693-1.852 4.251-3.77v3.47c0 .196.16.356.352.356h3.023c.197 0 .352-.16.352-.352V6.642a.351.351 0 0 0-.352-.352h-6.337zm2.958 12.413c-.732.61-1.679.839-2.691.91h-.028a2.9 2.9 0 0 1-.202.008c-2.536 0-4.626-2.151-4.626-4.762 0-.614.117-1.2.323-1.74.675-1.748 2.325-2.985 4.261-2.985h2.958v8.569zM261.43 6.285h6.338c.197 0 .351.16.351.352v15.769c0 .196-.16.351-.351.351h-3.024a.351.351 0 0 1-.351-.351v-3.47c-.563 1.918-2.278 3.465-4.252 3.77-.014 0-.023 0-.037.004-.057.01-.108.014-.164.019a.274.274 0 0 0-.061.01l-.16.013a4.835 4.835 0 0 1-2.958-.797 5.009 5.009 0 0 1-.557-.426c-1.89-1.57-3.094-3.97-3.094-6.666a8.71 8.71 0 0 1 1.378-4.725c1.49-2.315 4.04-3.843 6.942-3.843zm.267 13.322c1.013-.07 1.96-.295 2.691-.905v-8.568h-2.958c-1.936 0-3.59 1.237-4.26 2.986a4.788 4.788 0 0 0-.324 1.739c0 2.606 2.09 4.762 4.626 4.762.07 0 .146 0 .216-.005h.014zM212.241 6.285c-2.902 0-5.457 1.528-6.943 3.844a8.686 8.686 0 0 0-1.326 3.755 9.17 9.17 0 0 0 0 1.964 8.638 8.638 0 0 0 3.037 5.672c.179.154.361.3.558.426a4.835 4.835 0 0 0 5.56-.15c.98-.694 1.734-1.71 2.067-2.864v3.014h-.005v.666c0 1.308-.342 2.297-1.04 2.962-.699.666-1.862.999-3.493.999a27.81 27.81 0 0 1-2.794-.146.352.352 0 0 0-.374.254l-.77 2.587a.354.354 0 0 0 .24.44c.014.005.033.01.051.01 1.29.183 2.55.281 3.277.281 2.934 0 5.11-.647 6.534-1.93 1.29-1.163 1.988-2.935 2.11-5.312V6.641a.351.351 0 0 0-.352-.351h-6.337zm2.957 3.844s.038 8.348 0 8.602c-.726.585-1.626.815-2.61.88h-.029c-.145.01-.29.01-.436 0-2.423-.126-4.471-2.235-4.471-4.762 0-.614.117-1.2.323-1.739.675-1.748 2.325-2.986 4.26-2.986h2.959z"/>
  <path fill="#003dff" d="M136.373 14.77C136.491 6.609 143.166.004 151.36.004h14.42c.313 0 .566.253.566.567V29.4c0 .516-.61.792-.998.45l-9.014-7.992a8.446 8.446 0 0 1-5.166 1.617c-4.626-.103-8.414-4.087-8.292-8.714.127-4.744 4.177-8.531 9.014-8.236 4.223.258 7.64 3.657 7.931 7.875a8.32 8.32 0 0 1-.126 2.157.353.353 0 0 1-.408.28.383.383 0 0 1-.169-.084l-1.795-1.593a1.024 1.024 0 0 1-.333-.666 5.663 5.663 0 0 0-5.634-5.156 5.66 5.66 0 0 0-5.64 6.089c.207 2.78 2.462 5.015 5.241 5.208a5.665 5.665 0 0 0 4.917-2.24.514.514 0 0 1 .713-.109c.01.01.023.019.033.028l6.9 6.132V2.83h-12.16c-6.637 0-12.051 5.348-12.159 11.962-.108 6.699 5.306 12.272 12.005 12.356a12.15 12.15 0 0 0 4.903-.96.994.994 0 0 1 1.04.173l1.402 1.242a.35.35 0 0 1 .028.497c-.028.028-.056.056-.094.075a14.831 14.831 0 0 1-7.218 1.8c-8.293-.047-15.02-6.919-14.897-15.206z"/>
  <g fill="#36395a">
    <path d="M7.514 22.645c-1.608 0-2.972-.263-4.092-.783-1.12-.52-1.969-1.238-2.55-2.156C.29 18.79 0 17.75 0 16.588h3.028c0 .53.145 1.05.436 1.566.29.51.76.938 1.411 1.27.652.333 1.528.502 2.64.502 1.007 0 1.841-.145 2.498-.436.656-.29 1.143-.675 1.462-1.153a2.835 2.835 0 0 0 .473-1.59c0-.716-.309-1.302-.923-1.757-.614-.455-1.538-.731-2.77-.834l-1.87-.179c-1.726-.135-3.104-.67-4.13-1.603-1.027-.933-1.538-2.156-1.538-3.68 0-1.162.277-2.17.835-3.028.553-.853 1.335-1.528 2.348-2.01 1.008-.488 2.18-.732 3.51-.732s2.556.244 3.563.732c1.008.487 1.791 1.171 2.349 2.053.553.88.834 1.926.834 3.14h-3.028c0-.548-.131-1.064-.398-1.551s-.67-.886-1.22-1.19c-.548-.31-1.246-.46-2.104-.46s-1.5.145-2.039.436c-.539.29-.947.665-1.219 1.13-.271.459-.412.956-.412 1.485 0 .633.239 1.19.717 1.678s1.214.774 2.203.858l1.847.155c1.317.103 2.456.38 3.422.834.966.455 1.72 1.055 2.255 1.81.539.754.806 1.66.806 2.718 0 1.163-.314 2.19-.938 3.075-.623.891-1.495 1.58-2.615 2.077-1.12.497-2.433.745-3.938.745zM24.169 22.645c-1.196 0-2.24-.207-3.127-.614-.89-.413-1.617-.952-2.18-1.627a6.954 6.954 0 0 1-1.27-2.283 8.217 8.217 0 0 1-.422-2.601v-.488c0-.905.14-1.781.422-2.63a6.87 6.87 0 0 1 1.27-2.282c.563-.675 1.28-1.214 2.143-1.618.862-.403 1.865-.604 3.014-.604 1.486 0 2.728.323 3.717.975.989.651 1.734 1.49 2.231 2.526a7.638 7.638 0 0 1 .746 3.347v1.205H18.455v-2.025h10.233l-.82 1.026c0-.923-.146-1.72-.437-2.395-.29-.675-.717-1.195-1.284-1.566-.563-.365-1.275-.553-2.128-.553-.853 0-1.632.207-2.232.614-.6.413-1.04.975-1.33 1.693-.291.717-.437 1.565-.437 2.54 0 .924.146 1.749.436 2.475.29.727.746 1.299 1.36 1.72.614.418 1.401.629 2.357.629s1.744-.211 2.358-.628c.614-.418.994-.91 1.13-1.477h2.794c-.188.942-.567 1.762-1.14 2.46-.571.704-1.293 1.238-2.165 1.618-.872.375-1.866.563-2.977.563zM37.477 22.546c-1.008 0-1.89-.173-2.64-.525a3.93 3.93 0 0 1-1.743-1.537c-.413-.675-.614-1.482-.614-2.424 0-.989.234-1.814.703-2.46.469-.652 1.139-1.14 2.01-1.463.873-.324 1.913-.488 3.127-.488h3.46v1.974h-3.54c-.904 0-1.598.215-2.076.651-.478.436-.717 1.003-.717 1.707s.239 1.26.717 1.678c.478.417 1.172.628 2.077.628.53 0 1.036-.099 1.514-.295a2.63 2.63 0 0 0 1.19-.99c.314-.459.492-1.11.525-1.95l.77.999c-.085.975-.32 1.79-.704 2.447a3.893 3.893 0 0 1-1.59 1.514c-.674.351-1.5.525-2.474.525zm4.486-.36v-4.13h-.488v-4.67c0-.852-.22-1.504-.666-1.95-.445-.444-1.101-.665-1.973-.665a66.978 66.978 0 0 0-3.295.09c-.558.027-1.046.056-1.477.088V8.357c.375-.033.792-.065 1.242-.089.455-.023.924-.047 1.411-.066a36.05 36.05 0 0 1 1.397-.023c1.402 0 2.564.178 3.488.54.923.36 1.612.927 2.062 1.705.455.778.68 1.82.68 3.118v8.643h-2.386zM47.99 22.185V8.362h2.387v5.77h-.104c0-1.983.436-3.464 1.308-4.448.872-.985 2.161-1.477 3.872-1.477h.488v2.64h-.924c-1.298 0-2.297.346-2.986 1.04-.694.694-1.04 1.678-1.04 2.962v7.336zM64.11 22.645c-1.18 0-2.207-.202-3.088-.605-.881-.403-1.608-.947-2.18-1.64a7.256 7.256 0 0 1-1.284-2.307 8.138 8.138 0 0 1-.422-2.578v-.46c0-.904.145-1.78.436-2.63a7.04 7.04 0 0 1 1.308-2.296 6.224 6.224 0 0 1 2.165-1.627c.863-.403 1.875-.604 3.038-.604 1.162 0 2.236.22 3.169.665a5.656 5.656 0 0 1 2.245 1.885c.562.81.881 1.758.947 2.831h-2.897a3.103 3.103 0 0 0-1.04-1.95c-.591-.53-1.398-.797-2.424-.797-.89 0-1.627.206-2.203.614-.582.413-1.017.97-1.308 1.678-.29.708-.436 1.528-.436 2.447s.14 1.692.422 2.41c.281.717.717 1.284 1.308 1.692.59.408 1.336.614 2.245.614.703 0 1.303-.122 1.81-.37s.909-.582 1.218-.999c.31-.417.488-.9.54-1.448h2.924c-.051 1.11-.365 2.071-.947 2.882-.581.811-1.35 1.444-2.306 1.899-.956.455-2.034.68-3.23.68zM73.36 22.185V3.463h3v11.053h-.615c0-1.368.174-2.54.525-3.525.352-.984.89-1.734 1.618-2.254.726-.52 1.645-.783 2.756-.783h.126c1.622 0 2.85.548 3.68 1.64.83 1.093 1.242 2.668 1.242 4.72v7.871h-3V13.88c0-.99-.286-1.772-.858-2.348-.571-.572-1.312-.858-2.217-.858-.975 0-1.762.323-2.358.975-.6.651-.9 1.504-.9 2.564v7.973zM103.26 22.645c-1.129 0-2.132-.249-3.013-.746s-1.575-1.214-2.077-2.156c-.506-.942-.782-2.076-.834-3.412h.614v5.845h-2.386V3.463h3v9.235l-.895 1.668c.051-1.471.337-2.68.858-3.628.52-.947 1.209-1.654 2.062-2.114.853-.46 1.81-.693 2.873-.693.975 0 1.861.178 2.654.539a6.15 6.15 0 0 1 2.053 1.5 6.616 6.616 0 0 1 1.308 2.245c.3.853.45 1.776.45 2.77v.511c0 .994-.155 1.913-.46 2.77a6.838 6.838 0 0 1-1.345 2.27 6.39 6.39 0 0 1-2.114 1.55c-.82.376-1.735.563-2.742.563zm-.538-2.593c.839 0 1.575-.206 2.203-.614a4.136 4.136 0 0 0 1.477-1.706c.351-.726.525-1.56.525-2.498s-.179-1.79-.54-2.499c-.36-.708-.848-1.26-1.476-1.654-.623-.394-1.355-.591-2.194-.591-.754 0-1.453.173-2.104.51a3.981 3.981 0 0 0-1.566 1.477c-.394.643-.59 1.416-.59 2.32V15.9c0 .872.2 1.622.604 2.246a4.003 4.003 0 0 0 1.575 1.425c.652.323 1.34.487 2.077.487zM115.49 21.876l-4.692-13.514h3.052l4.486 13.514zm-3.51 5.719v-2.64h2.282c.53 0 .985-.065 1.36-.192.375-.126.684-.351.923-.665.24-.319.436-.74.59-1.27l4.028-14.461h2.896L119.7 23.549c-.272.957-.656 1.735-1.14 2.335a4.174 4.174 0 0 1-1.846 1.308c-.745.271-1.636.412-2.681.412h-2.053zm4.256-5.72v-2.437h2.976v2.438z"/>
  </g>
</svg>
