<svg xmlns="http://www.w3.org/2000/svg" viewBox="0 0 128 128">
  <path class="logo__letters" d="M39.555 50.355c-6.853 0-11.907 5.133-11.907 13.602 0 8.469 5.027 13.602 11.907 13.602 5.818 0 10.073-3.648 10.94-8.883l-4.034-.012c-.686 3.389-3.532 5.252-6.88 5.252-4.541 0-7.968-3.533-7.968-9.957 0-6.424 3.414-9.955 7.979-9.955 3.373 0 6.207 1.902 6.865 5.328l.004-.002h4.033c-.906-5.664-5.34-8.975-10.94-8.975zm38.748.362-.002.004h.002zm0 .004v26.478H96.07v-3.44H82.297v-8.105h12.752V62.23H82.297V54.16h13.617v-3.44zm-24.823 0v17.521c0 5.974 4.651 9.4 10.51 9.4 5.86 0 10.528-3.426 10.528-9.4V50.721h-3.995v17.457c0 3.711-2.985 5.793-6.529 5.793s-6.517-2.082-6.517-5.793V50.72Z"/>
  <path class="logo__inner" d="M64 9.586C33.947 9.586 9.586 33.947 9.586 64S33.947 118.414 64 118.414 118.414 94.053 118.414 64 94.05 9.586 64 9.586Zm0 105.973c-28.476 0-51.562-23.086-51.562-51.562S35.524 12.438 64 12.438 115.562 35.524 115.562 64 92.476 115.562 64 115.562z"/>
  <path class="logo__outer" d="M64 0C28.653 0 0 28.653 0 64s28.653 64 64 64 64-28.653 64-64S99.347 0 64 0Zm0 121.843C32.054 121.843 6.157 95.946 6.157 64 6.157 32.054 32.054 6.157 64 6.157c31.946 0 57.843 25.897 57.843 57.843 0 31.946-25.897 57.843-57.843 57.843z"/>
</svg>
