<svg width="202" height="30" fill="none" xmlns="http://www.w3.org/2000/svg"><path d="M198.629 25.663h-34.857a5.035 5.035 0 0 1-2.393 2.941l35.19-.73a2.391 2.391 0 0 0 2.296-1.923.24.24 0 0 0-.236-.288Z" fill="gold"/><path d="M163.772 25.663h-34.881l-.001.015c-.388 1.748-2.238 2.994-3.271 3.669l19.56-.406 16.2-.337a5.035 5.035 0 0 0 2.393-2.941Z" fill="#00D1FF"/><path d="M98.86 25.663a5.034 5.034 0 0 0-4.736 3.342 4.939 4.939 0 0 0-.204.706.241.241 0 0 0 .242.289l23.926-.497 7.531-.156a5.038 5.038 0 0 0 3.271-3.669l.001-.015h-30.03Z" fill="#6559FF"/><path d="M196.289 12.272h-5.88a.243.243 0 0 1-.208-.368 4.652 4.652 0 0 1 1.298-1.428c.622-.443 1.347-.664 2.177-.664.839 0 1.506.21 2 .629.433.366.716.879.85 1.537a.244.244 0 0 1-.237.294Zm3.134-4.637c-1.343-1.31-3.089-1.966-5.238-1.966-1.395 0-2.698.248-3.909.743-1.212.495-2.239 1.168-3.083 2.021a9.34 9.34 0 0 0-1.993 3.047 9.764 9.764 0 0 0-.728 3.761c0 1.31.292 2.503.877 3.577a6.476 6.476 0 0 0 2.502 2.552c1.084.627 2.309.94 3.676.94 2.017 0 3.834-.511 5.45-1.534 1.392-.88 2.349-1.761 3.1-3.15a.485.485 0 0 0-.426-.715h-4.031a.981.981 0 0 0-.692.3c-.246.247-.495.36-.908.565-.552.274-1.164.279-1.814.279-.924 0-1.631-.236-2.121-.707-.491-.472-.74-1.169-.75-2.093h9.686c1.277 0 2.354-.994 2.41-2.27.006-.14.008-.279.007-.416 0-1.98-.672-3.624-2.015-4.934ZM59.889 12.272h-5.88a.243.243 0 0 1-.208-.368 4.645 4.645 0 0 1 1.297-1.428c.623-.443 1.348-.664 2.178-.664.838 0 1.506.21 2 .629.433.366.716.879.85 1.537a.244.244 0 0 1-.237.294Zm-2.104-6.603c-1.395 0-2.699.248-3.91.743-1.21.495-2.238 1.168-3.082 2.021A9.327 9.327 0 0 0 48.8 11.48a9.77 9.77 0 0 0-.728 3.761c0 1.31.292 2.503.876 3.577a6.478 6.478 0 0 0 2.503 2.552c1.084.627 2.309.94 3.676.94 2.017 0 3.833-.511 5.45-1.534 1.392-.88 2.349-1.761 3.1-3.15a.484.484 0 0 0-.426-.715H59.22a.98.98 0 0 0-.692.3c-.246.247-.495.36-.908.565-.552.274-1.164.279-1.814.279-.924 0-1.631-.236-2.121-.707-.443-.426-.69-1.037-.74-1.832a.244.244 0 0 1 .241-.261h9.435c1.276 0 2.354-.994 2.41-2.27.006-.14.008-.279.007-.416 0-1.98-.672-3.624-2.015-4.934s-3.09-1.966-5.238-1.966ZM48.803 8.636l.33-1.654a.483.483 0 0 0-.473-.577h-2.852a.241.241 0 0 1-.237-.287l.144-.76c.074-.405.254-.725.537-.961.282-.235.631-.353 1.046-.353h.416A2.413 2.413 0 0 0 50.08 2.11l.31-1.532A.483.483 0 0 0 49.917 0h-3.156c-1.631 0-2.946.42-3.945 1.258-1 .84-1.65 2.036-1.951 3.591l-.272 1.362a.242.242 0 0 1-.237.194h-1.273c-.69 0-1.284.487-1.42 1.163l-.486 2.43a.483.483 0 0 0 .474.577h1.718c.152 0 .266.14.236.289l-2.074 10.374a.482.482 0 0 0 .473.577h2.622c1.15 0 2.14-.812 2.366-1.94l1.821-9.106a.241.241 0 0 1 .237-.194h1.387c1.15 0 2.14-.812 2.366-1.94ZM144.367.537h-2.608c-1.15 0-2.141.812-2.366 1.94l-3.521 17.607a1.447 1.447 0 0 0 1.419 1.731h3.013c.23 0 .428-.162.473-.388l4.063-20.313a.483.483 0 0 0-.473-.577ZM156.34 6.178h-3.148a.24.24 0 0 1-.236-.288l.733-3.702a.482.482 0 0 0-.473-.576h-.301a.482.482 0 0 0-.324.125l-8.373 7.594-.125.625a.482.482 0 0 0 .473.577h2.043a.24.24 0 0 1 .237.287l-.324 1.607a183.71 183.71 0 0 0-.643 3.33c-.09.514-.135.95-.135 1.308 0 1.461.46 2.618 1.379 3.47.919.854 2.184 1.28 3.796 1.28h.935c1.15 0 2.14-.812 2.366-1.94l.429-2.148a.482.482 0 0 0-.473-.577h-1.32c-.565 0-.999-.13-1.301-.39-.302-.259-.452-.633-.452-1.123 0-.23.312-1.867.936-4.91a.243.243 0 0 1 .236-.194h1.809a2.412 2.412 0 0 0 2.366-1.944l.364-1.834a.483.483 0 0 0-.474-.577ZM77.912 6.178h-3.148a.241.241 0 0 1-.237-.288l.734-3.702a.483.483 0 0 0-.473-.576h-.301a.483.483 0 0 0-.324.125L65.789 9.33l-.124.625a.483.483 0 0 0 .473.577h2.043a.24.24 0 0 1 .237.287l-.324 1.607c-.34 1.707-.554 2.816-.643 3.33-.09.514-.135.95-.135 1.308 0 1.461.46 2.618 1.379 3.47.919.854 2.184 1.28 3.796 1.28h.934c1.15 0 2.14-.812 2.366-1.94l.43-2.148a.483.483 0 0 0-.473-.577h-1.32c-.566 0-1-.13-1.3-.39-.303-.259-.453-.633-.453-1.123 0-.23.312-1.867.935-4.91a.243.243 0 0 1 .237-.194h1.808a2.413 2.413 0 0 0 2.367-1.944l.364-1.834a.483.483 0 0 0-.474-.577ZM173.288 6.178h-2.62a2.412 2.412 0 0 0-2.366 1.942l-1.297 6.513c-.179.886-.544 1.605-1.095 2.156-.552.551-1.205.827-1.958.827-1.339 0-2.008-.598-2.008-1.796 0-.15.014-.334.043-.55.045-.301.605-3.14 1.679-8.514a.482.482 0 0 0-.472-.578h-2.62a2.412 2.412 0 0 0-2.364 1.929l-.352 1.733c-.547 2.658-.874 4.289-.982 4.892a9.233 9.233 0 0 0-.163 1.626c0 1.772.598 3.207 1.796 4.305 1.196 1.098 2.789 1.647 4.778 1.647 2.3 0 4.223-.601 5.769-1.803 1.545-1.202 2.535-2.882 2.969-5.04l1.737-8.712a.483.483 0 0 0-.474-.577ZM136.302 6.178h-2.621c-1.15 0-2.141.813-2.366 1.942l-1.296 6.513c-.179.886-.544 1.605-1.096 2.156-.551.551-1.204.827-1.958.827-1.338 0-2.007-.598-2.007-1.796 0-.15.014-.334.042-.55.045-.301.605-3.14 1.68-8.514a.483.483 0 0 0-.473-.578h-2.619a2.41 2.41 0 0 0-2.364 1.929l-.352 1.733c-.547 2.658-.875 4.289-.983 4.892a9.233 9.233 0 0 0-.163 1.626c0 1.772.599 3.207 1.796 4.305 1.197 1.098 2.79 1.647 4.779 1.647 2.299 0 4.222-.601 5.768-1.803 1.546-1.202 2.535-2.882 2.969-5.04l1.737-8.712a.482.482 0 0 0-.473-.577ZM185.229 8.93l.446-2.245a.483.483 0 0 0-.473-.577h-.925c-1.698 0-3.156.483-4.375 1.45-.133.106-.332.036-.378-.127l-.252-.9a.484.484 0 0 0-.465-.352h-1.077c-1.15 0-2.141.812-2.366 1.94l-2.391 11.965a1.448 1.448 0 0 0 1.42 1.732h3.013c.23 0 .428-.163.473-.388l1.577-7.855c.216-.952.589-1.64 1.117-2.064.527-.424 1.272-.636 2.233-.636h.056a2.414 2.414 0 0 0 2.367-1.943ZM10.646 1.13c-1.744 0-3.264.269-4.56.806-1.296.537-2.32 1.367-3.075 2.488-.754 1.122-1.13 2.474-1.13 4.058 0 1.96 1.207 3.378 2.961 4.128 1.32.565 2.763.775 4.118 1.247 1.125.392 2.049 1.202 1.453 2.46-.448.945-1.571 1.379-2.563 1.379-1.461 0-2.102-1.25-2.337-1.904a.48.48 0 0 0-.544-.307l-4.382.852a.727.727 0 0 0-.582.797c.154 1.366.764 2.874 1.84 3.74 1.258 1.013 2.98 1.52 5.168 1.52 1.8 0 3.39-.292 4.771-.877 2.434-1.03 4.154-3.299 4.439-5.938.128-1.182-.1-2.392-.704-3.382a4.408 4.408 0 0 0-1.262-1.34c-1.59-1.098-3.6-1.233-5.364-1.914-.537-.207-1.21-.485-1.414-1.075-.264-.76.238-1.55.911-1.894.586-.299 1.42-.371 2.059-.227.77.173 1.218.76 1.296 1.473.03.273.3.455.57.402l4.267-.829a.728.728 0 0 0 .583-.787C16.758 1.912 12.6 1.13 10.646 1.13ZM95.203 6.178h-2.587c-.848 0-1.635.446-2.07 1.174l-4.059 6.784a.241.241 0 0 1-.444-.076L84.84 8.112a2.413 2.413 0 0 0-2.365-1.934H80.3a.965.965 0 0 0-.935 1.202l3.315 13.117-.653 1.095-1.124 1.888a4.817 4.817 0 0 0-.644 1.907 4.817 4.817 0 0 0 .496 2.766l.298.58.518 1.01c.113.22.4.253.564.09a.36.36 0 0 0 .053-.064l.623-1 .693-1.11 1.416-2.272.249-.398.167-.269 1.225-1.956 3.886-6.207 5.574-8.901a.965.965 0 0 0-.818-1.478ZM112.043 6.998c.591.518.998 1.194 1.223 2.024a.485.485 0 0 0 .557.355l4.002-.764a.724.724 0 0 0 .584-.794c-.136-1.201-.79-3.76-3.814-5.677-1.315-.834-2.878-1.131-4.546-1.131-1.725 0-3.365.318-4.92.954-1.555.636-2.894 1.499-4.015 2.587-1.122 1.09-2.013 2.4-2.672 3.93a12.175 12.175 0 0 0-.99 4.872c0 1.677.375 3.193 1.124 4.545 2.114 3.815 7.021 5.18 11.056 4.221 3.454-.822 8.048-3.643 8.663-9.1.076-.677-.642-.824-.976-.257-2.458 4.18-9.21 7.292-12.882 3.653-2.476-2.453-1.584-5.772.059-7.867 1.634-2.082 5.31-3.506 7.547-1.55ZM28.632 16.315c-.853.886-1.855 1.33-3.004 1.33-.905 0-1.626-.264-2.163-.792-.538-.528-.806-1.226-.806-2.093 0-1.197.421-2.236 1.265-3.117.843-.882 1.835-1.322 2.976-1.322.905 0 1.633.266 2.184.799.552.532.828 1.232.828 2.1 0 1.178-.427 2.21-1.28 3.095Zm6.13-10.137h-1.658a.965.965 0 0 0-.818.453l-.5.798a.242.242 0 0 1-.378.039c-1.195-1.19-2.722-1.785-4.579-1.785a9.176 9.176 0 0 0-3.605.729 9.603 9.603 0 0 0-3.011 1.986c-.858.84-1.541 1.861-2.05 3.068a9.83 9.83 0 0 0-.764 3.86c0 2.083.648 3.768 1.944 5.054 1.296 1.287 2.943 1.93 4.942 1.93 1.757 0 3.378-.496 4.862-1.49a.241.241 0 0 1 .373.148l.099.465a.483.483 0 0 0 .472.382h1.334c1.15 0 2.141-.812 2.366-1.94L36.182 7.91a1.448 1.448 0 0 0-1.42-1.732Z" fill="#293745"/></svg>
