<svg version="1.1" id="Laag_1" xmlns="http://www.w3.org/2000/svg" xmlns:xlink="http://www.w3.org/1999/xlink" x="0px" y="0px"
	 width="1920px" height="1080px" viewBox="0 0 1920 1080" enable-background="new 0 0 1920 1080" xml:space="preserve">
<g>
	<path fill="#FF7B00" d="M600.639,508.243h-92.63V408.234h-65.322V672.1h65.322V562.126h92.63V672.1h65.315V408.234h-65.315V508.243
		z M755.776,560.281h115.508v-50.927H755.776v-47.238h134.697v-53.883H690.455V672.1h202.234v-55.357H755.776V560.281z
		 M980.31,408.234h-65.322V672.1h183.779v-55.357H980.31V408.234z M1116.643,672.1h65.315V408.234h-65.315V672.1z"/>
	<path fill="#FF7B00" d="M1339.884,402.74c-75.9,0-137.426,61.523-137.426,137.426c0,75.897,61.526,137.426,137.426,137.426
		s137.43-61.529,137.43-137.426C1477.313,464.263,1415.784,402.74,1339.884,402.74z"/>
</g>
</svg>
