<svg xmlns="http://www.w3.org/2000/svg" data-name="Layer 1" viewBox="0 0 200 94.473">
    <path d="M23.782 50.475v24.506a.095.095 0 0 1-.077.095L.108 79.117a.094.094 0 0 1-.1-.13L23.604 26.29a.094.094 0 0 1 .18.04l-.002 24.143zm3.977-14.123v38.732c0 .047.036.088.083.094l35.345 3.946a.094.094 0 0 0 .096-.133L27.938.053a.094.094 0 0 0-.18.038zm35.157 46.385-39.098 11.73a.098.098 0 0 1-.068 0L.124 82.737a.093.093 0 0 1 .041-.178H62.89a.094.094 0 0 1 .027.178zm28.125-5.526a.68.68 0 0 1-.208-.507V36.555c0-.198.067-.365.208-.505a.688.688 0 0 1 .503-.208h5.464c.2 0 .367.07.507.208a.691.691 0 0 1 .207.504v40.15a.686.686 0 0 1-.207.507.693.693 0 0 1-.506.208h-5.463a.686.686 0 0 1-.505-.208zm19.716-.536c-1.88-.732-3.336-1.743-4.364-3.029-1.03-1.286-1.546-2.72-1.546-4.306v-.535c0-.197.07-.366.21-.504a.686.686 0 0 1 .503-.208h5.227a.693.693 0 0 1 .506.208.693.693 0 0 1 .207.504v.12c0 .99.545 1.85 1.633 2.581 1.09.736 2.466 1.101 4.128 1.101 1.584 0 2.87-.326 3.86-.98.991-.653 1.487-1.476 1.487-2.466 0-.91-.408-1.592-1.218-2.047-.811-.457-2.13-.942-3.95-1.457l-2.257-.711c-2.018-.595-3.722-1.228-5.107-1.9a10.193 10.193 0 0 1-3.505-2.764c-.95-1.165-1.425-2.66-1.425-4.482 0-2.773 1.088-4.98 3.265-6.624 2.178-1.642 5.05-2.464 8.613-2.464 2.415 0 4.534.386 6.356 1.157 1.82.772 3.227 1.842 4.218 3.209.988 1.365 1.483 2.92 1.483 4.66a.686.686 0 0 1-.208.504.683.683 0 0 1-.504.211h-5.05a.682.682 0 0 1-.503-.21.68.68 0 0 1-.208-.503c0-1.03-.507-1.89-1.514-2.584-1.011-.692-2.387-1.039-4.129-1.039-1.543 0-2.802.287-3.772.861-.97.575-1.455 1.376-1.455 2.405 0 .95.465 1.673 1.395 2.168.93.496 2.485 1.039 4.664 1.634l1.306.356c2.098.634 3.861 1.277 5.287 1.93a10.31 10.31 0 0 1 3.622 2.733c.992 1.168 1.486 2.681 1.486 4.542 0 2.812-1.109 5.018-3.327 6.623-2.218 1.602-5.167 2.405-8.848 2.405-2.497 0-4.684-.365-6.566-1.099zm40.689-24.232a.686.686 0 0 1-.506.208h-6.06c-.198 0-.296.1-.296.296V67.26c0 1.505.326 2.595.98 3.269.653.674 1.692 1.009 3.117 1.009h1.782a.693.693 0 0 1 .506.208.694.694 0 0 1 .207.504v4.455c0 .436-.237.693-.713.772l-3.089.06c-3.127 0-5.463-.536-7.008-1.605-1.543-1.067-2.336-3.089-2.376-6.057V52.947c0-.197-.099-.296-.296-.296h-3.385a.683.683 0 0 1-.507-.208.686.686 0 0 1-.207-.504v-4.161c0-.197.069-.365.207-.504a.69.69 0 0 1 .506-.208h3.385c.198 0 .299-.099.299-.297v-6.95c0-.197.068-.365.206-.504a.686.686 0 0 1 .504-.207h5.169a.693.693 0 0 1 .504.207.688.688 0 0 1 .21.504v6.95c0 .198.097.297.295.297h6.059a.693.693 0 0 1 .505.208.688.688 0 0 1 .208.504v4.16a.686.686 0 0 1-.208.504zm7.513-10.72c-.794-.792-1.189-1.801-1.189-3.03 0-1.228.394-2.237 1.189-3.029.79-.792 1.8-1.188 3.028-1.188s2.235.396 3.029 1.188c.792.792 1.187 1.803 1.187 3.03 0 1.228-.394 2.235-1.187 3.029-.794.792-1.801 1.187-3.03 1.187-1.227 0-2.237-.394-3.027-1.187zm-.328 35.488a.686.686 0 0 1-.207-.507V47.72c0-.198.069-.367.207-.505a.686.686 0 0 1 .504-.208h5.464a.693.693 0 0 1 .507.208.69.69 0 0 1 .207.504v28.985a.686.686 0 0 1-.207.504.693.693 0 0 1-.506.21h-5.465a.686.686 0 0 1-.504-.208zm19.719-1.693c-2.236-1.584-3.81-3.782-4.722-6.594a22.41 22.41 0 0 1-1.008-6.77c0-2.535.315-4.79.95-6.771.91-2.771 2.494-4.928 4.75-6.475 2.258-1.543 4.97-2.316 8.137-2.316 3.01 0 5.614.772 7.81 2.315 2.2 1.546 3.752 3.684 4.664 6.417.712 1.9 1.069 4.157 1.069 6.77 0 2.496-.337 4.752-1.01 6.77-.91 2.813-2.473 5.02-4.693 6.624-2.216 1.605-4.849 2.404-7.899 2.404-3.128 0-5.81-.792-8.048-2.374zm11.82-4.811c1.05-.832 1.811-2 2.287-3.505.395-1.307.593-2.97.593-4.988 0-2.14-.198-3.802-.593-4.99-.436-1.505-1.189-2.662-2.258-3.474-1.069-.813-2.374-1.219-3.919-1.219-1.466 0-2.731.406-3.802 1.219-1.07.81-1.84 1.968-2.314 3.475-.399 1.385-.597 3.048-.597 4.99 0 1.94.198 3.6.595 4.987.436 1.505 1.197 2.673 2.288 3.505 1.088.831 2.404 1.247 3.948 1.247 1.465 0 2.723-.416 3.773-1.247z" style="stroke-width:1.57445;fill:#516baa"/>
</svg>
