<svg xmlns="http://www.w3.org/2000/svg" data-name="Layer 1" viewBox="0 0 160 60">
    <path fill="#516baa" d="M31.593 32.057V47.62a.06.06 0 0 1-.049.06l-14.986 2.567a.06.06 0 0 1-.064-.083L31.48 16.697a.06.06 0 0 1 .114.025v15.334zm2.526-8.97v24.599c0 .03.023.056.053.06l22.448 2.506a.06.06 0 0 0 .06-.084L34.234.034a.06.06 0 0 0-.114.024zm22.329 29.46-24.832 7.45a.062.062 0 0 1-.043 0l-15.005-7.45a.059.059 0 0 1 .026-.113h39.837a.06.06 0 0 1 .017.113zm17.862-3.51a.432.432 0 0 1-.132-.322V23.216c0-.126.043-.232.132-.32a.437.437 0 0 1 .32-.133h3.47a.44.44 0 0 1 .322.132.439.439 0 0 1 .132.32v25.5a.436.436 0 0 1-.132.322.44.44 0 0 1-.321.132h-3.47a.436.436 0 0 1-.321-.132zm12.522-.34c-1.194-.465-2.119-1.107-2.772-1.924-.654-.817-.982-1.728-.982-2.735v-.34c0-.125.044-.232.133-.32a.436.436 0 0 1 .32-.132h3.32a.44.44 0 0 1 .321.132.44.44 0 0 1 .132.32v.076c0 .63.346 1.176 1.037 1.64.692.467 1.566.699 2.622.699 1.006 0 1.823-.207 2.452-.622.629-.415.944-.938.944-1.567 0-.578-.26-1.01-.774-1.3-.515-.29-1.352-.598-2.508-.925l-1.434-.452c-1.282-.378-2.364-.78-3.244-1.207a6.474 6.474 0 0 1-2.226-1.754c-.603-.74-.905-1.69-.905-2.847 0-1.761.691-3.163 2.074-4.207 1.383-1.043 3.207-1.565 5.47-1.565 1.534 0 2.88.245 4.037.735 1.155.49 2.05 1.17 2.678 2.038.628.867.942 1.854.942 2.96a.436.436 0 0 1-.132.32.434.434 0 0 1-.32.134h-3.206a.433.433 0 0 1-.32-.133.432.432 0 0 1-.132-.32c0-.654-.322-1.2-.962-1.641-.642-.44-1.516-.66-2.622-.66-.98 0-1.78.182-2.396.547-.616.365-.924.874-.924 1.527 0 .604.295 1.063.886 1.377.59.315 1.578.66 2.962 1.038l.83.226c1.332.403 2.452.81 3.357 1.225.906.415 1.671.994 2.3 1.736.63.742.944 1.703.944 2.885 0 1.786-.704 3.187-2.113 4.206-1.409 1.018-3.281 1.528-5.62 1.528-1.585 0-2.974-.232-4.169-.698zm25.841-15.39a.436.436 0 0 1-.32.132h-3.85c-.125 0-.187.063-.187.188v9.09c0 .956.207 1.648.622 2.076.415.428 1.075.641 1.98.641h1.131a.44.44 0 0 1 .321.132.441.441 0 0 1 .132.32v2.83c0 .277-.15.44-.453.49l-1.961.038c-1.986 0-3.47-.34-4.451-1.02-.98-.677-1.484-1.961-1.51-3.846V33.627c0-.125-.062-.188-.187-.188h-2.15a.434.434 0 0 1-.322-.132.436.436 0 0 1-.132-.32v-2.643c0-.125.044-.232.132-.32a.438.438 0 0 1 .321-.132h2.15c.126 0 .19-.063.19-.189V25.29c0-.125.043-.232.13-.32a.436.436 0 0 1 .32-.132h3.284a.44.44 0 0 1 .32.132.437.437 0 0 1 .133.32v4.414c0 .126.062.189.188.189h3.847a.44.44 0 0 1 .321.132.437.437 0 0 1 .132.32v2.642a.436.436 0 0 1-.132.32zm4.772-6.809c-.504-.503-.755-1.144-.755-1.924s.25-1.42.755-1.924c.502-.502 1.143-.754 1.923-.754s1.42.252 1.924.754c.503.503.754 1.145.754 1.924 0 .78-.25 1.42-.754 1.924-.504.503-1.144.754-1.924.754s-1.42-.25-1.923-.754zm-.208 22.539a.436.436 0 0 1-.132-.322V30.308c0-.126.044-.233.132-.321a.436.436 0 0 1 .32-.132h3.47a.44.44 0 0 1 .322.132.438.438 0 0 1 .132.32v18.409a.436.436 0 0 1-.132.32.44.44 0 0 1-.321.133h-3.47a.436.436 0 0 1-.32-.132zm12.523-1.075c-1.42-1.006-2.42-2.402-2.999-4.188a14.232 14.232 0 0 1-.64-4.3c0-1.61.2-3.042.603-4.3.578-1.76 1.584-3.13 3.017-4.112 1.434-.98 3.157-1.47 5.168-1.47 1.912 0 3.566.489 4.96 1.469 1.398.982 2.384 2.34 2.962 4.076.452 1.207.68 2.64.68 4.3 0 1.584-.215 3.017-.643 4.3-.577 1.785-1.57 3.187-2.98 4.206-1.407 1.019-3.08 1.527-5.016 1.527-1.987 0-3.69-.503-5.112-1.508zm7.508-3.056c.666-.528 1.15-1.27 1.452-2.226.25-.83.377-1.886.377-3.168 0-1.358-.126-2.414-.377-3.17-.277-.954-.755-1.69-1.434-2.205-.68-.516-1.508-.774-2.489-.774-.931 0-1.735.258-2.415.774-.679.515-1.169 1.25-1.47 2.207-.253.88-.379 1.936-.379 3.168 0 1.233.126 2.287.378 3.168.277.956.76 1.698 1.453 2.226.691.528 1.527.792 2.508.792.93 0 1.729-.264 2.396-.792z"/>
</svg>
