<?xml version="1.0" encoding="UTF-8" standalone="no"?> <svg xmlns="http://www.w3.org/2000/svg" xmlns:xlink="http://www.w3.org/1999/xlink" xmlns:serif="http://www.serif.com/" width="100%" height="100%" viewBox="0 0 2255 338" version="1.1" xml:space="preserve" style="fill-rule:evenodd;clip-rule:evenodd;stroke-linejoin:round;stroke-miterlimit:2;"> <g transform="matrix(4.16667,0,0,4.16667,0,0)"> <path d="M245.027,66.714L245.027,38.25C245.027,29.27 251.975,24.526 262.056,24.526C272.137,24.526 279.084,29.27 279.084,38.25L279.084,66.714L268.24,66.714L268.24,41.977C268.24,37.741 266.037,35.37 262.056,35.37C258.074,35.37 255.871,37.741 255.871,41.977L255.871,66.714L245.027,66.714Z" style="fill:rgb(35,31,32);fill-rule:nonzero;"></path> <path d="M329.308,49.262C327.274,60.361 318.718,67.731 307.111,67.731C294.319,67.731 286.271,57.904 286.271,46.129C286.271,34.352 294.319,24.526 307.111,24.526C318.125,24.526 324.395,30.456 327.105,36.725L306.18,52.397L300.928,45.536L311.687,37.233C310.585,35.963 308.637,35.37 306.35,35.37C301.012,35.37 297.115,40.198 297.115,46.129C297.115,51.211 301.097,56.887 307.535,56.887C312.957,56.887 317.447,53.584 318.379,48.077L329.308,49.262Z" style="fill:rgb(35,31,32);fill-rule:nonzero;"></path> <path d="M354.286,25.542L354.286,36.047L346.408,36.047L346.408,51.296C346.408,54.346 347.933,55.871 350.135,55.871L354.286,55.871L354.286,66.714L348.61,66.714C338.613,66.714 335.564,60.784 335.564,51.635L335.564,14.529L346.408,14.529L346.408,25.542L354.286,25.542Z" style="fill:rgb(35,31,32);fill-rule:nonzero;"></path> <path d="M396.101,25.542L396.101,50.28C396.101,54.515 397.71,56.887 401.691,56.887C405.673,56.887 407.622,54.515 407.622,50.28L407.622,25.542L418.974,25.542L418.974,52.991C418.974,62.987 411.519,67.731 403.386,67.731C398.303,67.731 393.897,65.698 390.085,60.784C386.95,65.698 382.546,67.731 377.462,67.731C369.329,67.731 361.874,62.987 361.874,52.991L361.874,25.542L373.227,25.542L373.227,50.28C373.227,54.515 375.175,56.887 379.157,56.887C383.139,56.887 384.748,54.515 384.748,50.28L384.748,25.542L396.101,25.542Z" style="fill:rgb(35,31,32);fill-rule:nonzero;"></path> <path d="M437.367,46.129C437.367,52.991 441.35,56.887 447.364,56.887C453.379,56.887 457.361,52.991 457.361,46.129C457.361,39.266 453.379,35.37 447.364,35.37C441.35,35.37 437.367,39.266 437.367,46.129ZM468.205,46.129C468.205,57.904 460.156,67.731 447.364,67.731C434.572,67.731 426.523,57.904 426.523,46.129C426.523,34.352 434.572,24.526 447.364,24.526C460.156,24.526 468.205,34.352 468.205,46.129Z" style="fill:rgb(35,31,32);fill-rule:nonzero;"></path> <path d="M475.816,66.714L475.816,25.542L486.066,25.542L486.066,33.336L486.236,33.336C488.1,27.999 492.082,25.034 496.656,25.034L498.943,25.034L498.943,36.555L496.317,36.555C490.896,36.555 487.338,40.283 487.338,46.551L487.338,66.714L475.816,66.714Z" style="fill:rgb(35,31,32);fill-rule:nonzero;"></path> <path d="M505.367,66.714L505.367,7.413L516.211,7.413L516.211,39.436L519.346,39.436C521.125,39.436 522.987,37.996 524.258,35.115L528.495,25.542L540.609,25.542L536.289,35.115C533.832,40.452 532.646,42.147 529.427,42.825L529.427,43.079C537.56,44.518 539.762,48.5 539.762,56.294L539.762,66.714L528.918,66.714L528.918,57.226C528.918,51.804 526.547,49.94 522.396,49.94L516.211,49.94L516.211,66.714L505.367,66.714Z" style="fill:rgb(35,31,32);fill-rule:nonzero;"></path> <path d="M180.477,66.714L165.313,66.714L165.313,56.548L179.291,56.548C181.324,56.548 182.341,55.532 182.341,54.261C182.341,49.093 165.736,47.907 165.736,37.657C165.736,28.761 172.005,25.542 179.122,25.542L192.168,25.542L192.168,35.708L179.63,35.708C178.274,35.708 176.919,35.877 176.919,37.572C176.919,41.299 194.371,43.333 194.371,54.176C194.371,62.394 188.271,66.714 180.477,66.714ZM150.961,20.12C147.318,20.12 145.522,18.664 145.522,14.258C145.522,9.853 147.318,8.396 150.961,8.396C154.604,8.396 156.399,9.853 156.399,14.258C156.399,18.664 154.604,20.12 150.961,20.12ZM156.383,66.714L145.539,66.714L145.539,25.542L156.383,25.542L156.383,66.714ZM138.369,36.555L135.743,36.555C130.321,36.555 126.763,40.283 126.763,46.551L126.763,66.714L115.242,66.714L115.242,25.542L125.492,25.542L125.492,33.336L125.662,33.336C127.525,27.999 131.507,25.034 136.082,25.034L138.369,25.034L138.369,36.555ZM87.789,67.731C74.997,67.731 66.949,57.904 66.949,46.129C66.949,34.352 74.997,24.526 87.789,24.526C100.582,24.526 108.63,34.352 108.63,46.129C108.63,57.904 100.582,67.731 87.789,67.731ZM59.084,66.714L48.24,66.714L48.24,41.977C48.24,37.74 46.037,35.37 42.055,35.37C38.074,35.37 35.871,37.741 35.871,41.977L35.871,66.714L25.027,66.714L25.027,38.25C25.027,29.27 31.974,24.526 42.055,24.526C52.136,24.526 59.084,29.27 59.084,38.25L59.084,66.714ZM0,0.707L0,81L219.753,81L219.753,0.707L0,0.707ZM87.789,35.37C81.774,35.37 77.793,39.266 77.793,46.129C77.793,52.991 81.774,56.887 87.789,56.887C93.804,56.887 97.786,52.991 97.786,46.129C97.786,39.266 93.804,35.37 87.789,35.37Z" style="fill:rgb(35,31,32);fill-rule:nonzero;"></path> </g> </svg> 