<svg width="391" height="75" viewBox="0 0 391 75" fill="none" xmlns="http://www.w3.org/2000/svg">
<path d="M362.845 48.6954H389.96V55.1605H355.364V17.8665H362.845V48.6954Z" fill="#030302"/>
<path d="M345.434 55.1605H337.953V17.8665H345.434V55.1605Z" fill="#030302"/>
<path fill-rule="evenodd" clip-rule="evenodd" d="M313.65 17.8665C318.465 17.8665 322.061 18.7869 324.459 20.6249C326.874 22.4757 328.023 25.2175 328.023 28.7296C328.023 31.2809 327.358 33.4304 326.051 35.1084C325.039 36.4074 323.654 37.4023 321.934 38.0893C323.792 38.3256 325.161 38.8843 326.107 39.8411C327.318 41.066 327.768 42.867 327.768 45.2133V55.1605H320.338V46.1292C320.338 44.5256 319.944 43.4618 319.223 42.7918C318.497 42.1172 317.376 41.7787 315.786 41.7787H293.174V55.1605H285.692V17.8665H313.65ZM293.174 35.5209H312.224C314.949 35.5209 316.977 35.0889 318.318 34.1558C319.633 33.2399 320.338 31.8022 320.338 29.6455C320.338 27.5169 319.637 26.1594 318.329 25.3123C316.988 24.4444 314.957 24.0746 312.224 24.0746H293.174V35.5209Z" fill="#030302"/>
<path d="M240.048 33.2809H268.281V17.8665H275.761V55.1605H268.281V39.7439H240.048V55.1605H232.566V17.8665H240.048V33.2809Z" fill="#030302"/>
<path d="M224.401 24.3295H207.004V55.1605H199.573V24.3295H182.124V17.8665H224.401V24.3295Z" fill="#030302"/>
<path d="M173.958 55.1605H166.478V17.8665H173.958V55.1605Z" fill="#030302"/>
<path d="M112.853 18.0328L129.302 46.7297L145.702 18.0328L145.799 17.8665H156.548V55.1605H149.119V26.0187L132.653 55.1605H125.904L109.438 26.0187V55.1605H101.958V17.8665H112.758L112.853 18.0328Z" fill="#030302"/>
<path d="M22.7121 42.7547C26.2109 39.2604 30.9554 37.2963 35.9031 37.2936L0.740723 37.2951V30.3025H23.3461C28.2694 30.3025 32.9916 32.2448 36.487 35.7045L11.6763 10.9242L16.6269 5.97969L32.6102 21.9434C36.0981 25.427 38.063 30.1479 38.078 35.0728V0.000488281H45.0793V22.5782C45.0792 27.5232 44.0996 33.7957 40.5988 37.2926H49.792L75.3289 37.2936V44.2863H52.7236C48.2612 44.2862 43.9671 42.6862 40.5988 39.8113L64.4813 63.6645L59.5307 68.6091L43.5474 52.6453C40.0476 49.1499 38.0797 44.4091 38.078 39.466L38.0796 74.5883H31.0783V52.0106C31.0784 47.0939 33.0223 42.3783 36.4855 38.8873L11.6779 63.6645L6.72725 58.72L22.7121 42.7547Z" fill="#030302"/>
<path d="M70.9413 17.5507C70.9413 22.3971 67.0125 26.3258 62.1662 26.3258C60.0234 26.3258 58.06 25.5578 56.5363 24.282C54.6138 22.6723 53.3911 20.2543 53.3911 17.5507C53.3911 12.7044 57.3199 8.77563 62.1662 8.77563C67.0125 8.77563 70.9413 12.7044 70.9413 17.5507Z" fill="#BE5748"/>
</svg>
