<svg xmlns="http://www.w3.org/2000/svg" viewBox="0 0 160 60">
    <defs>
        <linearGradient id="b" x1="0" x2="1" y1="0" y2="0" gradientTransform="matrix(0 17.51171 17.51171 0 505.227 434.324)" gradientUnits="userSpaceOnUse" spreadMethod="pad">
            <stop offset="0" stop-color="#feeabe"/>
            <stop offset=".25" stop-color="#fdd000"/>
            <stop offset="1" stop-color="#b67100"/>
        </linearGradient>
        <linearGradient id="a" x1="0" x2="1" y1="0" y2="0" gradientTransform="matrix(0 -19.45634 -19.45634 0 502.922 452.515)" gradientUnits="userSpaceOnUse" spreadMethod="pad">
            <stop offset="0" stop-color="#feeabe"/>
            <stop offset=".5" stop-color="#fdd000"/>
            <stop offset="1" stop-color="#af7900"/>
        </linearGradient>
        <clipPath id="c" clipPathUnits="userSpaceOnUse">
            <path d="M469.599 433.685h78.439v19.292h-78.439z"/>
        </clipPath>
    </defs>
    <path fill="url(#a)" d="M469.599 443.484v-.851c.623-4.251 10.486-7.794 23.782-8.9h.004c-9.328 1.429-19.217 4.559-19.217 8.053 0 5.335 14.765 9.663 32.805 9.663 12.428 0 24.501-2.943 29.276-5.965-4.588 3.879-18.69 7.262-33.893 7.262-17.551 0-31.999-4.112-32.757-9.262" transform="matrix(2.04537 0 0 -2.04537 -960.503 936.588)"/>
    <path fill="url(#b)" d="M474.168 441.849v-.113c.093-3.475 9.937-6.582 19.222-8.003-6.798 1.744-13.85 4.272-13.85 7.557 0 4.888 13.068 8.844 29.011 8.844 10.985 0 22.423-1.928 27.698-4.65-4.775 3.022-16.848 5.965-29.276 5.965-17.969 0-32.688-4.293-32.805-9.6" transform="matrix(2.04537 0 0 -2.04537 -960.503 936.588)"/>
    <path fill="#0e357f" d="M27.98 27.273h6.3L34.693 35h.02l1.63-7.727h3.609L37.66 38.23h-6.193l-.465-7.948h-.04l-1.66 7.948h-3.61M51.962 30.504h-3.616l-1.618 7.725h-4.205l1.618-7.725h-3.629l.683-3.23h11.442M64.539 30.504h-3.626l-1.622 7.725h-4.202l1.604-7.725h-3.608l.677-3.23h11.456"/>
    <g clip-path="url(#c)" transform="matrix(2.04537 0 0 -2.04537 -960.503 936.588)">
        <path fill="#0e357f" d="M508.653 441.16c0-1.167-.78-2.016-1.9-2.016-.915 0-1.462.577-1.462 1.519 0 1.109.82 1.958 1.895 1.958.868 0 1.467-.541 1.467-1.461m-.866-.002c0 .433-.15.797-.639.797-.657 0-.98-.758-.98-1.356 0-.443.171-.788.65-.788.64 0 .97.778.97 1.347M509.295 442.182c.03.127.055.26.068.369h.78l-.073-.448h.015c.214.34.583.518.98.518.376 0 .77-.226.808-.63h.015c.214.436.672.63 1.126.63a.9.9 0 0 0 .884-.907c0-.296-.07-.636-.137-.902l-.335-1.596h-.832l.33 1.62c.047.209.11.515.11.72a.39.39 0 0 1-.389.4c-.58 0-.725-.7-.833-1.151l-.327-1.59h-.83l.335 1.622c.045.208.106.514.106.72 0 .239-.187.4-.393.4-.565 0-.72-.705-.83-1.152l-.324-1.59h-.833M514.573 442.182c.024.127.05.26.065.369h.781l-.077-.448h.017c.219.34.585.518.977.518.381 0 .771-.226.815-.63h.013c.216.436.676.63 1.119.63a.901.901 0 0 0 .892-.907c0-.296-.072-.636-.143-.902l-.334-1.596h-.837l.338 1.62c.041.209.11.515.11.72 0 .24-.18.4-.389.4-.583 0-.73-.7-.828-1.151l-.336-1.59h-.827l.329 1.622c.046.208.111.514.111.72a.39.39 0 0 1-.391.4c-.566 0-.722-.705-.831-1.152l-.326-1.59h-.828M522.27 439.697a4.52 4.52 0 0 1-.08-.482h-.818l.058.323h-.013c-.229-.219-.547-.395-.9-.395-.63 0-1.047.397-1.047 1.065 0 .25.057.51.103.72l.337 1.623h.832l-.31-1.574a3.319 3.319 0 0 1-.093-.694c0-.285.186-.472.45-.472.58 0 .788.56.897 1.061l.335 1.68h.834M523.396 442.067c.038.203.068.376.082.484h.814l-.054-.325h.01c.23.218.547.395.904.395.633 0 1.045-.401 1.045-1.062 0-.253-.064-.515-.11-.722l-.331-1.623h-.837l.313 1.575c.044.224.096.452.096.696 0 .281-.188.47-.455.47-.576 0-.788-.56-.891-1.057l-.347-1.684h-.825M527.123 442.551h.832l-.68-3.335h-.833Zm.304 1.431h.83l-.168-.827h-.838M530.681 441.785a1.088 1.088 0 0 1-.607.168c-.667 0-1.039-.647-1.039-1.273 0-.434.14-.869.712-.869.207 0 .455.062.673.168l-.09-.684c-.256-.133-.533-.152-.802-.152-.828 0-1.36.576-1.36 1.44 0 1.158.743 2.038 1.89 2.038.307 0 .605-.052.83-.124M532.86 439.731h-.015c-.28-.379-.57-.588-1.026-.588-.578 0-.99.336-.99.95 0 1.093 1.178 1.183 1.963 1.183h.292l.023.28c0 .338-.347.435-.636.435-.369 0-.722-.097-1.05-.255l.117.69c.351.129.714.194 1.086.194.64 0 1.243-.239 1.243-1.022 0-.448-.317-1.752-.395-2.382h-.698zm-.813.045c.62 0 .813.443.943.982h-.292c-.4 0-1.076-.067-1.076-.634 0-.236.21-.348.425-.348M534.363 442.551h.6l.145.681.895.303-.207-.984h.746l-.129-.639h-.746l-.307-1.455a1.776 1.776 0 0 1-.032-.32c0-.2.127-.326.313-.326.15 0 .3.035.403.077l-.146-.672c-.137-.03-.3-.074-.443-.074-.563 0-.962.233-.962.872 0 .255.045.508.106.775l.234 1.123h-.6M537.209 442.551h.832l-.676-3.335h-.834Zm.307 1.431h.833l-.171-.827h-.834M541.553 441.16c0-1.167-.778-2.016-1.91-2.016-.908 0-1.458.577-1.458 1.519 0 1.109.825 1.958 1.892 1.958.866 0 1.476-.541 1.476-1.461m-.875-.002c0 .433-.142.797-.633.797-.657 0-.986-.758-.986-1.356 0-.443.177-.788.656-.788.642 0 .963.778.963 1.347M542.257 442.067c.038.203.072.376.082.484h.811l-.054-.325h.013c.227.218.547.395.91.395.624 0 1.037-.401 1.037-1.062 0-.253-.06-.515-.108-.722l-.33-1.623h-.832l.312 1.575c.04.224.092.452.092.696 0 .281-.189.47-.456.47-.577 0-.782-.56-.892-1.057l-.343-1.684h-.83M547.648 441.84a1.939 1.939 0 0 1-.686.151c-.246 0-.555-.069-.555-.337 0-.423 1.082-.576 1.082-1.39 0-.868-.732-1.12-1.445-1.12-.334 0-.671.046-.973.196l.175.697c.24-.139.475-.26.798-.26.279 0 .57.098.57.37 0 .53-1.08.58-1.08 1.418 0 .78.728 1.056 1.389 1.056.302 0 .613-.054.902-.128M505.303 442.835c-.196.146-.522.258-.99.258-.42 0-1.315-.267-1.62-1.343-.387-1.371.39-1.9 1.151-1.9a1.7 1.7 0 0 1 .922.283l-.158-.871a3.82 3.82 0 0 0-.984-.12c-1.306 0-2.223 1.004-1.833 2.608.345 1.43 1.41 2.06 2.477 2.06.436 0 .894-.06 1.27-.221"/>
    </g>
</svg>
