<svg xmlns="http://www.w3.org/2000/svg" viewBox="0 0 200 64.032">
    <defs>
        <radialGradient id="a" cx="52.528" cy="-49.92" r="104.617" fx="52.528" fy="-49.92" gradientTransform="matrix(.32799 0 0 .32882 6.71 12.102)" gradientUnits="userSpaceOnUse">
            <stop offset="0%" stop-color="#20C6B7"/>
            <stop offset="100%" stop-color="#4D9ABF"/>
        </radialGradient>
    </defs>
    <path fill="#0e1e25" d="m81.165 22.74.156 2.801c1.786-2.167 4.131-3.25 7.033-3.25 5.03 0 7.59 2.89 7.68 8.673v16.022H90.61V31.278c0-1.539-.33-2.677-.993-3.418-.662-.74-1.745-1.109-3.248-1.109-2.189 0-3.82.994-4.889 2.98v17.255h-5.425V22.74h5.112zm31.032 24.695c-3.437 0-6.224-1.086-8.36-3.26-2.135-2.173-3.203-5.069-3.203-8.684v-.672c0-2.42.464-4.583 1.395-6.487.93-1.905 2.236-3.387 3.918-4.45 1.682-1.059 3.557-1.589 5.627-1.589 3.288 0 5.83 1.053 7.622 3.159 1.795 2.107 2.691 5.086 2.691 8.941v2.197h-15.785c.166 2.001.83 3.585 1.999 4.75s2.639 1.748 4.41 1.748c2.484 0 4.508-1.007 6.072-3.025l2.924 2.802c-.968 1.448-2.259 2.572-3.873 3.371-1.615.8-3.427 1.199-5.435 1.199zm-.646-20.772c-1.49 0-2.69.523-3.605 1.568-.917 1.045-1.5 2.503-1.753 4.37h10.336v-.404c-.12-1.823-.603-3.2-1.45-4.134-.85-.933-2.025-1.4-3.528-1.4zm21.341-9.816v5.893h4.265v4.034h-4.265v13.535c0 .925.184 1.593.548 2.005.364.41 1.015.616 1.954.616a8.326 8.326 0 0 0 1.896-.225v4.214c-1.234.344-2.425.515-3.572.515-4.166 0-6.25-2.308-6.25-6.924V26.773h-3.977v-4.034h3.975v-5.893h5.424zm14.177 30.14h-5.425v-34.42h5.425zm11.676 0h-5.425V22.74h5.425zm-5.76-30.544c0-.835.263-1.53.792-2.083.53-.552 1.284-.829 2.266-.829s1.741.277 2.278.829c.535.553.802 1.248.802 2.084 0 .821-.267 1.504-.802 2.05-.537.546-1.296.818-2.278.818s-1.737-.272-2.266-.818c-.529-.544-.792-1.229-.792-2.05zm13.574 30.544V26.773h-3.684v-4.034h3.684v-2.218c0-2.69.743-4.765 2.231-6.23 1.49-1.463 3.572-2.195 6.25-2.195.954 0 1.966.134 3.038.403l-.134 4.257a10.646 10.646 0 0 0-2.076-.178c-2.59 0-3.885 1.336-3.885 4.01v2.151h4.911v4.034h-4.911v20.213h-5.424zm22.748-7.798 4.911-16.449H200l-9.598 27.923c-1.474 4.078-3.975 6.117-7.502 6.117-.79 0-1.66-.135-2.612-.404v-4.213l1.027.068c1.369 0 2.4-.25 3.092-.751.691-.5 1.239-1.34 1.641-2.52l.78-2.085-8.483-24.135h5.85z"/>
    <path fill="url(#a)" d="m31.63 24.751-.013-.005c-.007-.003-.014-.006-.02-.012a.099.099 0 0 1-.025-.083l.69-4.23 3.24 3.245-3.37 1.436a.07.07 0 0 1-.029.005h-.013a.102.102 0 0 1-.018-.015 1.534 1.534 0 0 0-.442-.341zm4.698-.258 3.464 3.469c.72.721 1.08 1.08 1.21 1.498.02.062.036.123.049.187l-8.278-3.51a.22.22 0 0 0-.013-.006c-.033-.013-.071-.029-.071-.063s.039-.05.072-.063l.01-.005zm4.582 6.267c-.179.337-.527.686-1.117 1.277l-3.905 3.91-5.051-1.053-.027-.006c-.045-.007-.092-.015-.092-.055a1.527 1.527 0 0 0-.585-1.068c-.02-.02-.015-.052-.01-.082 0-.004 0-.009.003-.013l.95-5.84.003-.02c.005-.044.014-.096.054-.096a1.545 1.545 0 0 0 1.036-.595c.008-.009.014-.019.024-.024.029-.014.063 0 .092.012l8.624 3.653zm-5.92 6.086-6.422 6.431 1.1-6.765.001-.01c0-.008.003-.017.005-.025.01-.022.032-.03.055-.04l.01-.004c.241-.103.454-.261.622-.463.021-.025.047-.049.08-.053a.08.08 0 0 1 .026 0l4.522.93zm-7.781 7.792-.724.725-8.002-11.582a.85.85 0 0 0-.01-.012c-.012-.017-.025-.034-.022-.054 0-.014.01-.027.02-.037l.008-.012c.024-.036.045-.072.067-.11l.018-.032.003-.002c.012-.022.024-.042.045-.054.02-.009.045-.005.066 0l8.865 1.83a.146.146 0 0 1 .068.03c.012.011.014.024.017.038.125.475.465.864.919 1.052.025.012.014.04.003.07a.209.209 0 0 0-.014.04c-.112.68-1.07 6.53-1.327 8.11zm-1.512 1.514c-.534.528-.848.809-1.204.921-.35.111-.727.111-1.078 0-.416-.132-.776-.492-1.495-1.213l-8.037-8.048 2.1-3.26c.01-.016.02-.03.035-.042.022-.016.055-.01.081 0 .482.145 1 .12 1.464-.074.024-.01.048-.016.067.001.01.009.018.019.025.029l8.042 11.686zm-12.588-9.116-1.844-1.846 3.64-1.555a.075.075 0 0 1 .03-.007c.03 0 .048.03.064.058.037.057.076.112.117.165l.011.014c.011.016.004.03-.007.045l-2.01 3.126zm-2.66-2.663-2.332-2.336c-.397-.397-.685-.685-.885-.933l7.092 1.473a.488.488 0 0 0 .027.004c.043.007.092.015.092.057 0 .044-.053.065-.098.082l-.02.009zm-3.624-4.47c.008-.15.035-.3.08-.443.132-.417.492-.777 1.212-1.498l2.985-2.99c1.374 1.998 2.752 3.993 4.133 5.985.024.032.051.068.024.095-.13.144-.261.302-.353.472a.143.143 0 0 1-.045.056c-.012.007-.024.004-.038.002h-.001l-7.997-1.68Zm5.075-5.73 4.012-4.02c.378.166 1.751.747 2.978 1.266.93.394 1.777.752 2.043.868.027.011.051.022.063.049.007.016.003.036 0 .053-.13.59.046 1.204.467 1.636.027.027 0 .066-.023.099l-.013.018-4.075 6.321a.124.124 0 0 1-.038.045c-.021.013-.052.007-.077 0a2.03 2.03 0 0 0-.485-.065 2.67 2.67 0 0 0-.467.056c-.018.003-.034.006-.049-.004a.188.188 0 0 1-.04-.046L11.9 24.173zm4.824-4.83 5.196-5.204c.719-.72 1.08-1.08 1.495-1.212.351-.111.728-.111 1.078 0 .417.131.777.492 1.496 1.212l1.126 1.128-3.695 5.73a.138.138 0 0 1-.037.044c-.022.015-.053.009-.08 0a1.872 1.872 0 0 0-1.716.33c-.024.026-.06.012-.09-.002-.483-.21-4.236-1.799-4.773-2.027zm11.176-3.29 3.411 3.416-.822 5.1v.013a.12.12 0 0 1-.007.034c-.009.018-.027.021-.045.027a1.634 1.634 0 0 0-.507.26c-.01.01-.02.02-.036.022a.1.1 0 0 1-.038-.007l-5.2-2.212-.01-.004c-.032-.014-.072-.03-.072-.064-.03-.29-.125-.57-.277-.819-.025-.04-.052-.084-.03-.126zm-3.514 7.701 4.874 2.067c.027.013.056.024.068.052a.094.094 0 0 1 0 .051 1.214 1.214 0 0 0-.027.236v.136c0 .034-.035.049-.067.062l-.01.004c-.772.33-10.84 4.629-10.855 4.629-.015 0-.031 0-.046-.015-.027-.027 0-.065.024-.099a.646.646 0 0 0 .012-.018l4.005-6.21.008-.01c.023-.038.05-.08.093-.08l.04.006c.091.012.171.024.253.024.607 0 1.17-.296 1.51-.803a.143.143 0 0 1 .03-.036c.024-.017.06-.008.088.004zm-5.582 8.22 10.974-4.687s.016 0 .031.015c.06.06.111.1.16.138l.024.015c.023.013.045.027.047.05 0 .01 0 .015-.002.023l-.94 5.783-.004.023c-.006.045-.012.096-.054.096a1.545 1.545 0 0 0-1.227.758l-.004.007c-.013.02-.025.04-.045.05-.019.01-.043.006-.063.002l-8.75-1.808c-.01-.002-.137-.464-.147-.465z" transform="translate(-12.736 -23.967) scale(1.8661)"/>
</svg>