<svg width="250" height="60" viewBox="0 0 250 60" fill="none" xmlns="http://www.w3.org/2000/svg">
<path d="M74.0015 20.359H77.7485V23.0787C79.1048 20.968 81.1738 19.9308 83.6339 19.9308C87.7387 19.9308 90.0906 22.6143 90.0906 27.264V38.2458H86.1661V27.9425C86.1661 25.1171 84.8099 23.5793 82.2777 23.5793C79.3877 23.5793 77.8539 25.7262 77.8539 29.803V38.2458H74.0015V20.359Z" fill="black"/>
<path d="M101.002 19.9276C105.997 19.9276 108.457 22.2524 108.457 26.9021V38.2426H104.604V35.7732C103.392 37.5974 101.393 38.6709 98.9326 38.6709C95.3298 38.6709 92.903 36.346 92.903 33.0534C92.903 29.9778 95.0802 27.8309 98.6109 27.5083L103.57 27.0078C104.319 26.9355 104.604 26.6852 104.604 26.1846V25.7897C104.604 24.288 103.32 23.3926 101.074 23.3926C98.6136 23.3926 96.9717 24.4299 96.5446 26.1846L93.441 24.2185C94.3674 21.4265 97.0078 19.9248 101.004 19.9248L101.002 19.9276ZM99.4679 30.6229C97.826 30.8009 96.8968 31.6602 96.8968 32.9478C96.8968 34.3771 98.0035 35.2726 99.8229 35.2726C102.535 35.2726 104.604 33.376 104.604 31.015V29.9778L99.4679 30.6202V30.6229Z" fill="black"/>
<path d="M133.102 19.9276C137.382 19.9276 139.917 22.575 139.917 27.6557V38.2426H136.028V27.9394C136.028 25.0778 134.744 23.5762 132.317 23.5762C129.214 23.5762 127.716 25.723 127.716 29.7998V38.2426H123.864V27.9394C123.864 25.0778 122.543 23.5762 120.117 23.5762C117.046 23.5762 115.549 25.723 115.549 29.7998V38.2426H111.696V20.3587H115.443V23.1479C116.55 21.0733 118.403 19.9276 121.046 19.9276C123.689 19.9276 125.719 21.0733 126.754 23.362C128.146 21.1095 130.215 19.9276 133.105 19.9276H133.102Z" fill="black"/>
<path d="M151.321 19.9276C156.849 19.9276 159.989 23.8626 159.989 29.3716V30.4811H146.287V30.5173C146.645 33.5596 149.069 35.0613 151.64 35.0613C153.995 35.0613 155.742 34.024 156.99 32.7364L158.81 35.8483C157.348 37.2804 155.027 38.6737 151.674 38.6737C145.966 38.6737 142.363 34.8833 142.363 29.3716C142.363 23.8598 145.824 19.9276 151.319 19.9276H151.321ZM151.249 23.362C148.431 23.362 146.789 24.936 146.326 27.5473H155.781C155.532 25.0778 154.034 23.362 151.249 23.362Z" fill="black"/>
<path d="M169.008 19.9276C172.22 19.9276 174.538 21.0733 176.072 23.2202L173.468 25.6869C172.505 24.2213 170.722 23.4705 168.722 23.4705C166.939 23.4705 165.832 24.1157 165.832 25.2586C165.832 26.4739 167.011 26.7603 170.043 27.475C173.612 28.3343 176.108 29.3716 176.108 32.9839C176.108 36.5963 173.468 38.6709 168.867 38.6709C165.228 38.6709 162.338 37.3472 160.945 35.0585L163.586 32.5195C164.62 34.1297 166.476 35.167 169.149 35.167C171.041 35.167 172.184 34.5246 172.184 33.2009C172.184 31.8771 171.077 31.5907 168.223 30.9483C165.156 30.2698 161.908 29.1964 161.908 25.4032C161.908 22.0049 164.62 19.9304 169.005 19.9304L169.008 19.9276Z" fill="black"/>
<path d="M178.277 20.3587H182.129V22.8976C183.555 20.9649 185.696 19.9276 188.267 19.9276C193.19 19.9276 196.616 23.7541 196.616 29.2993C196.616 34.8444 193.19 38.6709 188.303 38.6709C185.771 38.6709 183.666 37.6336 182.132 35.6675V46.9274H178.28V20.3587H178.277ZM192.655 29.302C192.655 25.9038 190.514 23.6151 187.305 23.6151C184.096 23.6151 181.955 25.8676 181.955 29.302C181.955 32.7364 184.096 34.989 187.305 34.989C190.514 34.989 192.655 32.7003 192.655 29.302Z" fill="black"/>
<path d="M206.206 19.9276C211.201 19.9276 213.661 22.2524 213.661 26.9021V38.2426H209.809V35.7732C208.597 37.5974 206.597 38.6709 204.137 38.6709C200.534 38.6709 198.108 36.346 198.108 33.0534C198.108 29.9778 200.285 27.8309 203.816 27.5083L208.775 27.0078C209.523 26.9355 209.809 26.6852 209.809 26.1846V25.7897C209.809 24.288 208.525 23.3926 206.278 23.3926C203.818 23.3926 202.176 24.4299 201.749 26.1846L198.646 24.2185C199.572 21.4265 202.212 19.9248 206.209 19.9248L206.206 19.9276ZM204.673 30.6229C203.031 30.8009 202.102 31.6602 202.102 32.9478C202.102 34.3771 203.208 35.2726 205.028 35.2726C207.74 35.2726 209.809 33.376 209.809 31.015V29.9778L204.673 30.6202V30.6229Z" fill="black"/>
<path d="M225.108 19.9276C227.745 19.9276 229.995 20.8231 231.706 22.5389L229.387 25.5784C228.031 24.327 226.605 23.6818 225 23.6818C221.788 23.6818 219.613 25.9705 219.613 29.2993C219.613 32.628 221.827 34.9167 224.964 34.9167C226.642 34.9167 228.211 34.2381 229.568 32.9506L231.781 36.0263C230.067 37.7421 227.676 38.6737 224.966 38.6737C219.439 38.6737 215.656 34.8833 215.656 29.3382C215.656 23.7931 219.544 19.9304 225.111 19.9304L225.108 19.9276Z" fill="black"/>
<path d="M241.333 19.9276C246.86 19.9276 250 23.8626 250 29.3716V30.4811H236.299V30.5173C236.657 33.5596 239.081 35.0613 241.652 35.0613C244.006 35.0613 245.754 34.024 247.002 32.7364L248.821 35.8483C247.36 37.2804 245.038 38.6737 241.685 38.6737C235.977 38.6737 232.374 34.8833 232.374 29.3716C232.374 23.8598 235.836 19.9276 241.33 19.9276H241.333ZM241.261 23.362C238.443 23.362 236.801 24.936 236.338 27.5473H245.793C245.543 25.0778 244.045 23.362 241.261 23.362Z" fill="black"/>
<path d="M29.6992 59.3985C46.1017 59.3985 59.3985 46.1017 59.3985 29.6992C59.3985 13.2968 46.1017 0 29.6992 0C13.2968 0 0 13.2968 0 29.6992C0 46.1017 13.2968 59.3985 29.6992 59.3985Z" fill="#1C32FF"/>
<path d="M45.1684 46.1678V41.7176H30.2588V46.1678H45.1684Z" fill="white"/>
<path d="M33.9364 38.5464H30.2856L19.7996 23.7568V38.5464H15.3494V16.3486H19.693L29.4862 30.3788V16.3486H33.9364V38.5464Z" fill="white"/>
</svg>
