<?xml version="1.0" encoding="utf-8"?>
<!-- Generator: Adobe Illustrator 27.7.0, SVG Export Plug-In . SVG Version: 6.00 Build 0)  -->
<svg version="1.1" id="Elements" xmlns="http://www.w3.org/2000/svg" xmlns:xlink="http://www.w3.org/1999/xlink" x="0px" y="0px"
	 viewBox="0 0 645.3 112" style="enable-background:new 0 0 645.3 112;" xml:space="preserve">
<style type="text/css">
	.st0{fill:#231F20;}
	.st1{fill:#1CB24B;}
</style>
<g id="Logo">
	<g id="Mark">
		<path id="bottom_right_dot" class="st0" d="M633.7,38c6.4,0,11.6,5.3,11.6,11.8s-5.2,11.8-11.6,11.8s-11.6-5.3-11.6-11.8
			C622.1,43.2,627.3,38,633.7,38z"/>
		<path id="green_dot" class="st1" d="M645.2,15.1c0,6.5-5.2,11.8-11.6,11.8S622,21.7,622,15.1s5.3-11.8,11.7-11.8
			S645.2,8.6,645.2,15.1L645.2,15.1z"/>
		<path id="top_left_dot" class="st0" d="M611.3,15.1c0,6.5-5.2,11.8-11.6,11.8s-11.6-5.3-11.6-11.8s5.2-11.8,11.6-11.8
			C606.1,3.3,611.3,8.6,611.3,15.1z"/>
	</g>
	<g id="Greymatter.io_x5D_">
		<path class="st0" d="M76.8,89.2V37.5h7.7v7.8h0.6c1-2.5,2.6-4.7,5.2-6.2c2.5-1.6,5.3-2.4,8.4-2.4h2.3c0.9,0,1.6,0.1,2.1,0.1V45
			c-0.3-0.1-0.9-0.2-1.9-0.3c-1-0.2-2-0.2-3-0.2c-2.5,0-4.8,0.5-6.8,1.6s-3.5,2.5-4.7,4.4c-1.2,1.8-1.8,3.9-1.8,6.3v32.8h-8.1
			C76.8,89.4,76.8,89.2,76.8,89.2z"/>
		<path class="st0" d="M154.4,62.7c0-4.8-0.7-8.9-2-12.2c-1.3-3.3-3-6-5.2-7.9c-2.2-2-4.6-3.5-7.2-4.4c-2.6-0.9-5.4-1.4-8-1.4
			c-4.7,0-8.8,1.2-12.4,3.4c-3.5,2.3-6.3,5.4-8.2,9.5s-2.9,8.7-2.9,14.1s1,10,2.9,14c2,4,4.8,7.1,8.4,9.3c3.6,2.2,8,3.3,13,3.3
			c3.5,0,6.8-0.6,9.6-1.6s5.2-2.6,7.1-4.6c2-1.9,3.3-4.3,4.1-6.9l-7.7-2.1c-0.7,1.8-1.7,3.3-2.9,4.5s-2.7,2.1-4.4,2.7
			c-1.8,0.6-3.6,0.9-5.8,0.9c-3.2,0-6.1-0.7-8.5-2.1s-4.4-3.5-5.8-6.2c-1.3-2.4-2-5.4-2.1-8.8h38L154.4,62.7L154.4,62.7L154.4,62.7z
			 M116.5,59.2c0.2-2.4,0.8-4.7,1.9-6.8c1.3-2.5,3-4.6,5.4-6.1c2.3-1.6,5.1-2.3,8.3-2.3c2.9,0,5.5,0.7,7.5,2c2.2,1.4,3.8,3.1,5,5.4
			s1.8,4.9,1.8,7.8C146.4,59.2,116.5,59.2,116.5,59.2z"/>
		<path class="st0" d="M170.2,108.7c-1.4,0-2.5-0.1-3.6-0.3c-1.1-0.2-1.8-0.4-2.3-0.6l2.1-7c2,0.5,3.7,0.7,5.2,0.6s2.8-0.8,4-1.9
			c1.2-1.2,2.3-3.1,3.2-5.7l1.5-4.1L161,37.5h8.7l14.5,41.3h0.6l14.4-41.3h8.7l-22.2,59.4c-1,2.7-2.3,4.9-3.7,6.7
			c-1.5,1.7-3.2,3.1-5.1,4C174.9,108.2,172.6,108.7,170.2,108.7L170.2,108.7z"/>
		<path class="st0" d="M218.4,89.2V37.5h7.7v8h0.7c1.1-2.8,2.8-4.9,5.3-6.5c2.4-1.6,5.4-2.3,8.7-2.3s6.4,0.8,8.6,2.3
			c2.3,1.6,4.1,3.7,5.4,6.5h0.6c1.4-2.7,3.3-4.8,6.1-6.4c2.6-1.6,5.9-2.4,9.6-2.4c4.7,0,8.5,1.5,11.5,4.4s4.5,7.4,4.5,13.5v34.7h-8
			V54.5c0-3.8-1.1-6.6-3.1-8.2c-2.2-1.6-4.6-2.4-7.4-2.4c-3.7,0-6.6,1.1-8.5,3.3c-2.1,2.2-3,4.9-3,8.3v33.7h-8.2V53.8
			c0-2.9-1-5.3-2.9-7.2c-2-1.8-4.4-2.7-7.4-2.7c-2.1,0-4,0.6-5.9,1.6c-1.8,1.1-3.2,2.6-4.4,4.6c-1.1,1.9-1.7,4.2-1.7,6.7v32.4H218.4
			L218.4,89.2z"/>
		<path class="st0" d="M317.2,90.5c-3.3,0-6.4-0.6-9-1.8c-2.6-1.3-4.9-3.1-6.5-5.4s-2.3-5.2-2.3-8.6c0-3,0.6-5.4,1.8-7.3
			c1.2-1.8,2.7-3.3,4.7-4.4s4.2-1.8,6.6-2.4c2.3-0.5,4.8-1,7.2-1.3c3.1-0.4,5.8-0.7,7.7-1c2-0.2,3.4-0.6,4.4-1.1
			c0.9-0.5,1.4-1.5,1.4-2.7v-0.3c0-3.3-0.9-5.9-2.7-7.8c-1.9-1.8-4.6-2.8-8.3-2.8s-6.9,0.9-9,2.5c-2.2,1.6-3.7,3.4-4.6,5.3l-7.6-2.7
			c1.4-3.1,3.2-5.6,5.5-7.4c2.3-1.7,4.8-3,7.5-3.7s5.4-1.1,8-1.1c1.7,0,3.6,0.2,5.8,0.6c2.2,0.4,4.3,1.2,6.4,2.4s3.7,3,5.1,5.5
			c1.4,2.4,2.1,5.7,2.1,9.9V89h-8v-7H333c-0.6,1.2-1.5,2.3-2.7,3.6c-1.3,1.3-2.9,2.3-5.1,3.3C322.9,90,320.3,90.5,317.2,90.5z
			 M318.5,83.3c3.1,0,5.9-0.6,8-1.8s3.8-2.8,5-4.7c1.2-1.9,1.7-4,1.7-6.2v-7.3c-0.3,0.4-1.1,0.8-2.3,1.1c-1.2,0.3-2.4,0.6-3.9,0.9
			s-2.9,0.5-4.3,0.6c-1.4,0.2-2.5,0.3-3.4,0.4c-2.1,0.3-4,0.7-5.9,1.3c-1.8,0.6-3.2,1.5-4.4,2.6c-1.1,1.2-1.7,2.8-1.7,4.8
			c0,2.8,1.1,4.8,3.1,6.3C312.6,82.6,315.2,83.3,318.5,83.3L318.5,83.3z"/>
		<path class="st0" d="M419.3,49.4v-6.6h-15.5V26.2h-7.5v16.6h-23.2V26.2h-7.5v16.6h-14.1v6.6h14.1v31.7c0,2.5,0.7,4.6,2.2,6
			s3.5,2.2,6.2,2.2h12.4v-6.5h-10.5c-1.9,0-2.7-1-2.7-2.8V49.4h23.2v31.7c0,2.5,0.8,4.6,2.3,6s3.5,2.2,6.3,2.2h12.4v-6.5h-10.6
			c-2,0-2.8-1-2.8-2.8V49.4H419.3L419.3,49.4z"/>
		<path class="st0" d="M474.6,62.7c0-4.8-0.7-8.9-2-12.2c-1.3-3.3-3-6-5.2-7.9c-2.2-2-4.6-3.5-7.2-4.4s-5.4-1.4-8-1.4
			c-4.7,0-8.8,1.2-12.4,3.4c-3.5,2.3-6.3,5.4-8.2,9.5s-2.9,8.7-2.9,14.1s1,10,2.9,14c2,4,4.8,7.1,8.4,9.3c3.6,2.2,8,3.3,13,3.3
			c3.5,0,6.8-0.6,9.6-1.6c2.8-1.1,5.2-2.6,7.1-4.6c2-1.9,3.3-4.3,4.1-6.9l-7.7-2.1c-0.7,1.8-1.7,3.3-2.9,4.5s-2.7,2.1-4.4,2.7
			c-1.8,0.6-3.6,0.9-5.8,0.9c-3.2,0-6.1-0.7-8.5-2.1s-4.4-3.5-5.8-6.2c-1.3-2.4-2-5.4-2.1-8.8h38V62.7
			C474.6,62.7,474.6,62.7,474.6,62.7z M436.6,59.2c0.2-2.4,0.8-4.7,1.9-6.8c1.3-2.5,3-4.6,5.4-6.1s5.1-2.3,8.3-2.3
			c2.9,0,5.5,0.7,7.5,2c2.2,1.4,3.8,3.1,5,5.4c1.2,2.3,1.8,4.9,1.8,7.8L436.6,59.2L436.6,59.2z"/>
		<path class="st0" d="M486.8,89.2V37.5h7.7v7.8h0.6c1-2.5,2.6-4.7,5.2-6.2c2.5-1.6,5.3-2.4,8.4-2.4h2.3c0.9,0,1.6,0.1,2.1,0.1V45
			c-0.3-0.1-0.9-0.2-1.9-0.3c-1-0.2-2-0.2-3-0.2c-2.5,0-4.8,0.5-6.8,1.6s-3.5,2.5-4.7,4.4c-1.2,1.8-1.8,3.9-1.8,6.3v32.8h-8.1V89.2
			C486.8,89.2,486.8,89.2,486.8,89.2z"/>
		<path class="st0" d="M522.4,89.8c-1.7,0-3.1-0.6-4.3-1.7c-1.2-1.2-1.8-2.6-1.8-4.3c0-1.6,0.6-3.1,1.8-4.3c1.2-1.2,2.6-1.7,4.3-1.7
			s3.1,0.6,4.3,1.7c1.2,1.2,1.8,2.6,1.8,4.3c0,1.1-0.3,2.1-0.9,3c-0.6,1-1.3,1.6-2.3,2.2S523.5,89.8,522.4,89.8L522.4,89.8z"/>
		<path class="st0" d="M547,28.8c-1.6,0-2.9-0.5-4-1.6s-1.7-2.3-1.7-3.8s0.6-2.7,1.7-3.8c1.1-1.1,2.4-1.6,4-1.6s2.9,0.5,4,1.6
			s1.7,2.3,1.7,3.8s-0.6,2.7-1.7,3.8C550,28.3,548.6,28.8,547,28.8z M542.9,89.2V37.5h8v51.8L542.9,89.2L542.9,89.2z"/>
		<path class="st0" d="M587,90.3c-4.7,0-8.9-1.1-12.4-3.3c-3.5-2.2-6.4-5.3-8.3-9.3c-2-4-2.9-8.7-2.9-14.1s1-10.1,2.9-14.1
			c2-4.1,4.8-7.2,8.3-9.4s7.7-3.3,12.4-3.3s8.9,1.1,12.4,3.3s6.4,5.3,8.3,9.4c2,4.1,2.9,8.7,2.9,14.1s-1,10-2.9,14.1
			c-2,4-4.8,7.1-8.3,9.3S591.7,90.3,587,90.3z M587,83.1c3.6,0,6.6-0.9,8.8-2.7s4-4.3,5.2-7.2c1.2-2.9,1.7-6.2,1.7-9.7
			s-0.6-6.7-1.7-9.7c-1.1-3-2.8-5.4-5.2-7.3c-2.3-1.8-5.3-2.8-8.8-2.8s-6.6,1-8.8,2.8c-2.3,1.8-4,4.3-5.2,7.3
			c-1.1,3-1.7,6.2-1.7,9.7c0,3.5,0.6,6.7,1.7,9.7s2.8,5.3,5.2,7.2C580.5,82.3,583.3,83.1,587,83.1z"/>
		<path class="st0" d="M54.4,38.1c-0.8-2.4-1.9-4.6-3.2-6.6s-2.9-3.6-4.7-5s-3.8-2.4-6.1-3.2c-2.3-0.7-4.8-1.1-7.5-1.1
			c-4.5,0-8.5,1.1-12.2,3.4c-3.6,2.3-6.6,5.6-8.7,10.1C9.8,40.1,8.8,45.6,8.8,52s1.1,11.9,3.3,16.3s5.1,7.8,8.9,10.1
			s7.9,3.4,12.6,3.4c4.3,0,8.1-0.9,11.4-2.7c3.3-1.8,5.9-4.4,7.7-7.8s2.8-7.3,2.8-11.9l2.8,0.6H35.6v-8h28.6v8
			c0,6.1-1.3,11.5-3.9,16c-2.6,4.5-6.3,8-10.9,10.5s-9.9,3.7-15.9,3.7c-6.7,0-12.5-1.6-17.5-4.7S7.1,78,4.2,72.3
			C1.4,66.7,0,59.9,0,52.1c0-5.9,0.8-11.2,2.4-15.9s3.9-8.7,6.8-12.1c2.9-3.3,6.4-5.9,10.4-7.6c4-1.8,8.4-2.7,13.3-2.7
			c4,0,7.7,0.6,11.1,1.8c3.4,1.2,6.5,2.8,9.2,5c2.7,2.1,5,4.7,6.8,7.7s3.1,6.3,3.7,9.9L54.4,38.1C54.4,38.2,54.4,38.1,54.4,38.1z"/>
	</g>
</g>
</svg>
