<svg xmlns="http://www.w3.org/2000/svg" viewBox="0 0 160 60">
  <defs>
    <radialGradient id="a" cx="52.528" cy="-49.92" r="104.617" fx="52.528" fy="-49.92" gradientTransform="matrix(.32799 0 0 .32882 6.71 12.102)" gradientUnits="userSpaceOnUse">
        <stop offset="0%" stop-color="#20C6B7"/>
        <stop offset="100%" stop-color="#4D9ABF"/>
    </radialGradient>
  </defs>
  <path fill="#0e1e25" d="m64.932 22.579.125 2.241c1.429-1.734 3.305-2.6 5.627-2.6 4.023 0 6.071 2.313 6.142 6.939v12.817h-4.338V29.41c0-1.231-.265-2.142-.794-2.735-.53-.591-1.396-.887-2.6-.887-1.75 0-3.054.796-3.91 2.384v13.804h-4.34V22.58h4.09zm24.826 19.756c-2.75 0-4.98-.869-6.688-2.608-1.709-1.738-2.563-4.055-2.563-6.947v-.537c0-1.936.372-3.667 1.116-5.19.743-1.524 1.79-2.71 3.135-3.56 1.345-.847 2.845-1.271 4.5-1.271 2.631 0 4.665.842 6.099 2.527 1.436 1.686 2.153 4.069 2.153 7.153v1.757H84.882c.132 1.601.664 2.868 1.599 3.8.935.932 2.11 1.398 3.527 1.398 1.988 0 3.608-.805 4.858-2.42l2.34 2.242c-.775 1.158-1.807 2.058-3.099 2.697-1.292.64-2.741.96-4.348.96zm-.517-16.617c-1.192 0-2.152.418-2.884 1.254-.734.836-1.2 2.002-1.403 3.496h8.27v-.323c-.096-1.459-.483-2.56-1.161-3.308-.68-.746-1.62-1.12-2.822-1.12zm17.073-7.853v4.715h3.411v3.226h-3.411v10.828c0 .74.146 1.275.438 1.604.291.329.812.493 1.563.493a6.66 6.66 0 0 0 1.517-.18v3.371c-.988.275-1.94.412-2.857.412-3.333 0-5-1.846-5-5.539v-10.99h-3.182V22.58h3.18v-4.715h4.339zm11.342 24.112h-4.34V14.441h4.34zm9.34 0h-4.34V22.58h4.34zm-4.608-24.435c0-.668.21-1.224.633-1.667.424-.441 1.028-.663 1.813-.663.786 0 1.393.222 1.823.663.428.443.642.999.642 1.668 0 .656-.214 1.203-.642 1.64-.43.436-1.037.654-1.823.654-.785 0-1.389-.218-1.813-.655-.422-.435-.633-.983-.633-1.64zm10.859 24.435V25.805H130.3V22.58h2.947v-1.775c0-2.152.595-3.812 1.785-4.984 1.192-1.17 2.858-1.756 5-1.756.763 0 1.573.107 2.43.322l-.106 3.406a8.517 8.517 0 0 0-1.661-.142c-2.073 0-3.109 1.068-3.109 3.208v1.72h3.93v3.227h-3.93v16.171h-4.339zm18.199-6.238 3.928-13.16H160l-7.679 22.338c-1.179 3.263-3.179 4.895-6.001 4.895-.631 0-1.328-.108-2.09-.324v-3.37l.822.054c1.095 0 1.92-.2 2.474-.6.553-.4.99-1.073 1.313-2.017l.624-1.668-6.787-19.307h4.68z"/>
  <path fill="url(#a)" d="m31.63 24.751-.013-.005c-.007-.003-.014-.006-.02-.012a.099.099 0 0 1-.025-.083l.69-4.23 3.24 3.245-3.37 1.436a.07.07 0 0 1-.029.005h-.013a.102.102 0 0 1-.018-.015 1.534 1.534 0 0 0-.442-.341zm4.698-.258 3.464 3.469c.72.721 1.08 1.08 1.21 1.498.02.062.036.123.049.187l-8.278-3.51a.22.22 0 0 0-.013-.006c-.033-.013-.071-.029-.071-.063s.039-.05.072-.063l.01-.005zm4.582 6.267c-.179.337-.527.686-1.117 1.277l-3.905 3.91-5.051-1.053-.027-.006c-.045-.007-.092-.015-.092-.055a1.527 1.527 0 0 0-.585-1.068c-.02-.02-.015-.052-.01-.082 0-.004 0-.009.003-.013l.95-5.84.003-.02c.005-.044.014-.096.054-.096a1.545 1.545 0 0 0 1.036-.595c.008-.009.014-.019.024-.024.029-.014.063 0 .092.012l8.624 3.653zm-5.92 6.086-6.422 6.431 1.1-6.765.001-.01c0-.008.003-.017.005-.025.01-.022.032-.03.055-.04l.01-.004c.241-.103.454-.261.622-.463.021-.025.047-.049.08-.053a.08.08 0 0 1 .026 0l4.522.93zm-7.781 7.792-.724.725-8.002-11.582a.85.85 0 0 0-.01-.012c-.012-.017-.025-.034-.022-.054 0-.014.01-.027.02-.037l.008-.012c.024-.036.045-.072.067-.11l.018-.032.003-.002c.012-.022.024-.042.045-.054.02-.009.045-.005.066 0l8.865 1.83a.146.146 0 0 1 .068.03c.012.011.014.024.017.038.125.475.465.864.919 1.052.025.012.014.04.003.07a.209.209 0 0 0-.014.04c-.112.68-1.07 6.53-1.327 8.11zm-1.512 1.514c-.534.528-.848.809-1.204.921-.35.111-.727.111-1.078 0-.416-.132-.776-.492-1.495-1.213l-8.037-8.048 2.1-3.26c.01-.016.02-.03.035-.042.022-.016.055-.01.081 0 .482.145 1 .12 1.464-.074.024-.01.048-.016.067.001.01.009.018.019.025.029l8.042 11.686zm-12.588-9.116-1.844-1.846 3.64-1.555a.075.075 0 0 1 .03-.007c.03 0 .048.03.064.058.037.057.076.112.117.165l.011.014c.011.016.004.03-.007.045l-2.01 3.126zm-2.66-2.663-2.332-2.336c-.397-.397-.685-.685-.885-.933l7.092 1.473a.488.488 0 0 0 .027.004c.043.007.092.015.092.057 0 .044-.053.065-.098.082l-.02.009zm-3.624-4.47c.008-.15.035-.3.08-.443.132-.417.492-.777 1.212-1.498l2.985-2.99c1.374 1.998 2.752 3.993 4.133 5.985.024.032.051.068.024.095-.13.144-.261.302-.353.472a.143.143 0 0 1-.045.056c-.012.007-.024.004-.038.002h-.001l-7.997-1.68Zm5.075-5.73 4.012-4.02c.378.166 1.751.747 2.978 1.266.93.394 1.777.752 2.043.868.027.011.051.022.063.049.007.016.003.036 0 .053-.13.59.046 1.204.467 1.636.027.027 0 .066-.023.099l-.013.018-4.075 6.321a.124.124 0 0 1-.038.045c-.021.013-.052.007-.077 0a2.03 2.03 0 0 0-.485-.065 2.67 2.67 0 0 0-.467.056c-.018.003-.034.006-.049-.004a.188.188 0 0 1-.04-.046L11.9 24.173zm4.824-4.83 5.196-5.204c.719-.72 1.08-1.08 1.495-1.212.351-.111.728-.111 1.078 0 .417.131.777.492 1.496 1.212l1.126 1.128-3.695 5.73a.138.138 0 0 1-.037.044c-.022.015-.053.009-.08 0a1.872 1.872 0 0 0-1.716.33c-.024.026-.06.012-.09-.002-.483-.21-4.236-1.799-4.773-2.027zm11.176-3.29 3.411 3.416-.822 5.1v.013a.12.12 0 0 1-.007.034c-.009.018-.027.021-.045.027a1.634 1.634 0 0 0-.507.26c-.01.01-.02.02-.036.022a.1.1 0 0 1-.038-.007l-5.2-2.212-.01-.004c-.032-.014-.072-.03-.072-.064-.03-.29-.125-.57-.277-.819-.025-.04-.052-.084-.03-.126zm-3.514 7.701 4.874 2.067c.027.013.056.024.068.052a.094.094 0 0 1 0 .051 1.214 1.214 0 0 0-.027.236v.136c0 .034-.035.049-.067.062l-.01.004c-.772.33-10.84 4.629-10.855 4.629-.015 0-.031 0-.046-.015-.027-.027 0-.065.024-.099a.646.646 0 0 0 .012-.018l4.005-6.21.008-.01c.023-.038.05-.08.093-.08l.04.006c.091.012.171.024.253.024.607 0 1.17-.296 1.51-.803a.143.143 0 0 1 .03-.036c.024-.017.06-.008.088.004zm-5.582 8.22 10.974-4.687s.016 0 .031.015c.06.06.111.1.16.138l.024.015c.023.013.045.027.047.05 0 .01 0 .015-.002.023l-.94 5.783-.004.023c-.006.045-.012.096-.054.096a1.545 1.545 0 0 0-1.227.758l-.004.007c-.013.02-.025.04-.045.05-.019.01-.043.006-.063.002l-8.75-1.808c-.01-.002-.137-.464-.147-.465z" transform="translate(-10.188 -14.786) scale(1.49288)"/>
</svg>
